<mxfile host="app.diagrams.net" agent="Mozilla/5.0 (Macintosh; Intel Mac OS X 10_15_7) AppleWebKit/605.1.15 (KHTML, like Gecko) Version/17.6 Safari/605.1.15" version="26.0.13">
  <diagram name="第 1 页" id="zxTGnObuRSlRANOU2XGX">
    <mxGraphModel dx="1755" dy="539" grid="1" gridSize="10" guides="1" tooltips="1" connect="1" arrows="1" fold="1" page="1" pageScale="1" pageWidth="827" pageHeight="1169" math="0" shadow="0">
      <root>
        <mxCell id="0" />
        <mxCell id="1" parent="0" />
        <mxCell id="P5x_hELf_6X6-CJ0kqpy-409" value="" style="group;fillColor=#dae8fc;strokeColor=#6c8ebf;container=0;opacity=50;" vertex="1" connectable="0" parent="1">
          <mxGeometry x="-154" y="610" width="200" height="190" as="geometry" />
        </mxCell>
        <mxCell id="P5x_hELf_6X6-CJ0kqpy-167" value="" style="whiteSpace=wrap;html=1;aspect=fixed;" vertex="1" parent="1">
          <mxGeometry x="1508" y="160" width="406" height="406" as="geometry" />
        </mxCell>
        <mxCell id="P5x_hELf_6X6-CJ0kqpy-239" style="edgeStyle=none;rounded=1;orthogonalLoop=1;jettySize=auto;html=1;fillColor=#f8cecc;strokeColor=#b85450;curved=0;endArrow=none;startFill=0;exitX=0.5;exitY=0.5;exitDx=0;exitDy=0;exitPerimeter=0;" edge="1" parent="1" source="P5x_hELf_6X6-CJ0kqpy-209" target="P5x_hELf_6X6-CJ0kqpy-210">
          <mxGeometry relative="1" as="geometry">
            <mxPoint x="1778" y="369" as="sourcePoint" />
            <mxPoint x="1775" y="373" as="targetPoint" />
          </mxGeometry>
        </mxCell>
        <mxCell id="P5x_hELf_6X6-CJ0kqpy-102" value="" style="group" vertex="1" connectable="0" parent="1">
          <mxGeometry x="1018" y="160" width="406" height="406" as="geometry" />
        </mxCell>
        <mxCell id="P5x_hELf_6X6-CJ0kqpy-56" value="" style="whiteSpace=wrap;html=1;aspect=fixed;" vertex="1" parent="P5x_hELf_6X6-CJ0kqpy-102">
          <mxGeometry width="406" height="406" as="geometry" />
        </mxCell>
        <mxCell id="P5x_hELf_6X6-CJ0kqpy-57" value="" style="html=1;shadow=0;dashed=0;align=center;verticalAlign=middle;shape=mxgraph.arrows2.arrow;dy=0;dx=16.88;notch=0;rotation=125;fillColor=#ffe6cc;strokeColor=#d79b00;opacity=60;" vertex="1" parent="P5x_hELf_6X6-CJ0kqpy-102">
          <mxGeometry x="278" y="20" width="40" height="20" as="geometry" />
        </mxCell>
        <mxCell id="P5x_hELf_6X6-CJ0kqpy-58" value="" style="html=1;shadow=0;dashed=0;align=center;verticalAlign=middle;shape=mxgraph.arrows2.arrow;dy=0;dx=16.88;notch=0;rotation=125;fillColor=#ffe6cc;strokeColor=#d79b00;opacity=60;" vertex="1" parent="P5x_hELf_6X6-CJ0kqpy-102">
          <mxGeometry x="246" y="66" width="40" height="20" as="geometry" />
        </mxCell>
        <mxCell id="P5x_hELf_6X6-CJ0kqpy-59" value="" style="html=1;shadow=0;dashed=0;align=center;verticalAlign=middle;shape=mxgraph.arrows2.arrow;dy=0;dx=16.88;notch=0;rotation=128;fillColor=#ffe6cc;strokeColor=#d79b00;opacity=60;" vertex="1" parent="P5x_hELf_6X6-CJ0kqpy-102">
          <mxGeometry x="215" y="106" width="40" height="20" as="geometry" />
        </mxCell>
        <mxCell id="P5x_hELf_6X6-CJ0kqpy-62" value="" style="html=1;shadow=0;dashed=0;align=center;verticalAlign=middle;shape=mxgraph.arrows2.arrow;dy=0;dx=16.88;notch=0;rotation=133;fillColor=#ffe6cc;strokeColor=#d79b00;opacity=60;" vertex="1" parent="P5x_hELf_6X6-CJ0kqpy-102">
          <mxGeometry x="188" y="141" width="40" height="20" as="geometry" />
        </mxCell>
        <mxCell id="P5x_hELf_6X6-CJ0kqpy-63" value="" style="html=1;shadow=0;dashed=0;align=center;verticalAlign=middle;shape=mxgraph.arrows2.arrow;dy=0;dx=16.88;notch=0;rotation=113;fillColor=#ffe6cc;strokeColor=#d79b00;opacity=60;" vertex="1" parent="P5x_hELf_6X6-CJ0kqpy-102">
          <mxGeometry x="168" y="176" width="40" height="20" as="geometry" />
        </mxCell>
        <mxCell id="P5x_hELf_6X6-CJ0kqpy-65" value="" style="html=1;shadow=0;dashed=0;align=center;verticalAlign=middle;shape=mxgraph.arrows2.arrow;dy=0;dx=31.09;notch=8.91;rotation=-90;fillColor=#4D4D4D;strokeColor=none;" vertex="1" parent="P5x_hELf_6X6-CJ0kqpy-102">
          <mxGeometry x="22" y="28" width="30" height="24" as="geometry" />
        </mxCell>
        <mxCell id="P5x_hELf_6X6-CJ0kqpy-67" value="N" style="rounded=1;whiteSpace=wrap;html=1;strokeColor=none;fillColor=none;" vertex="1" parent="P5x_hELf_6X6-CJ0kqpy-102">
          <mxGeometry x="27" y="6" width="20" height="20" as="geometry" />
        </mxCell>
        <mxCell id="P5x_hELf_6X6-CJ0kqpy-68" value="" style="html=1;shadow=0;dashed=0;align=center;verticalAlign=middle;shape=mxgraph.arrows2.arrow;dy=0;dx=16.88;notch=0;rotation=-210;opacity=60;fillColor=#e1d5e7;strokeColor=#9673a6;" vertex="1" parent="P5x_hELf_6X6-CJ0kqpy-102">
          <mxGeometry x="270" y="272" width="40" height="20" as="geometry" />
        </mxCell>
        <mxCell id="P5x_hELf_6X6-CJ0kqpy-69" value="" style="html=1;shadow=0;dashed=0;align=center;verticalAlign=middle;shape=mxgraph.arrows2.arrow;dy=0;dx=16.88;notch=0;rotation=136;opacity=60;fillColor=#e1d5e7;strokeColor=#9673a6;" vertex="1" parent="P5x_hELf_6X6-CJ0kqpy-102">
          <mxGeometry x="364" y="168" width="40" height="20" as="geometry" />
        </mxCell>
        <mxCell id="P5x_hELf_6X6-CJ0kqpy-70" value="" style="html=1;shadow=0;dashed=0;align=center;verticalAlign=middle;shape=mxgraph.arrows2.arrow;dy=0;dx=16.88;notch=0;rotation=120;opacity=60;fillColor=#e1d5e7;strokeColor=#9673a6;" vertex="1" parent="P5x_hELf_6X6-CJ0kqpy-102">
          <mxGeometry x="349" y="188" width="40" height="20" as="geometry" />
        </mxCell>
        <mxCell id="P5x_hELf_6X6-CJ0kqpy-71" value="" style="html=1;shadow=0;dashed=0;align=center;verticalAlign=middle;shape=mxgraph.arrows2.arrow;dy=0;dx=16.88;notch=0;rotation=120;opacity=60;fillColor=#e1d5e7;strokeColor=#9673a6;" vertex="1" parent="P5x_hELf_6X6-CJ0kqpy-102">
          <mxGeometry x="334" y="214" width="40" height="20" as="geometry" />
        </mxCell>
        <mxCell id="P5x_hELf_6X6-CJ0kqpy-72" value="" style="html=1;shadow=0;dashed=0;align=center;verticalAlign=middle;shape=mxgraph.arrows2.arrow;dy=0;dx=16.88;notch=0;rotation=-225;opacity=60;fillColor=#e1d5e7;strokeColor=#9673a6;" vertex="1" parent="P5x_hELf_6X6-CJ0kqpy-102">
          <mxGeometry x="315" y="232.5" width="40" height="20" as="geometry" />
        </mxCell>
        <mxCell id="P5x_hELf_6X6-CJ0kqpy-73" value="" style="html=1;shadow=0;dashed=0;align=center;verticalAlign=middle;shape=mxgraph.arrows2.arrow;dy=0;dx=16.88;notch=0;rotation=120;opacity=60;fillColor=#d5e8d4;strokeColor=#82b366;" vertex="1" parent="P5x_hELf_6X6-CJ0kqpy-102">
          <mxGeometry x="223" y="280" width="40" height="20" as="geometry" />
        </mxCell>
        <mxCell id="P5x_hELf_6X6-CJ0kqpy-74" value="" style="html=1;shadow=0;dashed=0;align=center;verticalAlign=middle;shape=mxgraph.arrows2.arrow;dy=0;dx=16.88;notch=0;rotation=139;opacity=60;fillColor=#d5e8d4;strokeColor=#82b366;" vertex="1" parent="P5x_hELf_6X6-CJ0kqpy-102">
          <mxGeometry x="180" y="328" width="40" height="20" as="geometry" />
        </mxCell>
        <mxCell id="P5x_hELf_6X6-CJ0kqpy-76" value="" style="html=1;shadow=0;dashed=0;align=center;verticalAlign=middle;shape=mxgraph.arrows2.arrow;dy=0;dx=16.88;notch=0;rotation=130;opacity=60;fillColor=#d5e8d4;strokeColor=#82b366;" vertex="1" parent="P5x_hELf_6X6-CJ0kqpy-102">
          <mxGeometry x="199" y="308" width="40" height="20" as="geometry" />
        </mxCell>
        <mxCell id="P5x_hELf_6X6-CJ0kqpy-77" value="" style="html=1;shadow=0;dashed=0;align=center;verticalAlign=middle;shape=mxgraph.arrows2.arrow;dy=0;dx=16.88;notch=0;rotation=145;opacity=60;fillColor=#d5e8d4;strokeColor=#82b366;" vertex="1" parent="P5x_hELf_6X6-CJ0kqpy-102">
          <mxGeometry x="159" y="347" width="40" height="20" as="geometry" />
        </mxCell>
        <mxCell id="P5x_hELf_6X6-CJ0kqpy-78" value="" style="html=1;shadow=0;dashed=0;align=center;verticalAlign=middle;shape=mxgraph.arrows2.arrow;dy=0;dx=16.88;notch=0;rotation=160;opacity=60;fillColor=#d5e8d4;strokeColor=#82b366;" vertex="1" parent="P5x_hELf_6X6-CJ0kqpy-102">
          <mxGeometry x="136" y="357" width="40" height="20" as="geometry" />
        </mxCell>
        <mxCell id="P5x_hELf_6X6-CJ0kqpy-79" value="" style="html=1;shadow=0;dashed=0;align=center;verticalAlign=middle;shape=mxgraph.arrows2.arrow;dy=0;dx=16.88;notch=0;rotation=135;opacity=60;fillColor=#dae8fc;strokeColor=#6c8ebf;" vertex="1" parent="P5x_hELf_6X6-CJ0kqpy-102">
          <mxGeometry x="136" y="293" width="40" height="20" as="geometry" />
        </mxCell>
        <mxCell id="P5x_hELf_6X6-CJ0kqpy-80" value="" style="html=1;shadow=0;dashed=0;align=center;verticalAlign=middle;shape=mxgraph.arrows2.arrow;dy=0;dx=16.88;notch=0;rotation=155;opacity=60;fillColor=#dae8fc;strokeColor=#6c8ebf;" vertex="1" parent="P5x_hELf_6X6-CJ0kqpy-102">
          <mxGeometry x="115" y="300" width="40" height="20" as="geometry" />
        </mxCell>
        <mxCell id="P5x_hELf_6X6-CJ0kqpy-81" value="" style="html=1;shadow=0;dashed=0;align=center;verticalAlign=middle;shape=mxgraph.arrows2.arrow;dy=0;dx=16.88;notch=0;rotation=161;opacity=60;fillColor=#dae8fc;strokeColor=#6c8ebf;" vertex="1" parent="P5x_hELf_6X6-CJ0kqpy-102">
          <mxGeometry x="98" y="308" width="40" height="20" as="geometry" />
        </mxCell>
        <mxCell id="P5x_hELf_6X6-CJ0kqpy-82" value="" style="html=1;shadow=0;dashed=0;align=center;verticalAlign=middle;shape=mxgraph.arrows2.arrow;dy=0;dx=16.88;notch=0;rotation=168;opacity=60;fillColor=#dae8fc;strokeColor=#6c8ebf;" vertex="1" parent="P5x_hELf_6X6-CJ0kqpy-102">
          <mxGeometry x="76" y="314" width="40" height="20" as="geometry" />
        </mxCell>
        <mxCell id="P5x_hELf_6X6-CJ0kqpy-83" value="" style="html=1;shadow=0;dashed=0;align=center;verticalAlign=middle;shape=mxgraph.arrows2.arrow;dy=0;dx=16.88;notch=0;rotation=169;opacity=60;fillColor=#d5e8d4;strokeColor=#82b366;" vertex="1" parent="P5x_hELf_6X6-CJ0kqpy-102">
          <mxGeometry x="114" y="364" width="40" height="20" as="geometry" />
        </mxCell>
        <mxCell id="P5x_hELf_6X6-CJ0kqpy-84" value="" style="html=1;shadow=0;dashed=0;align=center;verticalAlign=middle;shape=mxgraph.arrows2.arrow;dy=0;dx=16.88;notch=0;rotation=-180;opacity=60;fillColor=#dae8fc;strokeColor=#6c8ebf;" vertex="1" parent="P5x_hELf_6X6-CJ0kqpy-102">
          <mxGeometry x="57" y="317" width="40" height="20" as="geometry" />
        </mxCell>
        <mxCell id="P5x_hELf_6X6-CJ0kqpy-86" value="" style="html=1;shadow=0;dashed=0;align=center;verticalAlign=middle;shape=mxgraph.arrows2.arrow;dy=0;dx=16.88;notch=0;rotation=-180;opacity=60;fillColor=#dae8fc;strokeColor=#6c8ebf;" vertex="1" parent="P5x_hELf_6X6-CJ0kqpy-102">
          <mxGeometry x="37" y="321" width="40" height="20" as="geometry" />
        </mxCell>
        <mxCell id="P5x_hELf_6X6-CJ0kqpy-87" value="" style="html=1;shadow=0;dashed=0;align=center;verticalAlign=middle;shape=mxgraph.arrows2.arrow;dy=0;dx=16.88;notch=0;rotation=113;opacity=60;fillColor=#f8cecc;strokeColor=#b85450;" vertex="1" parent="P5x_hELf_6X6-CJ0kqpy-102">
          <mxGeometry x="276" y="131" width="40" height="20" as="geometry" />
        </mxCell>
        <mxCell id="P5x_hELf_6X6-CJ0kqpy-88" value="" style="html=1;shadow=0;dashed=0;align=center;verticalAlign=middle;shape=mxgraph.arrows2.arrow;dy=0;dx=16.88;notch=0;rotation=118;opacity=60;fillColor=#f8cecc;strokeColor=#b85450;" vertex="1" parent="P5x_hELf_6X6-CJ0kqpy-102">
          <mxGeometry x="260" y="159" width="40" height="20" as="geometry" />
        </mxCell>
        <mxCell id="P5x_hELf_6X6-CJ0kqpy-89" value="" style="html=1;shadow=0;dashed=0;align=center;verticalAlign=middle;shape=mxgraph.arrows2.arrow;dy=0;dx=16.88;notch=0;rotation=120;opacity=60;fillColor=#f8cecc;strokeColor=#b85450;" vertex="1" parent="P5x_hELf_6X6-CJ0kqpy-102">
          <mxGeometry x="243" y="186" width="40" height="20" as="geometry" />
        </mxCell>
        <mxCell id="P5x_hELf_6X6-CJ0kqpy-90" value="" style="html=1;shadow=0;dashed=0;align=center;verticalAlign=middle;shape=mxgraph.arrows2.arrow;dy=0;dx=16.88;notch=0;rotation=120;opacity=60;fillColor=#f8cecc;strokeColor=#b85450;" vertex="1" parent="P5x_hELf_6X6-CJ0kqpy-102">
          <mxGeometry x="231" y="201" width="40" height="20" as="geometry" />
        </mxCell>
        <mxCell id="P5x_hELf_6X6-CJ0kqpy-91" value="" style="html=1;shadow=0;dashed=0;align=center;verticalAlign=middle;shape=mxgraph.arrows2.arrow;dy=0;dx=16.88;notch=0;rotation=120;opacity=60;fillColor=#f8cecc;strokeColor=#b85450;" vertex="1" parent="P5x_hELf_6X6-CJ0kqpy-102">
          <mxGeometry x="215" y="216" width="40" height="20" as="geometry" />
        </mxCell>
        <mxCell id="P5x_hELf_6X6-CJ0kqpy-93" value="" style="html=1;shadow=0;dashed=0;align=center;verticalAlign=middle;shape=mxgraph.arrows2.arrow;dy=0;dx=16.88;notch=0;rotation=120;fillColor=#ffe6cc;strokeColor=#d79b00;opacity=60;" vertex="1" parent="P5x_hELf_6X6-CJ0kqpy-102">
          <mxGeometry x="157" y="211" width="40" height="20" as="geometry" />
        </mxCell>
        <mxCell id="P5x_hELf_6X6-CJ0kqpy-94" value="" style="html=1;shadow=0;dashed=0;align=center;verticalAlign=middle;shape=mxgraph.arrows2.arrow;dy=0;dx=16.88;notch=0;rotation=-230;opacity=60;fillColor=#e1d5e7;strokeColor=#9673a6;" vertex="1" parent="P5x_hELf_6X6-CJ0kqpy-102">
          <mxGeometry x="293" y="255" width="40" height="20" as="geometry" />
        </mxCell>
        <mxCell id="P5x_hELf_6X6-CJ0kqpy-100" value="" style="html=1;shadow=0;dashed=0;align=center;verticalAlign=middle;shape=mxgraph.arrows2.arrow;dy=0;dx=16.88;notch=0;rotation=-225;opacity=60;fillColor=#f8cecc;strokeColor=#b85450;" vertex="1" parent="P5x_hELf_6X6-CJ0kqpy-102">
          <mxGeometry x="203" y="236" width="40" height="20" as="geometry" />
        </mxCell>
        <mxCell id="P5x_hELf_6X6-CJ0kqpy-104" value="" style="whiteSpace=wrap;html=1;aspect=fixed;" vertex="1" parent="1">
          <mxGeometry x="1020" y="585" width="406" height="406" as="geometry" />
        </mxCell>
        <mxCell id="P5x_hELf_6X6-CJ0kqpy-105" value="" style="html=1;shadow=0;dashed=0;align=center;verticalAlign=middle;shape=mxgraph.arrows2.arrow;dy=0;dx=16.88;notch=0;rotation=125;fillColor=#ffe6cc;strokeColor=#d79b00;opacity=60;" vertex="1" parent="1">
          <mxGeometry x="1298" y="605" width="40" height="20" as="geometry" />
        </mxCell>
        <mxCell id="P5x_hELf_6X6-CJ0kqpy-106" value="" style="html=1;shadow=0;dashed=0;align=center;verticalAlign=middle;shape=mxgraph.arrows2.arrow;dy=0;dx=16.88;notch=0;rotation=125;fillColor=#ffe6cc;strokeColor=#d79b00;opacity=60;" vertex="1" parent="1">
          <mxGeometry x="1266" y="651" width="40" height="20" as="geometry" />
        </mxCell>
        <mxCell id="P5x_hELf_6X6-CJ0kqpy-107" value="" style="html=1;shadow=0;dashed=0;align=center;verticalAlign=middle;shape=mxgraph.arrows2.arrow;dy=0;dx=16.88;notch=0;rotation=128;fillColor=#ffe6cc;strokeColor=#d79b00;opacity=60;" vertex="1" parent="1">
          <mxGeometry x="1235" y="691" width="40" height="20" as="geometry" />
        </mxCell>
        <mxCell id="P5x_hELf_6X6-CJ0kqpy-108" value="" style="html=1;shadow=0;dashed=0;align=center;verticalAlign=middle;shape=mxgraph.arrows2.arrow;dy=0;dx=16.88;notch=0;rotation=133;fillColor=#ffe6cc;strokeColor=#d79b00;opacity=60;" vertex="1" parent="1">
          <mxGeometry x="1208" y="726" width="40" height="20" as="geometry" />
        </mxCell>
        <mxCell id="P5x_hELf_6X6-CJ0kqpy-109" value="" style="html=1;shadow=0;dashed=0;align=center;verticalAlign=middle;shape=mxgraph.arrows2.arrow;dy=0;dx=16.88;notch=0;rotation=113;fillColor=#ffe6cc;strokeColor=#d79b00;opacity=60;" vertex="1" parent="1">
          <mxGeometry x="1188" y="761" width="40" height="20" as="geometry" />
        </mxCell>
        <mxCell id="P5x_hELf_6X6-CJ0kqpy-110" value="" style="html=1;shadow=0;dashed=0;align=center;verticalAlign=middle;shape=mxgraph.arrows2.arrow;dy=0;dx=31.09;notch=8.91;rotation=-90;fillColor=#4D4D4D;strokeColor=none;" vertex="1" parent="1">
          <mxGeometry x="1042" y="613" width="30" height="24" as="geometry" />
        </mxCell>
        <mxCell id="P5x_hELf_6X6-CJ0kqpy-111" value="N" style="rounded=1;whiteSpace=wrap;html=1;strokeColor=none;fillColor=none;" vertex="1" parent="1">
          <mxGeometry x="1047" y="591" width="20" height="20" as="geometry" />
        </mxCell>
        <mxCell id="P5x_hELf_6X6-CJ0kqpy-112" value="" style="html=1;shadow=0;dashed=0;align=center;verticalAlign=middle;shape=mxgraph.arrows2.arrow;dy=0;dx=16.88;notch=0;rotation=-210;opacity=60;fillColor=#e1d5e7;strokeColor=#9673a6;" vertex="1" parent="1">
          <mxGeometry x="1290" y="857" width="40" height="20" as="geometry" />
        </mxCell>
        <mxCell id="P5x_hELf_6X6-CJ0kqpy-113" value="" style="html=1;shadow=0;dashed=0;align=center;verticalAlign=middle;shape=mxgraph.arrows2.arrow;dy=0;dx=16.88;notch=0;rotation=136;opacity=60;fillColor=#e1d5e7;strokeColor=#9673a6;" vertex="1" parent="1">
          <mxGeometry x="1384" y="753" width="40" height="20" as="geometry" />
        </mxCell>
        <mxCell id="P5x_hELf_6X6-CJ0kqpy-114" value="" style="html=1;shadow=0;dashed=0;align=center;verticalAlign=middle;shape=mxgraph.arrows2.arrow;dy=0;dx=16.88;notch=0;rotation=120;opacity=60;fillColor=#e1d5e7;strokeColor=#9673a6;" vertex="1" parent="1">
          <mxGeometry x="1369" y="773" width="40" height="20" as="geometry" />
        </mxCell>
        <mxCell id="P5x_hELf_6X6-CJ0kqpy-115" value="" style="html=1;shadow=0;dashed=0;align=center;verticalAlign=middle;shape=mxgraph.arrows2.arrow;dy=0;dx=16.88;notch=0;rotation=120;opacity=60;fillColor=#e1d5e7;strokeColor=#9673a6;" vertex="1" parent="1">
          <mxGeometry x="1354" y="799" width="40" height="20" as="geometry" />
        </mxCell>
        <mxCell id="P5x_hELf_6X6-CJ0kqpy-116" value="" style="html=1;shadow=0;dashed=0;align=center;verticalAlign=middle;shape=mxgraph.arrows2.arrow;dy=0;dx=16.88;notch=0;rotation=-225;opacity=60;fillColor=#e1d5e7;strokeColor=#9673a6;" vertex="1" parent="1">
          <mxGeometry x="1335" y="817.5" width="40" height="20" as="geometry" />
        </mxCell>
        <mxCell id="P5x_hELf_6X6-CJ0kqpy-117" value="" style="html=1;shadow=0;dashed=0;align=center;verticalAlign=middle;shape=mxgraph.arrows2.arrow;dy=0;dx=16.88;notch=0;rotation=120;opacity=60;fillColor=#d5e8d4;strokeColor=#82b366;" vertex="1" parent="1">
          <mxGeometry x="1243" y="865" width="40" height="20" as="geometry" />
        </mxCell>
        <mxCell id="P5x_hELf_6X6-CJ0kqpy-118" value="" style="html=1;shadow=0;dashed=0;align=center;verticalAlign=middle;shape=mxgraph.arrows2.arrow;dy=0;dx=16.88;notch=0;rotation=139;opacity=60;fillColor=#d5e8d4;strokeColor=#82b366;" vertex="1" parent="1">
          <mxGeometry x="1200" y="913" width="40" height="20" as="geometry" />
        </mxCell>
        <mxCell id="P5x_hELf_6X6-CJ0kqpy-119" value="" style="html=1;shadow=0;dashed=0;align=center;verticalAlign=middle;shape=mxgraph.arrows2.arrow;dy=0;dx=16.88;notch=0;rotation=130;opacity=60;fillColor=#d5e8d4;strokeColor=#82b366;" vertex="1" parent="1">
          <mxGeometry x="1219" y="893" width="40" height="20" as="geometry" />
        </mxCell>
        <mxCell id="P5x_hELf_6X6-CJ0kqpy-120" value="" style="html=1;shadow=0;dashed=0;align=center;verticalAlign=middle;shape=mxgraph.arrows2.arrow;dy=0;dx=16.88;notch=0;rotation=145;opacity=60;fillColor=#d5e8d4;strokeColor=#82b366;" vertex="1" parent="1">
          <mxGeometry x="1179" y="932" width="40" height="20" as="geometry" />
        </mxCell>
        <mxCell id="P5x_hELf_6X6-CJ0kqpy-121" value="" style="html=1;shadow=0;dashed=0;align=center;verticalAlign=middle;shape=mxgraph.arrows2.arrow;dy=0;dx=16.88;notch=0;rotation=160;opacity=60;fillColor=#d5e8d4;strokeColor=#82b366;" vertex="1" parent="1">
          <mxGeometry x="1156" y="942" width="40" height="20" as="geometry" />
        </mxCell>
        <mxCell id="P5x_hELf_6X6-CJ0kqpy-122" value="" style="html=1;shadow=0;dashed=0;align=center;verticalAlign=middle;shape=mxgraph.arrows2.arrow;dy=0;dx=16.88;notch=0;rotation=135;opacity=60;fillColor=#dae8fc;strokeColor=#6c8ebf;" vertex="1" parent="1">
          <mxGeometry x="1156" y="878" width="40" height="20" as="geometry" />
        </mxCell>
        <mxCell id="P5x_hELf_6X6-CJ0kqpy-123" value="" style="html=1;shadow=0;dashed=0;align=center;verticalAlign=middle;shape=mxgraph.arrows2.arrow;dy=0;dx=16.88;notch=0;rotation=155;opacity=60;fillColor=#dae8fc;strokeColor=#6c8ebf;" vertex="1" parent="1">
          <mxGeometry x="1135" y="885" width="40" height="20" as="geometry" />
        </mxCell>
        <mxCell id="P5x_hELf_6X6-CJ0kqpy-124" value="" style="html=1;shadow=0;dashed=0;align=center;verticalAlign=middle;shape=mxgraph.arrows2.arrow;dy=0;dx=16.88;notch=0;rotation=161;opacity=60;fillColor=#dae8fc;strokeColor=#6c8ebf;" vertex="1" parent="1">
          <mxGeometry x="1118" y="893" width="40" height="20" as="geometry" />
        </mxCell>
        <mxCell id="P5x_hELf_6X6-CJ0kqpy-125" value="" style="html=1;shadow=0;dashed=0;align=center;verticalAlign=middle;shape=mxgraph.arrows2.arrow;dy=0;dx=16.88;notch=0;rotation=168;opacity=60;fillColor=#dae8fc;strokeColor=#6c8ebf;" vertex="1" parent="1">
          <mxGeometry x="1096" y="899" width="40" height="20" as="geometry" />
        </mxCell>
        <mxCell id="P5x_hELf_6X6-CJ0kqpy-126" value="" style="html=1;shadow=0;dashed=0;align=center;verticalAlign=middle;shape=mxgraph.arrows2.arrow;dy=0;dx=16.88;notch=0;rotation=169;opacity=60;fillColor=#d5e8d4;strokeColor=#82b366;" vertex="1" parent="1">
          <mxGeometry x="1134" y="949" width="40" height="20" as="geometry" />
        </mxCell>
        <mxCell id="P5x_hELf_6X6-CJ0kqpy-127" value="" style="html=1;shadow=0;dashed=0;align=center;verticalAlign=middle;shape=mxgraph.arrows2.arrow;dy=0;dx=16.88;notch=0;rotation=-180;opacity=60;fillColor=#dae8fc;strokeColor=#6c8ebf;" vertex="1" parent="1">
          <mxGeometry x="1077" y="902" width="40" height="20" as="geometry" />
        </mxCell>
        <mxCell id="P5x_hELf_6X6-CJ0kqpy-128" value="" style="html=1;shadow=0;dashed=0;align=center;verticalAlign=middle;shape=mxgraph.arrows2.arrow;dy=0;dx=16.88;notch=0;rotation=-180;opacity=60;fillColor=#dae8fc;strokeColor=#6c8ebf;" vertex="1" parent="1">
          <mxGeometry x="1057" y="906" width="40" height="20" as="geometry" />
        </mxCell>
        <mxCell id="P5x_hELf_6X6-CJ0kqpy-129" value="" style="html=1;shadow=0;dashed=0;align=center;verticalAlign=middle;shape=mxgraph.arrows2.arrow;dy=0;dx=16.88;notch=0;rotation=113;opacity=60;fillColor=#f8cecc;strokeColor=#b85450;" vertex="1" parent="1">
          <mxGeometry x="1296" y="716" width="40" height="20" as="geometry" />
        </mxCell>
        <mxCell id="P5x_hELf_6X6-CJ0kqpy-130" value="" style="html=1;shadow=0;dashed=0;align=center;verticalAlign=middle;shape=mxgraph.arrows2.arrow;dy=0;dx=16.88;notch=0;rotation=118;opacity=60;fillColor=#f8cecc;strokeColor=#b85450;" vertex="1" parent="1">
          <mxGeometry x="1280" y="744" width="40" height="20" as="geometry" />
        </mxCell>
        <mxCell id="P5x_hELf_6X6-CJ0kqpy-131" value="" style="html=1;shadow=0;dashed=0;align=center;verticalAlign=middle;shape=mxgraph.arrows2.arrow;dy=0;dx=16.88;notch=0;rotation=120;opacity=60;fillColor=#f8cecc;strokeColor=#b85450;" vertex="1" parent="1">
          <mxGeometry x="1263" y="771" width="40" height="20" as="geometry" />
        </mxCell>
        <mxCell id="P5x_hELf_6X6-CJ0kqpy-132" value="" style="html=1;shadow=0;dashed=0;align=center;verticalAlign=middle;shape=mxgraph.arrows2.arrow;dy=0;dx=16.88;notch=0;rotation=120;opacity=60;fillColor=#f8cecc;strokeColor=#b85450;" vertex="1" parent="1">
          <mxGeometry x="1251" y="786" width="40" height="20" as="geometry" />
        </mxCell>
        <mxCell id="P5x_hELf_6X6-CJ0kqpy-133" value="" style="html=1;shadow=0;dashed=0;align=center;verticalAlign=middle;shape=mxgraph.arrows2.arrow;dy=0;dx=16.88;notch=0;rotation=120;opacity=60;fillColor=#f8cecc;strokeColor=#b85450;" vertex="1" parent="1">
          <mxGeometry x="1235" y="801" width="40" height="20" as="geometry" />
        </mxCell>
        <mxCell id="P5x_hELf_6X6-CJ0kqpy-134" value="" style="html=1;shadow=0;dashed=0;align=center;verticalAlign=middle;shape=mxgraph.arrows2.arrow;dy=0;dx=16.88;notch=0;rotation=120;fillColor=#ffe6cc;strokeColor=#d79b00;opacity=60;" vertex="1" parent="1">
          <mxGeometry x="1178.4" y="798.42" width="37" height="18.5" as="geometry" />
        </mxCell>
        <mxCell id="P5x_hELf_6X6-CJ0kqpy-135" value="" style="html=1;shadow=0;dashed=0;align=center;verticalAlign=middle;shape=mxgraph.arrows2.arrow;dy=0;dx=16.88;notch=0;rotation=-230;opacity=60;fillColor=#e1d5e7;strokeColor=#9673a6;" vertex="1" parent="1">
          <mxGeometry x="1313" y="840" width="40" height="20" as="geometry" />
        </mxCell>
        <mxCell id="P5x_hELf_6X6-CJ0kqpy-136" value="" style="html=1;shadow=0;dashed=0;align=center;verticalAlign=middle;shape=mxgraph.arrows2.arrow;dy=0;dx=16.88;notch=0;rotation=-225;opacity=60;fillColor=#f8cecc;strokeColor=#b85450;" vertex="1" parent="1">
          <mxGeometry x="1223" y="821" width="40" height="20" as="geometry" />
        </mxCell>
        <mxCell id="P5x_hELf_6X6-CJ0kqpy-137" value="" style="ellipse;whiteSpace=wrap;html=1;aspect=fixed;" vertex="1" parent="1">
          <mxGeometry x="1313" y="603" width="15" height="15" as="geometry" />
        </mxCell>
        <mxCell id="P5x_hELf_6X6-CJ0kqpy-138" value="" style="ellipse;whiteSpace=wrap;html=1;aspect=fixed;" vertex="1" parent="1">
          <mxGeometry x="1279.5" y="652" width="15" height="15" as="geometry" />
        </mxCell>
        <mxCell id="P5x_hELf_6X6-CJ0kqpy-139" value="" style="ellipse;whiteSpace=wrap;html=1;aspect=fixed;" vertex="1" parent="1">
          <mxGeometry x="1249.5" y="692" width="15" height="15" as="geometry" />
        </mxCell>
        <mxCell id="P5x_hELf_6X6-CJ0kqpy-140" value="" style="ellipse;whiteSpace=wrap;html=1;aspect=fixed;" vertex="1" parent="1">
          <mxGeometry x="1223.5" y="726" width="15" height="15" as="geometry" />
        </mxCell>
        <mxCell id="P5x_hELf_6X6-CJ0kqpy-141" value="" style="ellipse;whiteSpace=wrap;html=1;aspect=fixed;" vertex="1" parent="1">
          <mxGeometry x="1201.5" y="761" width="15" height="15" as="geometry" />
        </mxCell>
        <mxCell id="P5x_hELf_6X6-CJ0kqpy-142" value="" style="ellipse;whiteSpace=wrap;html=1;aspect=fixed;" vertex="1" parent="1">
          <mxGeometry x="1191" y="797.5" width="15" height="15" as="geometry" />
        </mxCell>
        <mxCell id="P5x_hELf_6X6-CJ0kqpy-143" value="" style="ellipse;whiteSpace=wrap;html=1;aspect=fixed;" vertex="1" parent="1">
          <mxGeometry x="1293.5" y="744" width="15" height="15" as="geometry" />
        </mxCell>
        <mxCell id="P5x_hELf_6X6-CJ0kqpy-144" value="" style="ellipse;whiteSpace=wrap;html=1;aspect=fixed;" vertex="1" parent="1">
          <mxGeometry x="1277.5" y="771" width="15" height="15" as="geometry" />
        </mxCell>
        <mxCell id="P5x_hELf_6X6-CJ0kqpy-145" value="" style="ellipse;whiteSpace=wrap;html=1;aspect=fixed;" vertex="1" parent="1">
          <mxGeometry x="1309.5" y="715" width="15" height="15" as="geometry" />
        </mxCell>
        <mxCell id="P5x_hELf_6X6-CJ0kqpy-146" value="" style="ellipse;whiteSpace=wrap;html=1;aspect=fixed;" vertex="1" parent="1">
          <mxGeometry x="1264.5" y="786" width="15" height="15" as="geometry" />
        </mxCell>
        <mxCell id="P5x_hELf_6X6-CJ0kqpy-147" value="" style="ellipse;whiteSpace=wrap;html=1;aspect=fixed;" vertex="1" parent="1">
          <mxGeometry x="1248.5" y="801" width="15" height="15" as="geometry" />
        </mxCell>
        <mxCell id="P5x_hELf_6X6-CJ0kqpy-148" value="" style="ellipse;whiteSpace=wrap;html=1;aspect=fixed;" vertex="1" parent="1">
          <mxGeometry x="1236.5" y="822" width="15" height="15" as="geometry" />
        </mxCell>
        <mxCell id="P5x_hELf_6X6-CJ0kqpy-149" value="" style="ellipse;whiteSpace=wrap;html=1;aspect=fixed;" vertex="1" parent="1">
          <mxGeometry x="1382.5" y="773" width="15" height="15" as="geometry" />
        </mxCell>
        <mxCell id="P5x_hELf_6X6-CJ0kqpy-150" value="" style="ellipse;whiteSpace=wrap;html=1;aspect=fixed;" vertex="1" parent="1">
          <mxGeometry x="1368.5" y="799" width="15" height="15" as="geometry" />
        </mxCell>
        <mxCell id="P5x_hELf_6X6-CJ0kqpy-151" value="" style="ellipse;whiteSpace=wrap;html=1;aspect=fixed;" vertex="1" parent="1">
          <mxGeometry x="1398.5" y="753" width="15" height="15" as="geometry" />
        </mxCell>
        <mxCell id="P5x_hELf_6X6-CJ0kqpy-152" value="" style="ellipse;whiteSpace=wrap;html=1;aspect=fixed;" vertex="1" parent="1">
          <mxGeometry x="1349.5" y="818" width="15" height="15" as="geometry" />
        </mxCell>
        <mxCell id="P5x_hELf_6X6-CJ0kqpy-153" value="" style="ellipse;whiteSpace=wrap;html=1;aspect=fixed;" vertex="1" parent="1">
          <mxGeometry x="1327.5" y="841" width="15" height="15" as="geometry" />
        </mxCell>
        <mxCell id="P5x_hELf_6X6-CJ0kqpy-154" value="" style="ellipse;whiteSpace=wrap;html=1;aspect=fixed;" vertex="1" parent="1">
          <mxGeometry x="1305.5" y="858" width="15" height="15" as="geometry" />
        </mxCell>
        <mxCell id="P5x_hELf_6X6-CJ0kqpy-155" value="" style="ellipse;whiteSpace=wrap;html=1;aspect=fixed;" vertex="1" parent="1">
          <mxGeometry x="1233.5" y="894" width="15" height="15" as="geometry" />
        </mxCell>
        <mxCell id="P5x_hELf_6X6-CJ0kqpy-156" value="" style="ellipse;whiteSpace=wrap;html=1;aspect=fixed;" vertex="1" parent="1">
          <mxGeometry x="1215.5" y="912" width="15" height="15" as="geometry" />
        </mxCell>
        <mxCell id="P5x_hELf_6X6-CJ0kqpy-157" value="" style="ellipse;whiteSpace=wrap;html=1;aspect=fixed;" vertex="1" parent="1">
          <mxGeometry x="1257.5" y="864" width="15" height="15" as="geometry" />
        </mxCell>
        <mxCell id="P5x_hELf_6X6-CJ0kqpy-158" value="" style="ellipse;whiteSpace=wrap;html=1;aspect=fixed;" vertex="1" parent="1">
          <mxGeometry x="1194.5" y="932" width="15" height="15" as="geometry" />
        </mxCell>
        <mxCell id="P5x_hELf_6X6-CJ0kqpy-159" value="" style="ellipse;whiteSpace=wrap;html=1;aspect=fixed;" vertex="1" parent="1">
          <mxGeometry x="1174.5" y="942" width="15" height="15" as="geometry" />
        </mxCell>
        <mxCell id="P5x_hELf_6X6-CJ0kqpy-160" value="" style="ellipse;whiteSpace=wrap;html=1;aspect=fixed;" vertex="1" parent="1">
          <mxGeometry x="1150.5" y="951" width="15" height="15" as="geometry" />
        </mxCell>
        <mxCell id="P5x_hELf_6X6-CJ0kqpy-161" value="" style="ellipse;whiteSpace=wrap;html=1;aspect=fixed;" vertex="1" parent="1">
          <mxGeometry x="1151.5" y="886" width="15" height="15" as="geometry" />
        </mxCell>
        <mxCell id="P5x_hELf_6X6-CJ0kqpy-162" value="" style="ellipse;whiteSpace=wrap;html=1;aspect=fixed;" vertex="1" parent="1">
          <mxGeometry x="1132.5" y="895" width="15" height="15" as="geometry" />
        </mxCell>
        <mxCell id="P5x_hELf_6X6-CJ0kqpy-163" value="" style="ellipse;whiteSpace=wrap;html=1;aspect=fixed;" vertex="1" parent="1">
          <mxGeometry x="1175.5" y="875" width="15" height="15" as="geometry" />
        </mxCell>
        <mxCell id="P5x_hELf_6X6-CJ0kqpy-164" value="" style="ellipse;whiteSpace=wrap;html=1;aspect=fixed;" vertex="1" parent="1">
          <mxGeometry x="1112.5" y="901" width="15" height="15" as="geometry" />
        </mxCell>
        <mxCell id="P5x_hELf_6X6-CJ0kqpy-165" value="" style="ellipse;whiteSpace=wrap;html=1;aspect=fixed;" vertex="1" parent="1">
          <mxGeometry x="1092.5" y="905" width="15" height="15" as="geometry" />
        </mxCell>
        <mxCell id="P5x_hELf_6X6-CJ0kqpy-166" value="" style="ellipse;whiteSpace=wrap;html=1;aspect=fixed;" vertex="1" parent="1">
          <mxGeometry x="1071.5" y="908" width="15" height="15" as="geometry" />
        </mxCell>
        <mxCell id="P5x_hELf_6X6-CJ0kqpy-173" value="" style="html=1;shadow=0;dashed=0;align=center;verticalAlign=middle;shape=mxgraph.arrows2.arrow;dy=0;dx=31.09;notch=8.91;rotation=-90;fillColor=#4D4D4D;strokeColor=none;" vertex="1" parent="1">
          <mxGeometry x="1530" y="188" width="30" height="24" as="geometry" />
        </mxCell>
        <mxCell id="P5x_hELf_6X6-CJ0kqpy-174" value="N" style="rounded=1;whiteSpace=wrap;html=1;strokeColor=none;fillColor=none;" vertex="1" parent="1">
          <mxGeometry x="1535" y="166" width="20" height="20" as="geometry" />
        </mxCell>
        <mxCell id="P5x_hELf_6X6-CJ0kqpy-231" style="edgeStyle=none;rounded=1;orthogonalLoop=1;jettySize=auto;html=1;fillColor=#ffe6cc;strokeColor=#d79b00;curved=0;endArrow=none;startFill=0;" edge="1" parent="1" source="P5x_hELf_6X6-CJ0kqpy-200" target="P5x_hELf_6X6-CJ0kqpy-201">
          <mxGeometry relative="1" as="geometry" />
        </mxCell>
        <mxCell id="P5x_hELf_6X6-CJ0kqpy-200" value="" style="ellipse;whiteSpace=wrap;html=1;aspect=fixed;fillColor=#ffe6cc;strokeColor=#d79b00;" vertex="1" parent="1">
          <mxGeometry x="1801" y="178" width="15" height="15" as="geometry" />
        </mxCell>
        <mxCell id="P5x_hELf_6X6-CJ0kqpy-201" value="" style="ellipse;whiteSpace=wrap;html=1;aspect=fixed;fillColor=#ffe6cc;strokeColor=#d79b00;" vertex="1" parent="1">
          <mxGeometry x="1767.5" y="227" width="15" height="15" as="geometry" />
        </mxCell>
        <mxCell id="P5x_hELf_6X6-CJ0kqpy-202" value="" style="ellipse;whiteSpace=wrap;html=1;aspect=fixed;fillColor=#ffe6cc;strokeColor=#d79b00;" vertex="1" parent="1">
          <mxGeometry x="1737.5" y="267" width="15" height="15" as="geometry" />
        </mxCell>
        <mxCell id="P5x_hELf_6X6-CJ0kqpy-203" value="" style="ellipse;whiteSpace=wrap;html=1;aspect=fixed;fillColor=#ffe6cc;strokeColor=#d79b00;" vertex="1" parent="1">
          <mxGeometry x="1711.5" y="301" width="15" height="15" as="geometry" />
        </mxCell>
        <mxCell id="P5x_hELf_6X6-CJ0kqpy-204" value="" style="ellipse;whiteSpace=wrap;html=1;aspect=fixed;fillColor=#ffe6cc;strokeColor=#d79b00;" vertex="1" parent="1">
          <mxGeometry x="1689.5" y="336" width="15" height="15" as="geometry" />
        </mxCell>
        <mxCell id="P5x_hELf_6X6-CJ0kqpy-205" value="" style="ellipse;whiteSpace=wrap;html=1;aspect=fixed;fillColor=#ffe6cc;strokeColor=#d79b00;" vertex="1" parent="1">
          <mxGeometry x="1679" y="372.5" width="15" height="15" as="geometry" />
        </mxCell>
        <mxCell id="P5x_hELf_6X6-CJ0kqpy-206" value="" style="ellipse;whiteSpace=wrap;html=1;aspect=fixed;fillColor=#f8cecc;strokeColor=#b85450;" vertex="1" parent="1">
          <mxGeometry x="1781.5" y="319" width="15" height="15" as="geometry" />
        </mxCell>
        <mxCell id="P5x_hELf_6X6-CJ0kqpy-207" value="" style="ellipse;whiteSpace=wrap;html=1;aspect=fixed;fillColor=#f8cecc;strokeColor=#b85450;" vertex="1" parent="1">
          <mxGeometry x="1765.5" y="346" width="15" height="15" as="geometry" />
        </mxCell>
        <mxCell id="P5x_hELf_6X6-CJ0kqpy-208" value="" style="ellipse;whiteSpace=wrap;html=1;aspect=fixed;fillColor=#f8cecc;strokeColor=#b85450;" vertex="1" parent="1">
          <mxGeometry x="1797.5" y="290" width="15" height="15" as="geometry" />
        </mxCell>
        <mxCell id="P5x_hELf_6X6-CJ0kqpy-210" value="" style="ellipse;whiteSpace=wrap;html=1;aspect=fixed;fillColor=#f8cecc;strokeColor=#b85450;" vertex="1" parent="1">
          <mxGeometry x="1736.5" y="376" width="15" height="15" as="geometry" />
        </mxCell>
        <mxCell id="P5x_hELf_6X6-CJ0kqpy-209" value="" style="ellipse;whiteSpace=wrap;html=1;aspect=fixed;fillColor=#f8cecc;strokeColor=#b85450;" vertex="1" parent="1">
          <mxGeometry x="1752.5" y="361" width="15" height="15" as="geometry" />
        </mxCell>
        <mxCell id="P5x_hELf_6X6-CJ0kqpy-211" value="" style="ellipse;whiteSpace=wrap;html=1;aspect=fixed;fillColor=#f8cecc;strokeColor=#b85450;" vertex="1" parent="1">
          <mxGeometry x="1724.5" y="397" width="15" height="15" as="geometry" />
        </mxCell>
        <mxCell id="P5x_hELf_6X6-CJ0kqpy-212" value="" style="ellipse;whiteSpace=wrap;html=1;aspect=fixed;fillColor=#e1d5e7;strokeColor=#9673a6;" vertex="1" parent="1">
          <mxGeometry x="1870.5" y="348" width="15" height="15" as="geometry" />
        </mxCell>
        <mxCell id="P5x_hELf_6X6-CJ0kqpy-213" value="" style="ellipse;whiteSpace=wrap;html=1;aspect=fixed;fillColor=#e1d5e7;strokeColor=#9673a6;" vertex="1" parent="1">
          <mxGeometry x="1856.5" y="374" width="15" height="15" as="geometry" />
        </mxCell>
        <mxCell id="P5x_hELf_6X6-CJ0kqpy-214" value="" style="ellipse;whiteSpace=wrap;html=1;aspect=fixed;fillColor=#e1d5e7;strokeColor=#9673a6;" vertex="1" parent="1">
          <mxGeometry x="1886.5" y="328" width="15" height="15" as="geometry" />
        </mxCell>
        <mxCell id="P5x_hELf_6X6-CJ0kqpy-215" value="" style="ellipse;whiteSpace=wrap;html=1;aspect=fixed;fillColor=#e1d5e7;strokeColor=#9673a6;" vertex="1" parent="1">
          <mxGeometry x="1837.5" y="393" width="15" height="15" as="geometry" />
        </mxCell>
        <mxCell id="P5x_hELf_6X6-CJ0kqpy-216" value="" style="ellipse;whiteSpace=wrap;html=1;aspect=fixed;fillColor=#e1d5e7;strokeColor=#9673a6;" vertex="1" parent="1">
          <mxGeometry x="1815.5" y="416" width="15" height="15" as="geometry" />
        </mxCell>
        <mxCell id="P5x_hELf_6X6-CJ0kqpy-217" value="" style="ellipse;whiteSpace=wrap;html=1;aspect=fixed;fillColor=#e1d5e7;strokeColor=#9673a6;" vertex="1" parent="1">
          <mxGeometry x="1793.5" y="433" width="15" height="15" as="geometry" />
        </mxCell>
        <mxCell id="P5x_hELf_6X6-CJ0kqpy-218" value="" style="ellipse;whiteSpace=wrap;html=1;aspect=fixed;fillColor=#d5e8d4;strokeColor=#82b366;" vertex="1" parent="1">
          <mxGeometry x="1721.5" y="469" width="15" height="15" as="geometry" />
        </mxCell>
        <mxCell id="P5x_hELf_6X6-CJ0kqpy-219" value="" style="ellipse;whiteSpace=wrap;html=1;aspect=fixed;fillColor=#d5e8d4;strokeColor=#82b366;" vertex="1" parent="1">
          <mxGeometry x="1703.5" y="487" width="15" height="15" as="geometry" />
        </mxCell>
        <mxCell id="P5x_hELf_6X6-CJ0kqpy-220" value="" style="ellipse;whiteSpace=wrap;html=1;aspect=fixed;fillColor=#d5e8d4;strokeColor=#82b366;" vertex="1" parent="1">
          <mxGeometry x="1745.5" y="439" width="15" height="15" as="geometry" />
        </mxCell>
        <mxCell id="P5x_hELf_6X6-CJ0kqpy-221" value="" style="ellipse;whiteSpace=wrap;html=1;aspect=fixed;fillColor=#d5e8d4;strokeColor=#82b366;" vertex="1" parent="1">
          <mxGeometry x="1682.5" y="507" width="15" height="15" as="geometry" />
        </mxCell>
        <mxCell id="P5x_hELf_6X6-CJ0kqpy-222" value="" style="ellipse;whiteSpace=wrap;html=1;aspect=fixed;fillColor=#d5e8d4;strokeColor=#82b366;" vertex="1" parent="1">
          <mxGeometry x="1662.5" y="517" width="15" height="15" as="geometry" />
        </mxCell>
        <mxCell id="P5x_hELf_6X6-CJ0kqpy-223" value="" style="ellipse;whiteSpace=wrap;html=1;aspect=fixed;fillColor=#d5e8d4;strokeColor=#82b366;" vertex="1" parent="1">
          <mxGeometry x="1638.5" y="526" width="15" height="15" as="geometry" />
        </mxCell>
        <mxCell id="P5x_hELf_6X6-CJ0kqpy-224" value="" style="ellipse;whiteSpace=wrap;html=1;aspect=fixed;fillColor=#dae8fc;strokeColor=#6c8ebf;" vertex="1" parent="1">
          <mxGeometry x="1639.5" y="461" width="15" height="15" as="geometry" />
        </mxCell>
        <mxCell id="P5x_hELf_6X6-CJ0kqpy-225" value="" style="ellipse;whiteSpace=wrap;html=1;aspect=fixed;fillColor=#dae8fc;strokeColor=#6c8ebf;" vertex="1" parent="1">
          <mxGeometry x="1620.5" y="470" width="15" height="15" as="geometry" />
        </mxCell>
        <mxCell id="P5x_hELf_6X6-CJ0kqpy-226" value="" style="ellipse;whiteSpace=wrap;html=1;aspect=fixed;fillColor=#dae8fc;strokeColor=#6c8ebf;" vertex="1" parent="1">
          <mxGeometry x="1663.5" y="450" width="15" height="15" as="geometry" />
        </mxCell>
        <mxCell id="P5x_hELf_6X6-CJ0kqpy-227" value="" style="ellipse;whiteSpace=wrap;html=1;aspect=fixed;fillColor=#dae8fc;strokeColor=#6c8ebf;" vertex="1" parent="1">
          <mxGeometry x="1600.5" y="476" width="15" height="15" as="geometry" />
        </mxCell>
        <mxCell id="P5x_hELf_6X6-CJ0kqpy-228" value="" style="ellipse;whiteSpace=wrap;html=1;aspect=fixed;fillColor=#dae8fc;strokeColor=#6c8ebf;" vertex="1" parent="1">
          <mxGeometry x="1580.5" y="480" width="15" height="15" as="geometry" />
        </mxCell>
        <mxCell id="P5x_hELf_6X6-CJ0kqpy-229" value="" style="ellipse;whiteSpace=wrap;html=1;aspect=fixed;fillColor=#dae8fc;strokeColor=#6c8ebf;" vertex="1" parent="1">
          <mxGeometry x="1559.5" y="483" width="15" height="15" as="geometry" />
        </mxCell>
        <mxCell id="P5x_hELf_6X6-CJ0kqpy-232" style="edgeStyle=none;rounded=1;orthogonalLoop=1;jettySize=auto;html=1;exitX=0;exitY=1;exitDx=0;exitDy=0;fillColor=#ffe6cc;strokeColor=#d79b00;curved=0;endArrow=none;startFill=0;entryX=1;entryY=0;entryDx=0;entryDy=0;" edge="1" parent="1" target="P5x_hELf_6X6-CJ0kqpy-202">
          <mxGeometry relative="1" as="geometry">
            <mxPoint x="1770.696699141101" y="239.80330085889892" as="sourcePoint" />
            <mxPoint x="1751.303300858899" y="269.19669914110096" as="targetPoint" />
          </mxGeometry>
        </mxCell>
        <mxCell id="P5x_hELf_6X6-CJ0kqpy-233" style="edgeStyle=none;rounded=1;orthogonalLoop=1;jettySize=auto;html=1;fillColor=#ffe6cc;strokeColor=#d79b00;curved=0;endArrow=none;startFill=0;" edge="1" parent="1" source="P5x_hELf_6X6-CJ0kqpy-202" target="P5x_hELf_6X6-CJ0kqpy-203">
          <mxGeometry relative="1" as="geometry">
            <mxPoint x="1780.696699141101" y="250.80330085889892" as="sourcePoint" />
            <mxPoint x="1759.4950000000003" y="279.05" as="targetPoint" />
          </mxGeometry>
        </mxCell>
        <mxCell id="P5x_hELf_6X6-CJ0kqpy-234" style="edgeStyle=none;rounded=1;orthogonalLoop=1;jettySize=auto;html=1;fillColor=#ffe6cc;strokeColor=#d79b00;curved=0;endArrow=none;startFill=0;" edge="1" parent="1" source="P5x_hELf_6X6-CJ0kqpy-203" target="P5x_hELf_6X6-CJ0kqpy-204">
          <mxGeometry relative="1" as="geometry">
            <mxPoint x="1750" y="290" as="sourcePoint" />
            <mxPoint x="1734" y="313" as="targetPoint" />
          </mxGeometry>
        </mxCell>
        <mxCell id="P5x_hELf_6X6-CJ0kqpy-235" style="edgeStyle=none;rounded=1;orthogonalLoop=1;jettySize=auto;html=1;fillColor=#ffe6cc;strokeColor=#d79b00;curved=0;endArrow=none;startFill=0;" edge="1" parent="1" source="P5x_hELf_6X6-CJ0kqpy-204" target="P5x_hELf_6X6-CJ0kqpy-205">
          <mxGeometry relative="1" as="geometry">
            <mxPoint x="1725" y="325" as="sourcePoint" />
            <mxPoint x="1711" y="347" as="targetPoint" />
          </mxGeometry>
        </mxCell>
        <mxCell id="P5x_hELf_6X6-CJ0kqpy-236" style="edgeStyle=none;rounded=1;orthogonalLoop=1;jettySize=auto;html=1;fillColor=#f8cecc;strokeColor=#b85450;curved=0;endArrow=none;startFill=0;" edge="1" parent="1" source="P5x_hELf_6X6-CJ0kqpy-208" target="P5x_hELf_6X6-CJ0kqpy-206">
          <mxGeometry relative="1" as="geometry">
            <mxPoint x="1780.696699141101" y="249.80330085889892" as="sourcePoint" />
            <mxPoint x="1760" y="279" as="targetPoint" />
          </mxGeometry>
        </mxCell>
        <mxCell id="P5x_hELf_6X6-CJ0kqpy-237" style="edgeStyle=none;rounded=1;orthogonalLoop=1;jettySize=auto;html=1;fillColor=#f8cecc;strokeColor=#b85450;curved=0;endArrow=none;startFill=0;" edge="1" parent="1" source="P5x_hELf_6X6-CJ0kqpy-206" target="P5x_hELf_6X6-CJ0kqpy-207">
          <mxGeometry relative="1" as="geometry">
            <mxPoint x="1811" y="314" as="sourcePoint" />
            <mxPoint x="1803" y="330" as="targetPoint" />
          </mxGeometry>
        </mxCell>
        <mxCell id="P5x_hELf_6X6-CJ0kqpy-238" style="edgeStyle=none;rounded=1;orthogonalLoop=1;jettySize=auto;html=1;fillColor=#f8cecc;strokeColor=#b85450;curved=0;endArrow=none;startFill=0;" edge="1" parent="1" source="P5x_hELf_6X6-CJ0kqpy-207" target="P5x_hELf_6X6-CJ0kqpy-209">
          <mxGeometry relative="1" as="geometry">
            <mxPoint x="1795" y="343" as="sourcePoint" />
            <mxPoint x="1787" y="357" as="targetPoint" />
          </mxGeometry>
        </mxCell>
        <mxCell id="P5x_hELf_6X6-CJ0kqpy-240" style="edgeStyle=none;rounded=1;orthogonalLoop=1;jettySize=auto;html=1;fillColor=#f8cecc;strokeColor=#b85450;curved=0;endArrow=none;startFill=0;" edge="1" parent="1" source="P5x_hELf_6X6-CJ0kqpy-210" target="P5x_hELf_6X6-CJ0kqpy-211">
          <mxGeometry relative="1" as="geometry">
            <mxPoint x="1770" y="379" as="sourcePoint" />
            <mxPoint x="1760" y="388" as="targetPoint" />
          </mxGeometry>
        </mxCell>
        <mxCell id="P5x_hELf_6X6-CJ0kqpy-241" style="edgeStyle=none;rounded=1;orthogonalLoop=1;jettySize=auto;html=1;fillColor=#e1d5e7;strokeColor=#9673a6;curved=0;endArrow=none;startFill=0;" edge="1" parent="1" source="P5x_hELf_6X6-CJ0kqpy-216" target="P5x_hELf_6X6-CJ0kqpy-217">
          <mxGeometry relative="1" as="geometry">
            <mxPoint x="1815.5" y="426" as="sourcePoint" />
            <mxPoint x="1811.5" y="434" as="targetPoint" />
          </mxGeometry>
        </mxCell>
        <mxCell id="P5x_hELf_6X6-CJ0kqpy-242" style="edgeStyle=none;rounded=1;orthogonalLoop=1;jettySize=auto;html=1;fillColor=#e1d5e7;strokeColor=#9673a6;curved=0;endArrow=none;startFill=0;" edge="1" parent="1" source="P5x_hELf_6X6-CJ0kqpy-215" target="P5x_hELf_6X6-CJ0kqpy-216">
          <mxGeometry relative="1" as="geometry">
            <mxPoint x="1827" y="438" as="sourcePoint" />
            <mxPoint x="1817" y="446" as="targetPoint" />
          </mxGeometry>
        </mxCell>
        <mxCell id="P5x_hELf_6X6-CJ0kqpy-243" style="edgeStyle=none;rounded=1;orthogonalLoop=1;jettySize=auto;html=1;fillColor=#e1d5e7;strokeColor=#9673a6;curved=0;endArrow=none;startFill=0;" edge="1" parent="1" source="P5x_hELf_6X6-CJ0kqpy-215" target="P5x_hELf_6X6-CJ0kqpy-213">
          <mxGeometry relative="1" as="geometry">
            <mxPoint x="1850" y="416" as="sourcePoint" />
            <mxPoint x="1838" y="428" as="targetPoint" />
          </mxGeometry>
        </mxCell>
        <mxCell id="P5x_hELf_6X6-CJ0kqpy-244" style="edgeStyle=none;rounded=1;orthogonalLoop=1;jettySize=auto;html=1;fillColor=#e1d5e7;strokeColor=#9673a6;curved=0;endArrow=none;startFill=0;" edge="1" parent="1" source="P5x_hELf_6X6-CJ0kqpy-212" target="P5x_hELf_6X6-CJ0kqpy-213">
          <mxGeometry relative="1" as="geometry">
            <mxPoint x="1860" y="405" as="sourcePoint" />
            <mxPoint x="1869" y="397" as="targetPoint" />
          </mxGeometry>
        </mxCell>
        <mxCell id="P5x_hELf_6X6-CJ0kqpy-245" style="edgeStyle=none;rounded=1;orthogonalLoop=1;jettySize=auto;html=1;fillColor=#e1d5e7;strokeColor=#9673a6;curved=0;endArrow=none;startFill=0;" edge="1" parent="1" source="P5x_hELf_6X6-CJ0kqpy-212" target="P5x_hELf_6X6-CJ0kqpy-214">
          <mxGeometry relative="1" as="geometry">
            <mxPoint x="1884" y="372" as="sourcePoint" />
            <mxPoint x="1878" y="385" as="targetPoint" />
          </mxGeometry>
        </mxCell>
        <mxCell id="P5x_hELf_6X6-CJ0kqpy-246" style="edgeStyle=none;rounded=1;orthogonalLoop=1;jettySize=auto;html=1;fillColor=#d5e8d4;strokeColor=#82b366;curved=0;endArrow=none;startFill=0;" edge="1" parent="1" source="P5x_hELf_6X6-CJ0kqpy-220" target="P5x_hELf_6X6-CJ0kqpy-218">
          <mxGeometry relative="1" as="geometry">
            <mxPoint x="1750" y="460" as="sourcePoint" />
            <mxPoint x="1746" y="468" as="targetPoint" />
          </mxGeometry>
        </mxCell>
        <mxCell id="P5x_hELf_6X6-CJ0kqpy-247" style="edgeStyle=none;rounded=1;orthogonalLoop=1;jettySize=auto;html=1;fillColor=#d5e8d4;strokeColor=#82b366;curved=0;endArrow=none;startFill=0;" edge="1" parent="1" source="P5x_hELf_6X6-CJ0kqpy-218" target="P5x_hELf_6X6-CJ0kqpy-219">
          <mxGeometry relative="1" as="geometry">
            <mxPoint x="1758" y="462" as="sourcePoint" />
            <mxPoint x="1744" y="481" as="targetPoint" />
          </mxGeometry>
        </mxCell>
        <mxCell id="P5x_hELf_6X6-CJ0kqpy-248" style="edgeStyle=none;rounded=1;orthogonalLoop=1;jettySize=auto;html=1;fillColor=#d5e8d4;strokeColor=#82b366;curved=0;endArrow=none;startFill=0;" edge="1" parent="1" source="P5x_hELf_6X6-CJ0kqpy-219" target="P5x_hELf_6X6-CJ0kqpy-221">
          <mxGeometry relative="1" as="geometry">
            <mxPoint x="1734" y="492" as="sourcePoint" />
            <mxPoint x="1726" y="499" as="targetPoint" />
          </mxGeometry>
        </mxCell>
        <mxCell id="P5x_hELf_6X6-CJ0kqpy-249" style="edgeStyle=none;rounded=1;orthogonalLoop=1;jettySize=auto;html=1;fillColor=#d5e8d4;strokeColor=#82b366;curved=0;endArrow=none;startFill=0;" edge="1" parent="1" source="P5x_hELf_6X6-CJ0kqpy-221" target="P5x_hELf_6X6-CJ0kqpy-222">
          <mxGeometry relative="1" as="geometry">
            <mxPoint x="1716" y="510" as="sourcePoint" />
            <mxPoint x="1705" y="519" as="targetPoint" />
          </mxGeometry>
        </mxCell>
        <mxCell id="P5x_hELf_6X6-CJ0kqpy-250" style="edgeStyle=none;rounded=1;orthogonalLoop=1;jettySize=auto;html=1;fillColor=#d5e8d4;strokeColor=#82b366;curved=0;endArrow=none;startFill=0;" edge="1" parent="1" source="P5x_hELf_6X6-CJ0kqpy-222" target="P5x_hELf_6X6-CJ0kqpy-223">
          <mxGeometry relative="1" as="geometry">
            <mxPoint x="1693" y="528" as="sourcePoint" />
            <mxPoint x="1687" y="531" as="targetPoint" />
          </mxGeometry>
        </mxCell>
        <mxCell id="P5x_hELf_6X6-CJ0kqpy-251" style="edgeStyle=none;rounded=1;orthogonalLoop=1;jettySize=auto;html=1;fillColor=#dae8fc;strokeColor=#6c8ebf;curved=0;endArrow=none;startFill=0;" edge="1" parent="1" source="P5x_hELf_6X6-CJ0kqpy-224" target="P5x_hELf_6X6-CJ0kqpy-226">
          <mxGeometry relative="1" as="geometry">
            <mxPoint x="1758" y="462" as="sourcePoint" />
            <mxPoint x="1744" y="481" as="targetPoint" />
          </mxGeometry>
        </mxCell>
        <mxCell id="P5x_hELf_6X6-CJ0kqpy-252" style="edgeStyle=none;rounded=1;orthogonalLoop=1;jettySize=auto;html=1;fillColor=#dae8fc;strokeColor=#6c8ebf;curved=0;endArrow=none;startFill=0;" edge="1" parent="1" source="P5x_hELf_6X6-CJ0kqpy-225" target="P5x_hELf_6X6-CJ0kqpy-224">
          <mxGeometry relative="1" as="geometry">
            <mxPoint x="1664" y="475" as="sourcePoint" />
            <mxPoint x="1674" y="471" as="targetPoint" />
          </mxGeometry>
        </mxCell>
        <mxCell id="P5x_hELf_6X6-CJ0kqpy-253" style="edgeStyle=none;rounded=1;orthogonalLoop=1;jettySize=auto;html=1;fillColor=#dae8fc;strokeColor=#6c8ebf;curved=0;endArrow=none;startFill=0;" edge="1" parent="1" source="P5x_hELf_6X6-CJ0kqpy-227" target="P5x_hELf_6X6-CJ0kqpy-225">
          <mxGeometry relative="1" as="geometry">
            <mxPoint x="1645" y="484" as="sourcePoint" />
            <mxPoint x="1650" y="482" as="targetPoint" />
          </mxGeometry>
        </mxCell>
        <mxCell id="P5x_hELf_6X6-CJ0kqpy-254" style="edgeStyle=none;rounded=1;orthogonalLoop=1;jettySize=auto;html=1;fillColor=#dae8fc;strokeColor=#6c8ebf;curved=0;endArrow=none;startFill=0;" edge="1" parent="1" source="P5x_hELf_6X6-CJ0kqpy-228" target="P5x_hELf_6X6-CJ0kqpy-227">
          <mxGeometry relative="1" as="geometry">
            <mxPoint x="1625" y="491" as="sourcePoint" />
            <mxPoint x="1631" y="490" as="targetPoint" />
          </mxGeometry>
        </mxCell>
        <mxCell id="P5x_hELf_6X6-CJ0kqpy-255" style="edgeStyle=none;rounded=1;orthogonalLoop=1;jettySize=auto;html=1;fillColor=#dae8fc;strokeColor=#6c8ebf;curved=0;endArrow=none;startFill=0;" edge="1" parent="1" source="P5x_hELf_6X6-CJ0kqpy-229" target="P5x_hELf_6X6-CJ0kqpy-228">
          <mxGeometry relative="1" as="geometry">
            <mxPoint x="1605" y="496" as="sourcePoint" />
            <mxPoint x="1611" y="495" as="targetPoint" />
          </mxGeometry>
        </mxCell>
        <mxCell id="P5x_hELf_6X6-CJ0kqpy-256" value="" style="whiteSpace=wrap;html=1;aspect=fixed;" vertex="1" parent="1">
          <mxGeometry x="1508" y="590.5" width="406" height="406" as="geometry" />
        </mxCell>
        <mxCell id="P5x_hELf_6X6-CJ0kqpy-257" style="edgeStyle=none;rounded=1;orthogonalLoop=1;jettySize=auto;html=1;fillColor=#f8cecc;strokeColor=#b85450;curved=0;endArrow=none;startFill=0;exitX=0.5;exitY=0.5;exitDx=0;exitDy=0;exitPerimeter=0;" edge="1" parent="1" source="P5x_hELf_6X6-CJ0kqpy-271" target="P5x_hELf_6X6-CJ0kqpy-270">
          <mxGeometry relative="1" as="geometry">
            <mxPoint x="1778" y="799.5" as="sourcePoint" />
            <mxPoint x="1775" y="803.5" as="targetPoint" />
          </mxGeometry>
        </mxCell>
        <mxCell id="P5x_hELf_6X6-CJ0kqpy-258" value="" style="html=1;shadow=0;dashed=0;align=center;verticalAlign=middle;shape=mxgraph.arrows2.arrow;dy=0;dx=31.09;notch=8.91;rotation=-90;fillColor=#4D4D4D;strokeColor=none;" vertex="1" parent="1">
          <mxGeometry x="1530" y="618.5" width="30" height="24" as="geometry" />
        </mxCell>
        <mxCell id="P5x_hELf_6X6-CJ0kqpy-259" value="N" style="rounded=1;whiteSpace=wrap;html=1;strokeColor=none;fillColor=none;" vertex="1" parent="1">
          <mxGeometry x="1535" y="596.5" width="20" height="20" as="geometry" />
        </mxCell>
        <mxCell id="P5x_hELf_6X6-CJ0kqpy-260" style="edgeStyle=none;rounded=1;orthogonalLoop=1;jettySize=auto;html=1;fillColor=#ffe6cc;strokeColor=#d79b00;curved=0;endArrow=none;startFill=0;" edge="1" parent="1" source="P5x_hELf_6X6-CJ0kqpy-261" target="P5x_hELf_6X6-CJ0kqpy-262">
          <mxGeometry relative="1" as="geometry" />
        </mxCell>
        <mxCell id="P5x_hELf_6X6-CJ0kqpy-261" value="" style="ellipse;whiteSpace=wrap;html=1;aspect=fixed;fillColor=#ffe6cc;strokeColor=#d79b00;" vertex="1" parent="1">
          <mxGeometry x="1801" y="608.5" width="15" height="15" as="geometry" />
        </mxCell>
        <mxCell id="P5x_hELf_6X6-CJ0kqpy-262" value="" style="ellipse;whiteSpace=wrap;html=1;aspect=fixed;fillColor=#ffe6cc;strokeColor=#d79b00;" vertex="1" parent="1">
          <mxGeometry x="1767.5" y="657.5" width="15" height="15" as="geometry" />
        </mxCell>
        <mxCell id="P5x_hELf_6X6-CJ0kqpy-263" value="" style="ellipse;whiteSpace=wrap;html=1;aspect=fixed;fillColor=#ffe6cc;strokeColor=#d79b00;" vertex="1" parent="1">
          <mxGeometry x="1737.5" y="697.5" width="15" height="15" as="geometry" />
        </mxCell>
        <mxCell id="P5x_hELf_6X6-CJ0kqpy-264" value="" style="ellipse;whiteSpace=wrap;html=1;aspect=fixed;fillColor=#ffe6cc;strokeColor=#d79b00;" vertex="1" parent="1">
          <mxGeometry x="1711.5" y="731.5" width="15" height="15" as="geometry" />
        </mxCell>
        <mxCell id="P5x_hELf_6X6-CJ0kqpy-265" value="" style="ellipse;whiteSpace=wrap;html=1;aspect=fixed;fillColor=#ffe6cc;strokeColor=#d79b00;" vertex="1" parent="1">
          <mxGeometry x="1689.5" y="766.5" width="15" height="15" as="geometry" />
        </mxCell>
        <mxCell id="P5x_hELf_6X6-CJ0kqpy-266" value="" style="ellipse;whiteSpace=wrap;html=1;aspect=fixed;fillColor=#ffe6cc;strokeColor=#d79b00;" vertex="1" parent="1">
          <mxGeometry x="1679" y="803" width="15" height="15" as="geometry" />
        </mxCell>
        <mxCell id="P5x_hELf_6X6-CJ0kqpy-269" value="" style="ellipse;whiteSpace=wrap;html=1;aspect=fixed;fillColor=#f8cecc;strokeColor=#b85450;" vertex="1" parent="1">
          <mxGeometry x="1797.5" y="720.5" width="15" height="15" as="geometry" />
        </mxCell>
        <mxCell id="P5x_hELf_6X6-CJ0kqpy-270" value="" style="ellipse;whiteSpace=wrap;html=1;aspect=fixed;fillColor=#f8cecc;strokeColor=#b85450;" vertex="1" parent="1">
          <mxGeometry x="1736.5" y="806.5" width="15" height="15" as="geometry" />
        </mxCell>
        <mxCell id="P5x_hELf_6X6-CJ0kqpy-271" value="" style="ellipse;whiteSpace=wrap;html=1;aspect=fixed;fillColor=#f8cecc;strokeColor=#b85450;" vertex="1" parent="1">
          <mxGeometry x="1752.5" y="791.5" width="15" height="15" as="geometry" />
        </mxCell>
        <mxCell id="P5x_hELf_6X6-CJ0kqpy-274" value="" style="ellipse;whiteSpace=wrap;html=1;aspect=fixed;fillColor=#e1d5e7;strokeColor=#9673a6;" vertex="1" parent="1">
          <mxGeometry x="1856.5" y="804.5" width="15" height="15" as="geometry" />
        </mxCell>
        <mxCell id="P5x_hELf_6X6-CJ0kqpy-275" value="" style="ellipse;whiteSpace=wrap;html=1;aspect=fixed;fillColor=#e1d5e7;strokeColor=#9673a6;" vertex="1" parent="1">
          <mxGeometry x="1886.5" y="758.5" width="15" height="15" as="geometry" />
        </mxCell>
        <mxCell id="P5x_hELf_6X6-CJ0kqpy-276" value="" style="ellipse;whiteSpace=wrap;html=1;aspect=fixed;fillColor=#e1d5e7;strokeColor=#9673a6;" vertex="1" parent="1">
          <mxGeometry x="1837.5" y="823.5" width="15" height="15" as="geometry" />
        </mxCell>
        <mxCell id="P5x_hELf_6X6-CJ0kqpy-277" value="" style="ellipse;whiteSpace=wrap;html=1;aspect=fixed;fillColor=#e1d5e7;strokeColor=#9673a6;" vertex="1" parent="1">
          <mxGeometry x="1815.5" y="846.5" width="15" height="15" as="geometry" />
        </mxCell>
        <mxCell id="P5x_hELf_6X6-CJ0kqpy-278" value="" style="ellipse;whiteSpace=wrap;html=1;aspect=fixed;fillColor=#e1d5e7;strokeColor=#9673a6;" vertex="1" parent="1">
          <mxGeometry x="1793.5" y="863.5" width="15" height="15" as="geometry" />
        </mxCell>
        <mxCell id="P5x_hELf_6X6-CJ0kqpy-279" value="" style="ellipse;whiteSpace=wrap;html=1;aspect=fixed;fillColor=#d5e8d4;strokeColor=#82b366;" vertex="1" parent="1">
          <mxGeometry x="1721.5" y="899.5" width="15" height="15" as="geometry" />
        </mxCell>
        <mxCell id="P5x_hELf_6X6-CJ0kqpy-280" value="" style="ellipse;whiteSpace=wrap;html=1;aspect=fixed;fillColor=#d5e8d4;strokeColor=#82b366;" vertex="1" parent="1">
          <mxGeometry x="1703.5" y="917.5" width="15" height="15" as="geometry" />
        </mxCell>
        <mxCell id="P5x_hELf_6X6-CJ0kqpy-282" value="" style="ellipse;whiteSpace=wrap;html=1;aspect=fixed;fillColor=#d5e8d4;strokeColor=#82b366;" vertex="1" parent="1">
          <mxGeometry x="1682.5" y="937.5" width="15" height="15" as="geometry" />
        </mxCell>
        <mxCell id="P5x_hELf_6X6-CJ0kqpy-283" value="" style="ellipse;whiteSpace=wrap;html=1;aspect=fixed;fillColor=#d5e8d4;strokeColor=#82b366;" vertex="1" parent="1">
          <mxGeometry x="1662.5" y="947.5" width="15" height="15" as="geometry" />
        </mxCell>
        <mxCell id="P5x_hELf_6X6-CJ0kqpy-284" value="" style="ellipse;whiteSpace=wrap;html=1;aspect=fixed;fillColor=#d5e8d4;strokeColor=#82b366;" vertex="1" parent="1">
          <mxGeometry x="1638.5" y="956.5" width="15" height="15" as="geometry" />
        </mxCell>
        <mxCell id="P5x_hELf_6X6-CJ0kqpy-291" style="edgeStyle=none;rounded=1;orthogonalLoop=1;jettySize=auto;html=1;exitX=0;exitY=1;exitDx=0;exitDy=0;fillColor=#ffe6cc;strokeColor=#d79b00;curved=0;endArrow=none;startFill=0;entryX=1;entryY=0;entryDx=0;entryDy=0;" edge="1" parent="1" target="P5x_hELf_6X6-CJ0kqpy-263">
          <mxGeometry relative="1" as="geometry">
            <mxPoint x="1770.696699141101" y="670.3033008588989" as="sourcePoint" />
            <mxPoint x="1751.303300858899" y="699.6966991411009" as="targetPoint" />
          </mxGeometry>
        </mxCell>
        <mxCell id="P5x_hELf_6X6-CJ0kqpy-292" style="edgeStyle=none;rounded=1;orthogonalLoop=1;jettySize=auto;html=1;fillColor=#ffe6cc;strokeColor=#d79b00;curved=0;endArrow=none;startFill=0;" edge="1" parent="1" source="P5x_hELf_6X6-CJ0kqpy-263" target="P5x_hELf_6X6-CJ0kqpy-264">
          <mxGeometry relative="1" as="geometry">
            <mxPoint x="1780.696699141101" y="681.3033008588989" as="sourcePoint" />
            <mxPoint x="1759.4950000000003" y="709.55" as="targetPoint" />
          </mxGeometry>
        </mxCell>
        <mxCell id="P5x_hELf_6X6-CJ0kqpy-293" style="edgeStyle=none;rounded=1;orthogonalLoop=1;jettySize=auto;html=1;fillColor=#ffe6cc;strokeColor=#d79b00;curved=0;endArrow=none;startFill=0;" edge="1" parent="1" source="P5x_hELf_6X6-CJ0kqpy-264" target="P5x_hELf_6X6-CJ0kqpy-265">
          <mxGeometry relative="1" as="geometry">
            <mxPoint x="1750" y="720.5" as="sourcePoint" />
            <mxPoint x="1734" y="743.5" as="targetPoint" />
          </mxGeometry>
        </mxCell>
        <mxCell id="P5x_hELf_6X6-CJ0kqpy-294" style="edgeStyle=none;rounded=1;orthogonalLoop=1;jettySize=auto;html=1;fillColor=#ffe6cc;strokeColor=#d79b00;curved=0;endArrow=none;startFill=0;" edge="1" parent="1" source="P5x_hELf_6X6-CJ0kqpy-265" target="P5x_hELf_6X6-CJ0kqpy-266">
          <mxGeometry relative="1" as="geometry">
            <mxPoint x="1725" y="755.5" as="sourcePoint" />
            <mxPoint x="1711" y="777.5" as="targetPoint" />
          </mxGeometry>
        </mxCell>
        <mxCell id="P5x_hELf_6X6-CJ0kqpy-295" style="edgeStyle=none;rounded=1;orthogonalLoop=1;jettySize=auto;html=1;fillColor=#f8cecc;strokeColor=#b85450;curved=0;endArrow=none;startFill=0;" edge="1" parent="1" source="P5x_hELf_6X6-CJ0kqpy-269" target="P5x_hELf_6X6-CJ0kqpy-267">
          <mxGeometry relative="1" as="geometry">
            <mxPoint x="1780.696699141101" y="680.3033008588989" as="sourcePoint" />
            <mxPoint x="1760" y="709.5" as="targetPoint" />
          </mxGeometry>
        </mxCell>
        <mxCell id="P5x_hELf_6X6-CJ0kqpy-296" style="edgeStyle=none;rounded=1;orthogonalLoop=1;jettySize=auto;html=1;fillColor=#f8cecc;strokeColor=#b85450;curved=0;endArrow=none;startFill=0;" edge="1" parent="1" source="P5x_hELf_6X6-CJ0kqpy-267" target="P5x_hELf_6X6-CJ0kqpy-268">
          <mxGeometry relative="1" as="geometry">
            <mxPoint x="1811" y="744.5" as="sourcePoint" />
            <mxPoint x="1803" y="760.5" as="targetPoint" />
          </mxGeometry>
        </mxCell>
        <mxCell id="P5x_hELf_6X6-CJ0kqpy-297" style="edgeStyle=none;rounded=1;orthogonalLoop=1;jettySize=auto;html=1;fillColor=#f8cecc;strokeColor=#b85450;curved=0;endArrow=none;startFill=0;" edge="1" parent="1" source="P5x_hELf_6X6-CJ0kqpy-268" target="P5x_hELf_6X6-CJ0kqpy-271">
          <mxGeometry relative="1" as="geometry">
            <mxPoint x="1795" y="773.5" as="sourcePoint" />
            <mxPoint x="1787" y="787.5" as="targetPoint" />
          </mxGeometry>
        </mxCell>
        <mxCell id="P5x_hELf_6X6-CJ0kqpy-298" style="edgeStyle=none;rounded=1;orthogonalLoop=1;jettySize=auto;html=1;fillColor=#f8cecc;strokeColor=#b85450;curved=0;endArrow=none;startFill=0;" edge="1" parent="1" source="P5x_hELf_6X6-CJ0kqpy-270" target="P5x_hELf_6X6-CJ0kqpy-272">
          <mxGeometry relative="1" as="geometry">
            <mxPoint x="1770" y="809.5" as="sourcePoint" />
            <mxPoint x="1760" y="818.5" as="targetPoint" />
          </mxGeometry>
        </mxCell>
        <mxCell id="P5x_hELf_6X6-CJ0kqpy-299" style="edgeStyle=none;rounded=1;orthogonalLoop=1;jettySize=auto;html=1;fillColor=#e1d5e7;strokeColor=#9673a6;curved=0;endArrow=none;startFill=0;" edge="1" parent="1" source="P5x_hELf_6X6-CJ0kqpy-277" target="P5x_hELf_6X6-CJ0kqpy-278">
          <mxGeometry relative="1" as="geometry">
            <mxPoint x="1815.5" y="856.5" as="sourcePoint" />
            <mxPoint x="1811.5" y="864.5" as="targetPoint" />
          </mxGeometry>
        </mxCell>
        <mxCell id="P5x_hELf_6X6-CJ0kqpy-300" style="edgeStyle=none;rounded=1;orthogonalLoop=1;jettySize=auto;html=1;fillColor=#e1d5e7;strokeColor=#9673a6;curved=0;endArrow=none;startFill=0;" edge="1" parent="1" source="P5x_hELf_6X6-CJ0kqpy-276" target="P5x_hELf_6X6-CJ0kqpy-277">
          <mxGeometry relative="1" as="geometry">
            <mxPoint x="1827" y="868.5" as="sourcePoint" />
            <mxPoint x="1817" y="876.5" as="targetPoint" />
          </mxGeometry>
        </mxCell>
        <mxCell id="P5x_hELf_6X6-CJ0kqpy-301" style="edgeStyle=none;rounded=1;orthogonalLoop=1;jettySize=auto;html=1;fillColor=#e1d5e7;strokeColor=#9673a6;curved=0;endArrow=none;startFill=0;" edge="1" parent="1" source="P5x_hELf_6X6-CJ0kqpy-276" target="P5x_hELf_6X6-CJ0kqpy-274">
          <mxGeometry relative="1" as="geometry">
            <mxPoint x="1850" y="846.5" as="sourcePoint" />
            <mxPoint x="1838" y="858.5" as="targetPoint" />
          </mxGeometry>
        </mxCell>
        <mxCell id="P5x_hELf_6X6-CJ0kqpy-302" style="edgeStyle=none;rounded=1;orthogonalLoop=1;jettySize=auto;html=1;fillColor=#e1d5e7;strokeColor=#9673a6;curved=0;endArrow=none;startFill=0;" edge="1" parent="1" source="P5x_hELf_6X6-CJ0kqpy-273" target="P5x_hELf_6X6-CJ0kqpy-274">
          <mxGeometry relative="1" as="geometry">
            <mxPoint x="1860" y="835.5" as="sourcePoint" />
            <mxPoint x="1869" y="827.5" as="targetPoint" />
          </mxGeometry>
        </mxCell>
        <mxCell id="P5x_hELf_6X6-CJ0kqpy-303" style="edgeStyle=none;rounded=1;orthogonalLoop=1;jettySize=auto;html=1;fillColor=#e1d5e7;strokeColor=#9673a6;curved=0;endArrow=none;startFill=0;" edge="1" parent="1" source="P5x_hELf_6X6-CJ0kqpy-273" target="P5x_hELf_6X6-CJ0kqpy-275">
          <mxGeometry relative="1" as="geometry">
            <mxPoint x="1884" y="802.5" as="sourcePoint" />
            <mxPoint x="1878" y="815.5" as="targetPoint" />
          </mxGeometry>
        </mxCell>
        <mxCell id="P5x_hELf_6X6-CJ0kqpy-304" style="edgeStyle=none;rounded=1;orthogonalLoop=1;jettySize=auto;html=1;fillColor=#d5e8d4;strokeColor=#82b366;curved=0;endArrow=none;startFill=0;" edge="1" parent="1" source="P5x_hELf_6X6-CJ0kqpy-281" target="P5x_hELf_6X6-CJ0kqpy-279">
          <mxGeometry relative="1" as="geometry">
            <mxPoint x="1750" y="890.5" as="sourcePoint" />
            <mxPoint x="1746" y="898.5" as="targetPoint" />
          </mxGeometry>
        </mxCell>
        <mxCell id="P5x_hELf_6X6-CJ0kqpy-305" style="edgeStyle=none;rounded=1;orthogonalLoop=1;jettySize=auto;html=1;fillColor=#d5e8d4;strokeColor=#82b366;curved=0;endArrow=none;startFill=0;" edge="1" parent="1" source="P5x_hELf_6X6-CJ0kqpy-279" target="P5x_hELf_6X6-CJ0kqpy-280">
          <mxGeometry relative="1" as="geometry">
            <mxPoint x="1758" y="892.5" as="sourcePoint" />
            <mxPoint x="1744" y="911.5" as="targetPoint" />
          </mxGeometry>
        </mxCell>
        <mxCell id="P5x_hELf_6X6-CJ0kqpy-306" style="edgeStyle=none;rounded=1;orthogonalLoop=1;jettySize=auto;html=1;fillColor=#d5e8d4;strokeColor=#82b366;curved=0;endArrow=none;startFill=0;" edge="1" parent="1" source="P5x_hELf_6X6-CJ0kqpy-280" target="P5x_hELf_6X6-CJ0kqpy-282">
          <mxGeometry relative="1" as="geometry">
            <mxPoint x="1734" y="922.5" as="sourcePoint" />
            <mxPoint x="1726" y="929.5" as="targetPoint" />
          </mxGeometry>
        </mxCell>
        <mxCell id="P5x_hELf_6X6-CJ0kqpy-307" style="edgeStyle=none;rounded=1;orthogonalLoop=1;jettySize=auto;html=1;fillColor=#d5e8d4;strokeColor=#82b366;curved=0;endArrow=none;startFill=0;" edge="1" parent="1" source="P5x_hELf_6X6-CJ0kqpy-282" target="P5x_hELf_6X6-CJ0kqpy-283">
          <mxGeometry relative="1" as="geometry">
            <mxPoint x="1716" y="940.5" as="sourcePoint" />
            <mxPoint x="1705" y="949.5" as="targetPoint" />
          </mxGeometry>
        </mxCell>
        <mxCell id="P5x_hELf_6X6-CJ0kqpy-308" style="edgeStyle=none;rounded=1;orthogonalLoop=1;jettySize=auto;html=1;fillColor=#d5e8d4;strokeColor=#82b366;curved=0;endArrow=none;startFill=0;" edge="1" parent="1" source="P5x_hELf_6X6-CJ0kqpy-283" target="P5x_hELf_6X6-CJ0kqpy-284">
          <mxGeometry relative="1" as="geometry">
            <mxPoint x="1693" y="958.5" as="sourcePoint" />
            <mxPoint x="1687" y="961.5" as="targetPoint" />
          </mxGeometry>
        </mxCell>
        <mxCell id="P5x_hELf_6X6-CJ0kqpy-309" style="edgeStyle=none;rounded=1;orthogonalLoop=1;jettySize=auto;html=1;fillColor=#dae8fc;strokeColor=#6c8ebf;curved=0;endArrow=none;startFill=0;" edge="1" parent="1" source="P5x_hELf_6X6-CJ0kqpy-285" target="P5x_hELf_6X6-CJ0kqpy-287">
          <mxGeometry relative="1" as="geometry">
            <mxPoint x="1758" y="892.5" as="sourcePoint" />
            <mxPoint x="1744" y="911.5" as="targetPoint" />
          </mxGeometry>
        </mxCell>
        <mxCell id="P5x_hELf_6X6-CJ0kqpy-310" style="edgeStyle=none;rounded=1;orthogonalLoop=1;jettySize=auto;html=1;fillColor=#dae8fc;strokeColor=#6c8ebf;curved=0;endArrow=none;startFill=0;" edge="1" parent="1" source="P5x_hELf_6X6-CJ0kqpy-286" target="P5x_hELf_6X6-CJ0kqpy-285">
          <mxGeometry relative="1" as="geometry">
            <mxPoint x="1664" y="905.5" as="sourcePoint" />
            <mxPoint x="1674" y="901.5" as="targetPoint" />
          </mxGeometry>
        </mxCell>
        <mxCell id="P5x_hELf_6X6-CJ0kqpy-311" style="edgeStyle=none;rounded=1;orthogonalLoop=1;jettySize=auto;html=1;fillColor=#dae8fc;strokeColor=#6c8ebf;curved=0;endArrow=none;startFill=0;" edge="1" parent="1" source="P5x_hELf_6X6-CJ0kqpy-288" target="P5x_hELf_6X6-CJ0kqpy-286">
          <mxGeometry relative="1" as="geometry">
            <mxPoint x="1645" y="914.5" as="sourcePoint" />
            <mxPoint x="1650" y="912.5" as="targetPoint" />
          </mxGeometry>
        </mxCell>
        <mxCell id="P5x_hELf_6X6-CJ0kqpy-312" style="edgeStyle=none;rounded=1;orthogonalLoop=1;jettySize=auto;html=1;fillColor=#dae8fc;strokeColor=#6c8ebf;curved=0;endArrow=none;startFill=0;" edge="1" parent="1" source="P5x_hELf_6X6-CJ0kqpy-289" target="P5x_hELf_6X6-CJ0kqpy-288">
          <mxGeometry relative="1" as="geometry">
            <mxPoint x="1625" y="921.5" as="sourcePoint" />
            <mxPoint x="1631" y="920.5" as="targetPoint" />
          </mxGeometry>
        </mxCell>
        <mxCell id="P5x_hELf_6X6-CJ0kqpy-313" style="edgeStyle=none;rounded=1;orthogonalLoop=1;jettySize=auto;html=1;fillColor=#dae8fc;strokeColor=#6c8ebf;curved=0;endArrow=none;startFill=0;" edge="1" parent="1" source="P5x_hELf_6X6-CJ0kqpy-290" target="P5x_hELf_6X6-CJ0kqpy-289">
          <mxGeometry relative="1" as="geometry">
            <mxPoint x="1605" y="926.5" as="sourcePoint" />
            <mxPoint x="1611" y="925.5" as="targetPoint" />
          </mxGeometry>
        </mxCell>
        <mxCell id="P5x_hELf_6X6-CJ0kqpy-314" style="edgeStyle=none;rounded=1;orthogonalLoop=1;jettySize=auto;html=1;fillColor=#ffe6cc;strokeColor=light-dark(#929292, #996500);curved=0;endArrow=none;startFill=0;opacity=60;dashed=1;" edge="1" parent="1" source="P5x_hELf_6X6-CJ0kqpy-261" target="P5x_hELf_6X6-CJ0kqpy-269">
          <mxGeometry relative="1" as="geometry">
            <mxPoint x="1822.696699141116" y="623.4966991411158" as="sourcePoint" />
            <mxPoint x="1808.5" y="681.8" as="targetPoint" />
          </mxGeometry>
        </mxCell>
        <mxCell id="P5x_hELf_6X6-CJ0kqpy-315" style="edgeStyle=none;rounded=1;orthogonalLoop=1;jettySize=auto;html=1;fillColor=#ffe6cc;strokeColor=light-dark(#929292, #996500);curved=0;endArrow=none;startFill=0;opacity=60;dashed=1;" edge="1" parent="1" source="P5x_hELf_6X6-CJ0kqpy-275" target="P5x_hELf_6X6-CJ0kqpy-269">
          <mxGeometry relative="1" as="geometry">
            <mxPoint x="1818" y="633" as="sourcePoint" />
            <mxPoint x="1815" y="731" as="targetPoint" />
          </mxGeometry>
        </mxCell>
        <mxCell id="P5x_hELf_6X6-CJ0kqpy-316" style="edgeStyle=none;rounded=1;orthogonalLoop=1;jettySize=auto;html=1;fillColor=#ffe6cc;strokeColor=light-dark(#929292, #996500);curved=0;endArrow=none;startFill=0;opacity=60;dashed=1;" edge="1" parent="1" source="P5x_hELf_6X6-CJ0kqpy-281" target="P5x_hELf_6X6-CJ0kqpy-269">
          <mxGeometry relative="1" as="geometry">
            <mxPoint x="1897" y="773" as="sourcePoint" />
            <mxPoint x="1822" y="741" as="targetPoint" />
          </mxGeometry>
        </mxCell>
        <mxCell id="P5x_hELf_6X6-CJ0kqpy-317" style="edgeStyle=none;rounded=1;orthogonalLoop=1;jettySize=auto;html=1;fillColor=#ffe6cc;strokeColor=light-dark(#929292, #996500);curved=0;endArrow=none;startFill=0;opacity=60;dashed=1;" edge="1" parent="1" source="P5x_hELf_6X6-CJ0kqpy-287" target="P5x_hELf_6X6-CJ0kqpy-269">
          <mxGeometry relative="1" as="geometry">
            <mxPoint x="1765" y="880" as="sourcePoint" />
            <mxPoint x="1813" y="745" as="targetPoint" />
          </mxGeometry>
        </mxCell>
        <mxCell id="P5x_hELf_6X6-CJ0kqpy-318" style="edgeStyle=none;rounded=1;orthogonalLoop=1;jettySize=auto;html=1;fillColor=#ffe6cc;strokeColor=light-dark(#929292, #996500);curved=0;endArrow=none;startFill=0;opacity=60;dashed=1;" edge="1" parent="1" source="P5x_hELf_6X6-CJ0kqpy-287" target="P5x_hELf_6X6-CJ0kqpy-281">
          <mxGeometry relative="1" as="geometry">
            <mxPoint x="1686" y="892" as="sourcePoint" />
            <mxPoint x="1810" y="744" as="targetPoint" />
          </mxGeometry>
        </mxCell>
        <mxCell id="P5x_hELf_6X6-CJ0kqpy-319" style="edgeStyle=none;rounded=1;orthogonalLoop=1;jettySize=auto;html=1;fillColor=#ffe6cc;strokeColor=light-dark(#929292, #996500);curved=0;endArrow=none;startFill=0;opacity=60;dashed=1;exitX=0;exitY=1;exitDx=0;exitDy=0;" edge="1" parent="1" source="P5x_hELf_6X6-CJ0kqpy-275" target="P5x_hELf_6X6-CJ0kqpy-281">
          <mxGeometry relative="1" as="geometry">
            <mxPoint x="1688" y="897" as="sourcePoint" />
            <mxPoint x="1756" y="888" as="targetPoint" />
          </mxGeometry>
        </mxCell>
        <mxCell id="P5x_hELf_6X6-CJ0kqpy-320" style="edgeStyle=none;rounded=1;orthogonalLoop=1;jettySize=auto;html=1;fillColor=#ffe6cc;strokeColor=light-dark(#929292, #996500);curved=0;endArrow=none;startFill=0;opacity=60;dashed=1;" edge="1" parent="1" source="P5x_hELf_6X6-CJ0kqpy-261" target="P5x_hELf_6X6-CJ0kqpy-275">
          <mxGeometry relative="1" as="geometry">
            <mxPoint x="1899" y="781" as="sourcePoint" />
            <mxPoint x="1769" y="882" as="targetPoint" />
          </mxGeometry>
        </mxCell>
        <mxCell id="P5x_hELf_6X6-CJ0kqpy-321" style="edgeStyle=none;rounded=1;orthogonalLoop=1;jettySize=auto;html=1;fillColor=#ffe6cc;strokeColor=light-dark(#929292, #996500);curved=0;endArrow=none;startFill=0;opacity=60;dashed=1;" edge="1" parent="1" source="P5x_hELf_6X6-CJ0kqpy-261" target="P5x_hELf_6X6-CJ0kqpy-287">
          <mxGeometry relative="1" as="geometry">
            <mxPoint x="1822" y="633" as="sourcePoint" />
            <mxPoint x="1900" y="769" as="targetPoint" />
          </mxGeometry>
        </mxCell>
        <mxCell id="P5x_hELf_6X6-CJ0kqpy-322" style="edgeStyle=none;rounded=1;orthogonalLoop=1;jettySize=auto;html=1;fillColor=#ffe6cc;strokeColor=light-dark(#929292, #996500);curved=0;endArrow=none;startFill=0;opacity=60;dashed=1;" edge="1" parent="1" source="P5x_hELf_6X6-CJ0kqpy-266" target="P5x_hELf_6X6-CJ0kqpy-272">
          <mxGeometry relative="1" as="geometry">
            <mxPoint x="1815" y="633" as="sourcePoint" />
            <mxPoint x="1684" y="891" as="targetPoint" />
          </mxGeometry>
        </mxCell>
        <mxCell id="P5x_hELf_6X6-CJ0kqpy-323" style="edgeStyle=none;rounded=1;orthogonalLoop=1;jettySize=auto;html=1;fillColor=#ffe6cc;strokeColor=light-dark(#929292, #996500);curved=0;endArrow=none;startFill=0;opacity=60;dashed=1;" edge="1" parent="1" source="P5x_hELf_6X6-CJ0kqpy-266" target="P5x_hELf_6X6-CJ0kqpy-284">
          <mxGeometry relative="1" as="geometry">
            <mxPoint x="1703" y="824" as="sourcePoint" />
            <mxPoint x="1735" y="841" as="targetPoint" />
          </mxGeometry>
        </mxCell>
        <mxCell id="P5x_hELf_6X6-CJ0kqpy-324" style="edgeStyle=none;rounded=1;orthogonalLoop=1;jettySize=auto;html=1;fillColor=#ffe6cc;strokeColor=light-dark(#929292, #996500);curved=0;endArrow=none;startFill=0;opacity=60;dashed=1;" edge="1" parent="1" source="P5x_hELf_6X6-CJ0kqpy-272" target="P5x_hELf_6X6-CJ0kqpy-281">
          <mxGeometry relative="1" as="geometry">
            <mxPoint x="1702" y="826" as="sourcePoint" />
            <mxPoint x="1758" y="882" as="targetPoint" />
          </mxGeometry>
        </mxCell>
        <mxCell id="P5x_hELf_6X6-CJ0kqpy-325" style="edgeStyle=none;rounded=1;orthogonalLoop=1;jettySize=auto;html=1;fillColor=#ffe6cc;strokeColor=light-dark(#929292, #996500);curved=0;endArrow=none;startFill=0;opacity=60;dashed=1;entryX=1;entryY=0;entryDx=0;entryDy=0;" edge="1" parent="1" source="P5x_hELf_6X6-CJ0kqpy-272" target="P5x_hELf_6X6-CJ0kqpy-284">
          <mxGeometry relative="1" as="geometry">
            <mxPoint x="1745" y="852" as="sourcePoint" />
            <mxPoint x="1760" y="880" as="targetPoint" />
          </mxGeometry>
        </mxCell>
        <mxCell id="P5x_hELf_6X6-CJ0kqpy-326" style="edgeStyle=none;rounded=1;orthogonalLoop=1;jettySize=auto;html=1;fillColor=#ffe6cc;strokeColor=light-dark(#929292, #996500);curved=0;endArrow=none;startFill=0;opacity=60;dashed=1;exitX=0;exitY=0;exitDx=0;exitDy=0;" edge="1" parent="1" source="P5x_hELf_6X6-CJ0kqpy-284" target="P5x_hELf_6X6-CJ0kqpy-290">
          <mxGeometry relative="1" as="geometry">
            <mxPoint x="1738" y="851" as="sourcePoint" />
            <mxPoint x="1661" y="969" as="targetPoint" />
          </mxGeometry>
        </mxCell>
        <mxCell id="P5x_hELf_6X6-CJ0kqpy-327" style="edgeStyle=none;rounded=1;orthogonalLoop=1;jettySize=auto;html=1;fillColor=#ffe6cc;strokeColor=light-dark(#929292, #996500);curved=0;endArrow=none;startFill=0;opacity=60;dashed=1;" edge="1" parent="1" source="P5x_hELf_6X6-CJ0kqpy-266" target="P5x_hELf_6X6-CJ0kqpy-290">
          <mxGeometry relative="1" as="geometry">
            <mxPoint x="1651" y="969" as="sourcePoint" />
            <mxPoint x="1584" y="934" as="targetPoint" />
          </mxGeometry>
        </mxCell>
        <mxCell id="P5x_hELf_6X6-CJ0kqpy-328" style="edgeStyle=none;rounded=1;orthogonalLoop=1;jettySize=auto;html=1;fillColor=#ffe6cc;strokeColor=light-dark(#929292, #996500);curved=0;endArrow=none;startFill=0;opacity=60;dashed=1;" edge="1" parent="1" source="P5x_hELf_6X6-CJ0kqpy-266" target="P5x_hELf_6X6-CJ0kqpy-278">
          <mxGeometry relative="1" as="geometry">
            <mxPoint x="1691" y="826" as="sourcePoint" />
            <mxPoint x="1583" y="926" as="targetPoint" />
          </mxGeometry>
        </mxCell>
        <mxCell id="P5x_hELf_6X6-CJ0kqpy-272" value="" style="ellipse;whiteSpace=wrap;html=1;aspect=fixed;fillColor=#f8cecc;strokeColor=#b85450;" vertex="1" parent="1">
          <mxGeometry x="1724.5" y="827.5" width="15" height="15" as="geometry" />
        </mxCell>
        <mxCell id="P5x_hELf_6X6-CJ0kqpy-329" style="edgeStyle=none;rounded=1;orthogonalLoop=1;jettySize=auto;html=1;fillColor=#ffe6cc;strokeColor=light-dark(#929292, #996500);curved=0;endArrow=none;startFill=0;opacity=60;dashed=1;entryX=1;entryY=0;entryDx=0;entryDy=0;exitX=0;exitY=1;exitDx=0;exitDy=0;" edge="1" parent="1" source="P5x_hELf_6X6-CJ0kqpy-272" target="P5x_hELf_6X6-CJ0kqpy-290">
          <mxGeometry relative="1" as="geometry">
            <mxPoint x="1703" y="824" as="sourcePoint" />
            <mxPoint x="1804" y="878" as="targetPoint" />
          </mxGeometry>
        </mxCell>
        <mxCell id="P5x_hELf_6X6-CJ0kqpy-330" style="edgeStyle=none;rounded=1;orthogonalLoop=1;jettySize=auto;html=1;fillColor=#ffe6cc;strokeColor=light-dark(#929292, #996500);curved=0;endArrow=none;startFill=0;opacity=60;dashed=1;entryX=0.647;entryY=0.233;entryDx=0;entryDy=0;entryPerimeter=0;" edge="1" parent="1" source="P5x_hELf_6X6-CJ0kqpy-278" target="P5x_hELf_6X6-CJ0kqpy-290">
          <mxGeometry relative="1" as="geometry">
            <mxPoint x="1737" y="850" as="sourcePoint" />
            <mxPoint x="1582" y="926" as="targetPoint" />
          </mxGeometry>
        </mxCell>
        <mxCell id="P5x_hELf_6X6-CJ0kqpy-331" style="edgeStyle=none;rounded=1;orthogonalLoop=1;jettySize=auto;html=1;fillColor=#ffe6cc;strokeColor=light-dark(#929292, #996500);curved=0;endArrow=none;startFill=0;opacity=60;dashed=1;" edge="1" parent="1" source="P5x_hELf_6X6-CJ0kqpy-261">
          <mxGeometry relative="1" as="geometry">
            <mxPoint x="1822" y="633" as="sourcePoint" />
            <mxPoint x="1753" y="880" as="targetPoint" />
          </mxGeometry>
        </mxCell>
        <mxCell id="P5x_hELf_6X6-CJ0kqpy-281" value="" style="ellipse;whiteSpace=wrap;html=1;aspect=fixed;fillColor=#d5e8d4;strokeColor=#82b366;" vertex="1" parent="1">
          <mxGeometry x="1745.5" y="869.5" width="15" height="15" as="geometry" />
        </mxCell>
        <mxCell id="P5x_hELf_6X6-CJ0kqpy-285" value="" style="ellipse;whiteSpace=wrap;html=1;aspect=fixed;fillColor=#dae8fc;strokeColor=#6c8ebf;" vertex="1" parent="1">
          <mxGeometry x="1639.5" y="891.5" width="15" height="15" as="geometry" />
        </mxCell>
        <mxCell id="P5x_hELf_6X6-CJ0kqpy-286" value="" style="ellipse;whiteSpace=wrap;html=1;aspect=fixed;fillColor=#dae8fc;strokeColor=#6c8ebf;" vertex="1" parent="1">
          <mxGeometry x="1620.5" y="900.5" width="15" height="15" as="geometry" />
        </mxCell>
        <mxCell id="P5x_hELf_6X6-CJ0kqpy-287" value="" style="ellipse;whiteSpace=wrap;html=1;aspect=fixed;fillColor=#dae8fc;strokeColor=#6c8ebf;" vertex="1" parent="1">
          <mxGeometry x="1663.5" y="880.5" width="15" height="15" as="geometry" />
        </mxCell>
        <mxCell id="P5x_hELf_6X6-CJ0kqpy-288" value="" style="ellipse;whiteSpace=wrap;html=1;aspect=fixed;fillColor=#dae8fc;strokeColor=#6c8ebf;" vertex="1" parent="1">
          <mxGeometry x="1600.5" y="906.5" width="15" height="15" as="geometry" />
        </mxCell>
        <mxCell id="P5x_hELf_6X6-CJ0kqpy-289" value="" style="ellipse;whiteSpace=wrap;html=1;aspect=fixed;fillColor=#dae8fc;strokeColor=#6c8ebf;" vertex="1" parent="1">
          <mxGeometry x="1580.5" y="910.5" width="15" height="15" as="geometry" />
        </mxCell>
        <mxCell id="P5x_hELf_6X6-CJ0kqpy-290" value="" style="ellipse;whiteSpace=wrap;html=1;aspect=fixed;fillColor=#dae8fc;strokeColor=#6c8ebf;" vertex="1" parent="1">
          <mxGeometry x="1559.5" y="913.5" width="15" height="15" as="geometry" />
        </mxCell>
        <mxCell id="P5x_hELf_6X6-CJ0kqpy-267" value="" style="ellipse;whiteSpace=wrap;html=1;aspect=fixed;fillColor=#f8cecc;strokeColor=#b85450;" vertex="1" parent="1">
          <mxGeometry x="1781.5" y="749.5" width="15" height="15" as="geometry" />
        </mxCell>
        <mxCell id="P5x_hELf_6X6-CJ0kqpy-268" value="" style="ellipse;whiteSpace=wrap;html=1;aspect=fixed;fillColor=#f8cecc;strokeColor=#b85450;" vertex="1" parent="1">
          <mxGeometry x="1765.5" y="776.5" width="15" height="15" as="geometry" />
        </mxCell>
        <mxCell id="P5x_hELf_6X6-CJ0kqpy-273" value="" style="ellipse;whiteSpace=wrap;html=1;aspect=fixed;fillColor=#e1d5e7;strokeColor=#9673a6;" vertex="1" parent="1">
          <mxGeometry x="1870.5" y="778.5" width="15" height="15" as="geometry" />
        </mxCell>
        <mxCell id="P5x_hELf_6X6-CJ0kqpy-408" value="" style="group" vertex="1" connectable="0" parent="1">
          <mxGeometry x="51.5" y="606.5" width="203.5" height="193.5" as="geometry" />
        </mxCell>
        <mxCell id="P5x_hELf_6X6-CJ0kqpy-332" value="" style="whiteSpace=wrap;html=1;aspect=fixed;" vertex="1" parent="P5x_hELf_6X6-CJ0kqpy-408">
          <mxGeometry x="7" y="2.9" width="190" height="190" as="geometry" />
        </mxCell>
        <mxCell id="P5x_hELf_6X6-CJ0kqpy-333" style="edgeStyle=none;rounded=1;orthogonalLoop=1;jettySize=auto;html=1;fillColor=#f8cecc;strokeColor=#b85450;curved=0;endArrow=none;startFill=0;exitX=0.5;exitY=0.5;exitDx=0;exitDy=0;exitPerimeter=0;" edge="1" parent="P5x_hELf_6X6-CJ0kqpy-408" source="P5x_hELf_6X6-CJ0kqpy-345" target="P5x_hELf_6X6-CJ0kqpy-344">
          <mxGeometry relative="1" as="geometry">
            <mxPoint x="133.00492610837438" y="99.60960591133006" as="sourcePoint" />
            <mxPoint x="131.52709359605913" y="101.51600985221674" as="targetPoint" />
          </mxGeometry>
        </mxCell>
        <mxCell id="P5x_hELf_6X6-CJ0kqpy-336" style="edgeStyle=none;rounded=1;orthogonalLoop=1;jettySize=auto;html=1;fillColor=#ffe6cc;strokeColor=#d79b00;curved=0;endArrow=none;startFill=0;" edge="1" parent="P5x_hELf_6X6-CJ0kqpy-408" source="P5x_hELf_6X6-CJ0kqpy-337" target="P5x_hELf_6X6-CJ0kqpy-338">
          <mxGeometry relative="1" as="geometry" />
        </mxCell>
        <mxCell id="P5x_hELf_6X6-CJ0kqpy-337" value="" style="ellipse;whiteSpace=wrap;html=1;aspect=fixed;fillColor=#ffe6cc;strokeColor=#d79b00;" vertex="1" parent="P5x_hELf_6X6-CJ0kqpy-408">
          <mxGeometry x="144.33497536945814" y="8.578817733990148" width="6.298691434647686" height="6.298691434647686" as="geometry" />
        </mxCell>
        <mxCell id="P5x_hELf_6X6-CJ0kqpy-338" value="" style="ellipse;whiteSpace=wrap;html=1;aspect=fixed;fillColor=#ffe6cc;strokeColor=#d79b00;" vertex="1" parent="P5x_hELf_6X6-CJ0kqpy-408">
          <mxGeometry x="127.83251231527093" y="31.932266009852217" width="6.298691434647686" height="6.298691434647686" as="geometry" />
        </mxCell>
        <mxCell id="P5x_hELf_6X6-CJ0kqpy-339" value="" style="ellipse;whiteSpace=wrap;html=1;aspect=fixed;fillColor=#ffe6cc;strokeColor=#d79b00;" vertex="1" parent="P5x_hELf_6X6-CJ0kqpy-408">
          <mxGeometry x="113.05418719211823" y="50.99630541871922" width="6.298691434647686" height="6.298691434647686" as="geometry" />
        </mxCell>
        <mxCell id="P5x_hELf_6X6-CJ0kqpy-340" value="" style="ellipse;whiteSpace=wrap;html=1;aspect=fixed;fillColor=#ffe6cc;strokeColor=#d79b00;" vertex="1" parent="P5x_hELf_6X6-CJ0kqpy-408">
          <mxGeometry x="100.24630541871922" y="67.20073891625616" width="6.298691434647686" height="6.298691434647686" as="geometry" />
        </mxCell>
        <mxCell id="P5x_hELf_6X6-CJ0kqpy-341" value="" style="ellipse;whiteSpace=wrap;html=1;aspect=fixed;fillColor=#ffe6cc;strokeColor=#d79b00;" vertex="1" parent="P5x_hELf_6X6-CJ0kqpy-408">
          <mxGeometry x="89.4088669950739" y="83.88177339901478" width="6.298691434647686" height="6.298691434647686" as="geometry" />
        </mxCell>
        <mxCell id="P5x_hELf_6X6-CJ0kqpy-342" value="" style="ellipse;whiteSpace=wrap;html=1;aspect=fixed;fillColor=#ffe6cc;strokeColor=#d79b00;" vertex="1" parent="P5x_hELf_6X6-CJ0kqpy-408">
          <mxGeometry x="84.23645320197045" y="101.27770935960591" width="6.298691434647686" height="6.298691434647686" as="geometry" />
        </mxCell>
        <mxCell id="P5x_hELf_6X6-CJ0kqpy-343" value="" style="ellipse;whiteSpace=wrap;html=1;aspect=fixed;fillColor=#f8cecc;strokeColor=#b85450;" vertex="1" parent="P5x_hELf_6X6-CJ0kqpy-408">
          <mxGeometry x="142.61083743842366" y="61.95812807881774" width="6.298691434647686" height="6.298691434647686" as="geometry" />
        </mxCell>
        <mxCell id="P5x_hELf_6X6-CJ0kqpy-344" value="" style="ellipse;whiteSpace=wrap;html=1;aspect=fixed;fillColor=#f8cecc;strokeColor=#b85450;" vertex="1" parent="P5x_hELf_6X6-CJ0kqpy-408">
          <mxGeometry x="112.5615763546798" y="102.94581280788178" width="6.298691434647686" height="6.298691434647686" as="geometry" />
        </mxCell>
        <mxCell id="P5x_hELf_6X6-CJ0kqpy-345" value="" style="ellipse;whiteSpace=wrap;html=1;aspect=fixed;fillColor=#f8cecc;strokeColor=#b85450;" vertex="1" parent="P5x_hELf_6X6-CJ0kqpy-408">
          <mxGeometry x="120.44334975369459" y="95.79679802955665" width="6.298691434647686" height="6.298691434647686" as="geometry" />
        </mxCell>
        <mxCell id="P5x_hELf_6X6-CJ0kqpy-346" value="" style="ellipse;whiteSpace=wrap;html=1;aspect=fixed;fillColor=#e1d5e7;strokeColor=#9673a6;" vertex="1" parent="P5x_hELf_6X6-CJ0kqpy-408">
          <mxGeometry x="171.67487684729065" y="101.99261083743843" width="6.298691434647686" height="6.298691434647686" as="geometry" />
        </mxCell>
        <mxCell id="P5x_hELf_6X6-CJ0kqpy-347" value="" style="ellipse;whiteSpace=wrap;html=1;aspect=fixed;fillColor=#e1d5e7;strokeColor=#9673a6;" vertex="1" parent="P5x_hELf_6X6-CJ0kqpy-408">
          <mxGeometry x="186.45320197044336" y="80.06896551724138" width="6.298691434647686" height="6.298691434647686" as="geometry" />
        </mxCell>
        <mxCell id="P5x_hELf_6X6-CJ0kqpy-348" value="" style="ellipse;whiteSpace=wrap;html=1;aspect=fixed;fillColor=#e1d5e7;strokeColor=#9673a6;" vertex="1" parent="P5x_hELf_6X6-CJ0kqpy-408">
          <mxGeometry x="162.3152709359606" y="111.04802955665025" width="6.298691434647686" height="6.298691434647686" as="geometry" />
        </mxCell>
        <mxCell id="P5x_hELf_6X6-CJ0kqpy-349" value="" style="ellipse;whiteSpace=wrap;html=1;aspect=fixed;fillColor=#e1d5e7;strokeColor=#9673a6;" vertex="1" parent="P5x_hELf_6X6-CJ0kqpy-408">
          <mxGeometry x="151.47783251231527" y="122.00985221674877" width="6.298691434647686" height="6.298691434647686" as="geometry" />
        </mxCell>
        <mxCell id="P5x_hELf_6X6-CJ0kqpy-350" value="" style="ellipse;whiteSpace=wrap;html=1;aspect=fixed;fillColor=#e1d5e7;strokeColor=#9673a6;" vertex="1" parent="P5x_hELf_6X6-CJ0kqpy-408">
          <mxGeometry x="140.64039408866995" y="130.11206896551724" width="6.298691434647686" height="6.298691434647686" as="geometry" />
        </mxCell>
        <mxCell id="P5x_hELf_6X6-CJ0kqpy-351" value="" style="ellipse;whiteSpace=wrap;html=1;aspect=fixed;fillColor=#d5e8d4;strokeColor=#82b366;" vertex="1" parent="P5x_hELf_6X6-CJ0kqpy-408">
          <mxGeometry x="105.17241379310346" y="147.26970443349754" width="6.298691434647686" height="6.298691434647686" as="geometry" />
        </mxCell>
        <mxCell id="P5x_hELf_6X6-CJ0kqpy-352" value="" style="ellipse;whiteSpace=wrap;html=1;aspect=fixed;fillColor=#d5e8d4;strokeColor=#82b366;" vertex="1" parent="P5x_hELf_6X6-CJ0kqpy-408">
          <mxGeometry x="96.30541871921183" y="155.8485221674877" width="6.298691434647686" height="6.298691434647686" as="geometry" />
        </mxCell>
        <mxCell id="P5x_hELf_6X6-CJ0kqpy-353" value="" style="ellipse;whiteSpace=wrap;html=1;aspect=fixed;fillColor=#d5e8d4;strokeColor=#82b366;" vertex="1" parent="P5x_hELf_6X6-CJ0kqpy-408">
          <mxGeometry x="85.96059113300493" y="165.3805418719212" width="6.298691434647686" height="6.298691434647686" as="geometry" />
        </mxCell>
        <mxCell id="P5x_hELf_6X6-CJ0kqpy-354" value="" style="ellipse;whiteSpace=wrap;html=1;aspect=fixed;fillColor=#d5e8d4;strokeColor=#82b366;" vertex="1" parent="P5x_hELf_6X6-CJ0kqpy-408">
          <mxGeometry x="76.10837438423646" y="170.14655172413794" width="6.298691434647686" height="6.298691434647686" as="geometry" />
        </mxCell>
        <mxCell id="P5x_hELf_6X6-CJ0kqpy-355" value="" style="ellipse;whiteSpace=wrap;html=1;aspect=fixed;fillColor=#d5e8d4;strokeColor=#82b366;" vertex="1" parent="P5x_hELf_6X6-CJ0kqpy-408">
          <mxGeometry x="64.28571428571429" y="174.435960591133" width="6.298691434647686" height="6.298691434647686" as="geometry" />
        </mxCell>
        <mxCell id="P5x_hELf_6X6-CJ0kqpy-356" style="edgeStyle=none;rounded=1;orthogonalLoop=1;jettySize=auto;html=1;exitX=0;exitY=1;exitDx=0;exitDy=0;fillColor=#ffe6cc;strokeColor=#d79b00;curved=0;endArrow=none;startFill=0;entryX=1;entryY=0;entryDx=0;entryDy=0;" edge="1" parent="P5x_hELf_6X6-CJ0kqpy-408" target="P5x_hELf_6X6-CJ0kqpy-339">
          <mxGeometry relative="1" as="geometry">
            <mxPoint x="129.40724095620735" y="38.03433181329294" as="sourcePoint" />
            <mxPoint x="119.85384278763502" y="52.04325439360352" as="targetPoint" />
          </mxGeometry>
        </mxCell>
        <mxCell id="P5x_hELf_6X6-CJ0kqpy-357" style="edgeStyle=none;rounded=1;orthogonalLoop=1;jettySize=auto;html=1;fillColor=#ffe6cc;strokeColor=#d79b00;curved=0;endArrow=none;startFill=0;" edge="1" parent="P5x_hELf_6X6-CJ0kqpy-408" source="P5x_hELf_6X6-CJ0kqpy-339" target="P5x_hELf_6X6-CJ0kqpy-340">
          <mxGeometry relative="1" as="geometry">
            <mxPoint x="134.3333493305916" y="43.27694265073136" as="sourcePoint" />
            <mxPoint x="123.88916256157654" y="56.739347290640374" as="targetPoint" />
          </mxGeometry>
        </mxCell>
        <mxCell id="P5x_hELf_6X6-CJ0kqpy-358" style="edgeStyle=none;rounded=1;orthogonalLoop=1;jettySize=auto;html=1;fillColor=#ffe6cc;strokeColor=#d79b00;curved=0;endArrow=none;startFill=0;" edge="1" parent="P5x_hELf_6X6-CJ0kqpy-408" source="P5x_hELf_6X6-CJ0kqpy-340" target="P5x_hELf_6X6-CJ0kqpy-341">
          <mxGeometry relative="1" as="geometry">
            <mxPoint x="119.21182266009853" y="61.95812807881774" as="sourcePoint" />
            <mxPoint x="111.33004926108376" y="72.91995073891626" as="targetPoint" />
          </mxGeometry>
        </mxCell>
        <mxCell id="P5x_hELf_6X6-CJ0kqpy-359" style="edgeStyle=none;rounded=1;orthogonalLoop=1;jettySize=auto;html=1;fillColor=#ffe6cc;strokeColor=#d79b00;curved=0;endArrow=none;startFill=0;" edge="1" parent="P5x_hELf_6X6-CJ0kqpy-408" source="P5x_hELf_6X6-CJ0kqpy-341" target="P5x_hELf_6X6-CJ0kqpy-342">
          <mxGeometry relative="1" as="geometry">
            <mxPoint x="106.89655172413794" y="78.63916256157636" as="sourcePoint" />
            <mxPoint x="100.00000000000001" y="89.12438423645321" as="targetPoint" />
          </mxGeometry>
        </mxCell>
        <mxCell id="P5x_hELf_6X6-CJ0kqpy-360" style="edgeStyle=none;rounded=1;orthogonalLoop=1;jettySize=auto;html=1;fillColor=#f8cecc;strokeColor=#b85450;curved=0;endArrow=none;startFill=0;" edge="1" parent="P5x_hELf_6X6-CJ0kqpy-408" source="P5x_hELf_6X6-CJ0kqpy-343" target="P5x_hELf_6X6-CJ0kqpy-405">
          <mxGeometry relative="1" as="geometry">
            <mxPoint x="134.3333493305916" y="42.800341665509684" as="sourcePoint" />
            <mxPoint x="124.13793103448276" y="56.71551724137931" as="targetPoint" />
          </mxGeometry>
        </mxCell>
        <mxCell id="P5x_hELf_6X6-CJ0kqpy-361" style="edgeStyle=none;rounded=1;orthogonalLoop=1;jettySize=auto;html=1;fillColor=#f8cecc;strokeColor=#b85450;curved=0;endArrow=none;startFill=0;" edge="1" parent="P5x_hELf_6X6-CJ0kqpy-408" source="P5x_hELf_6X6-CJ0kqpy-405" target="P5x_hELf_6X6-CJ0kqpy-406">
          <mxGeometry relative="1" as="geometry">
            <mxPoint x="149.26108374384236" y="73.39655172413794" as="sourcePoint" />
            <mxPoint x="145.32019704433498" y="81.02216748768474" as="targetPoint" />
          </mxGeometry>
        </mxCell>
        <mxCell id="P5x_hELf_6X6-CJ0kqpy-362" style="edgeStyle=none;rounded=1;orthogonalLoop=1;jettySize=auto;html=1;fillColor=#f8cecc;strokeColor=#b85450;curved=0;endArrow=none;startFill=0;" edge="1" parent="P5x_hELf_6X6-CJ0kqpy-408" source="P5x_hELf_6X6-CJ0kqpy-406" target="P5x_hELf_6X6-CJ0kqpy-345">
          <mxGeometry relative="1" as="geometry">
            <mxPoint x="141.3793103448276" y="87.2179802955665" as="sourcePoint" />
            <mxPoint x="137.4384236453202" y="93.89039408866996" as="targetPoint" />
          </mxGeometry>
        </mxCell>
        <mxCell id="P5x_hELf_6X6-CJ0kqpy-363" style="edgeStyle=none;rounded=1;orthogonalLoop=1;jettySize=auto;html=1;fillColor=#f8cecc;strokeColor=#b85450;curved=0;endArrow=none;startFill=0;" edge="1" parent="P5x_hELf_6X6-CJ0kqpy-408" source="P5x_hELf_6X6-CJ0kqpy-344" target="P5x_hELf_6X6-CJ0kqpy-394">
          <mxGeometry relative="1" as="geometry">
            <mxPoint x="129.06403940886702" y="104.37561576354682" as="sourcePoint" />
            <mxPoint x="124.13793103448276" y="108.66502463054188" as="targetPoint" />
          </mxGeometry>
        </mxCell>
        <mxCell id="P5x_hELf_6X6-CJ0kqpy-364" style="edgeStyle=none;rounded=1;orthogonalLoop=1;jettySize=auto;html=1;fillColor=#e1d5e7;strokeColor=#9673a6;curved=0;endArrow=none;startFill=0;" edge="1" parent="P5x_hELf_6X6-CJ0kqpy-408" source="P5x_hELf_6X6-CJ0kqpy-349" target="P5x_hELf_6X6-CJ0kqpy-350">
          <mxGeometry relative="1" as="geometry">
            <mxPoint x="151.47783251231527" y="126.77586206896552" as="sourcePoint" />
            <mxPoint x="149.50738916256157" y="130.58866995073893" as="targetPoint" />
          </mxGeometry>
        </mxCell>
        <mxCell id="P5x_hELf_6X6-CJ0kqpy-365" style="edgeStyle=none;rounded=1;orthogonalLoop=1;jettySize=auto;html=1;fillColor=#e1d5e7;strokeColor=#9673a6;curved=0;endArrow=none;startFill=0;" edge="1" parent="P5x_hELf_6X6-CJ0kqpy-408" source="P5x_hELf_6X6-CJ0kqpy-348" target="P5x_hELf_6X6-CJ0kqpy-349">
          <mxGeometry relative="1" as="geometry">
            <mxPoint x="157.14285714285714" y="132.49507389162565" as="sourcePoint" />
            <mxPoint x="152.2167487684729" y="136.30788177339903" as="targetPoint" />
          </mxGeometry>
        </mxCell>
        <mxCell id="P5x_hELf_6X6-CJ0kqpy-366" style="edgeStyle=none;rounded=1;orthogonalLoop=1;jettySize=auto;html=1;fillColor=#e1d5e7;strokeColor=#9673a6;curved=0;endArrow=none;startFill=0;" edge="1" parent="P5x_hELf_6X6-CJ0kqpy-408" source="P5x_hELf_6X6-CJ0kqpy-348" target="P5x_hELf_6X6-CJ0kqpy-346">
          <mxGeometry relative="1" as="geometry">
            <mxPoint x="168.4729064039409" y="122.00985221674877" as="sourcePoint" />
            <mxPoint x="162.5615763546798" y="127.72906403940887" as="targetPoint" />
          </mxGeometry>
        </mxCell>
        <mxCell id="P5x_hELf_6X6-CJ0kqpy-367" style="edgeStyle=none;rounded=1;orthogonalLoop=1;jettySize=auto;html=1;fillColor=#e1d5e7;strokeColor=#9673a6;curved=0;endArrow=none;startFill=0;" edge="1" parent="P5x_hELf_6X6-CJ0kqpy-408" source="P5x_hELf_6X6-CJ0kqpy-407" target="P5x_hELf_6X6-CJ0kqpy-346">
          <mxGeometry relative="1" as="geometry">
            <mxPoint x="173.39901477832512" y="116.76724137931035" as="sourcePoint" />
            <mxPoint x="177.83251231527092" y="112.95443349753695" as="targetPoint" />
          </mxGeometry>
        </mxCell>
        <mxCell id="P5x_hELf_6X6-CJ0kqpy-368" style="edgeStyle=none;rounded=1;orthogonalLoop=1;jettySize=auto;html=1;fillColor=#e1d5e7;strokeColor=#9673a6;curved=0;endArrow=none;startFill=0;" edge="1" parent="P5x_hELf_6X6-CJ0kqpy-408" source="P5x_hELf_6X6-CJ0kqpy-407" target="P5x_hELf_6X6-CJ0kqpy-347">
          <mxGeometry relative="1" as="geometry">
            <mxPoint x="185.2216748768473" y="101.03940886699509" as="sourcePoint" />
            <mxPoint x="182.26600985221674" y="107.23522167487685" as="targetPoint" />
          </mxGeometry>
        </mxCell>
        <mxCell id="P5x_hELf_6X6-CJ0kqpy-369" style="edgeStyle=none;rounded=1;orthogonalLoop=1;jettySize=auto;html=1;fillColor=#d5e8d4;strokeColor=#82b366;curved=0;endArrow=none;startFill=0;" edge="1" parent="P5x_hELf_6X6-CJ0kqpy-408" source="P5x_hELf_6X6-CJ0kqpy-398" target="P5x_hELf_6X6-CJ0kqpy-351">
          <mxGeometry relative="1" as="geometry">
            <mxPoint x="119.21182266009853" y="142.9802955665025" as="sourcePoint" />
            <mxPoint x="117.24137931034484" y="146.79310344827587" as="targetPoint" />
          </mxGeometry>
        </mxCell>
        <mxCell id="P5x_hELf_6X6-CJ0kqpy-370" style="edgeStyle=none;rounded=1;orthogonalLoop=1;jettySize=auto;html=1;fillColor=#d5e8d4;strokeColor=#82b366;curved=0;endArrow=none;startFill=0;" edge="1" parent="P5x_hELf_6X6-CJ0kqpy-408" source="P5x_hELf_6X6-CJ0kqpy-351" target="P5x_hELf_6X6-CJ0kqpy-352">
          <mxGeometry relative="1" as="geometry">
            <mxPoint x="123.15270935960591" y="143.9334975369458" as="sourcePoint" />
            <mxPoint x="116.25615763546799" y="152.98891625615764" as="targetPoint" />
          </mxGeometry>
        </mxCell>
        <mxCell id="P5x_hELf_6X6-CJ0kqpy-371" style="edgeStyle=none;rounded=1;orthogonalLoop=1;jettySize=auto;html=1;fillColor=#d5e8d4;strokeColor=#82b366;curved=0;endArrow=none;startFill=0;" edge="1" parent="P5x_hELf_6X6-CJ0kqpy-408" source="P5x_hELf_6X6-CJ0kqpy-352" target="P5x_hELf_6X6-CJ0kqpy-353">
          <mxGeometry relative="1" as="geometry">
            <mxPoint x="111.33004926108376" y="158.23152709359607" as="sourcePoint" />
            <mxPoint x="107.38916256157636" y="161.5677339901478" as="targetPoint" />
          </mxGeometry>
        </mxCell>
        <mxCell id="P5x_hELf_6X6-CJ0kqpy-372" style="edgeStyle=none;rounded=1;orthogonalLoop=1;jettySize=auto;html=1;fillColor=#d5e8d4;strokeColor=#82b366;curved=0;endArrow=none;startFill=0;" edge="1" parent="P5x_hELf_6X6-CJ0kqpy-408" source="P5x_hELf_6X6-CJ0kqpy-353" target="P5x_hELf_6X6-CJ0kqpy-354">
          <mxGeometry relative="1" as="geometry">
            <mxPoint x="102.46305418719211" y="166.81034482758622" as="sourcePoint" />
            <mxPoint x="97.04433497536947" y="171.0997536945813" as="targetPoint" />
          </mxGeometry>
        </mxCell>
        <mxCell id="P5x_hELf_6X6-CJ0kqpy-373" style="edgeStyle=none;rounded=1;orthogonalLoop=1;jettySize=auto;html=1;fillColor=#d5e8d4;strokeColor=#82b366;curved=0;endArrow=none;startFill=0;" edge="1" parent="P5x_hELf_6X6-CJ0kqpy-408" source="P5x_hELf_6X6-CJ0kqpy-354" target="P5x_hELf_6X6-CJ0kqpy-355">
          <mxGeometry relative="1" as="geometry">
            <mxPoint x="91.13300492610837" y="175.38916256157637" as="sourcePoint" />
            <mxPoint x="88.17733990147784" y="176.8189655172414" as="targetPoint" />
          </mxGeometry>
        </mxCell>
        <mxCell id="P5x_hELf_6X6-CJ0kqpy-374" style="edgeStyle=none;rounded=1;orthogonalLoop=1;jettySize=auto;html=1;fillColor=#dae8fc;strokeColor=#6c8ebf;curved=0;endArrow=none;startFill=0;" edge="1" parent="P5x_hELf_6X6-CJ0kqpy-408" source="P5x_hELf_6X6-CJ0kqpy-399" target="P5x_hELf_6X6-CJ0kqpy-401">
          <mxGeometry relative="1" as="geometry">
            <mxPoint x="123.15270935960591" y="143.9334975369458" as="sourcePoint" />
            <mxPoint x="116.25615763546799" y="152.98891625615764" as="targetPoint" />
          </mxGeometry>
        </mxCell>
        <mxCell id="P5x_hELf_6X6-CJ0kqpy-375" style="edgeStyle=none;rounded=1;orthogonalLoop=1;jettySize=auto;html=1;fillColor=#dae8fc;strokeColor=#6c8ebf;curved=0;endArrow=none;startFill=0;" edge="1" parent="P5x_hELf_6X6-CJ0kqpy-408" source="P5x_hELf_6X6-CJ0kqpy-400" target="P5x_hELf_6X6-CJ0kqpy-399">
          <mxGeometry relative="1" as="geometry">
            <mxPoint x="76.84729064039409" y="150.1293103448276" as="sourcePoint" />
            <mxPoint x="81.77339901477833" y="148.22290640394093" as="targetPoint" />
          </mxGeometry>
        </mxCell>
        <mxCell id="P5x_hELf_6X6-CJ0kqpy-376" style="edgeStyle=none;rounded=1;orthogonalLoop=1;jettySize=auto;html=1;fillColor=#dae8fc;strokeColor=#6c8ebf;curved=0;endArrow=none;startFill=0;" edge="1" parent="P5x_hELf_6X6-CJ0kqpy-408" source="P5x_hELf_6X6-CJ0kqpy-402" target="P5x_hELf_6X6-CJ0kqpy-400">
          <mxGeometry relative="1" as="geometry">
            <mxPoint x="67.48768472906404" y="154.41871921182266" as="sourcePoint" />
            <mxPoint x="69.95073891625616" y="153.4655172413793" as="targetPoint" />
          </mxGeometry>
        </mxCell>
        <mxCell id="P5x_hELf_6X6-CJ0kqpy-377" style="edgeStyle=none;rounded=1;orthogonalLoop=1;jettySize=auto;html=1;fillColor=#dae8fc;strokeColor=#6c8ebf;curved=0;endArrow=none;startFill=0;" edge="1" parent="P5x_hELf_6X6-CJ0kqpy-408" source="P5x_hELf_6X6-CJ0kqpy-403" target="P5x_hELf_6X6-CJ0kqpy-402">
          <mxGeometry relative="1" as="geometry">
            <mxPoint x="57.635467980295566" y="157.7549261083744" as="sourcePoint" />
            <mxPoint x="60.59113300492611" y="157.2783251231527" as="targetPoint" />
          </mxGeometry>
        </mxCell>
        <mxCell id="P5x_hELf_6X6-CJ0kqpy-378" style="edgeStyle=none;rounded=1;orthogonalLoop=1;jettySize=auto;html=1;fillColor=#dae8fc;strokeColor=#6c8ebf;curved=0;endArrow=none;startFill=0;" edge="1" parent="P5x_hELf_6X6-CJ0kqpy-408" source="P5x_hELf_6X6-CJ0kqpy-404" target="P5x_hELf_6X6-CJ0kqpy-403">
          <mxGeometry relative="1" as="geometry">
            <mxPoint x="47.783251231527096" y="160.13793103448276" as="sourcePoint" />
            <mxPoint x="50.73891625615764" y="159.66133004926107" as="targetPoint" />
          </mxGeometry>
        </mxCell>
        <mxCell id="P5x_hELf_6X6-CJ0kqpy-379" style="edgeStyle=none;rounded=1;orthogonalLoop=1;jettySize=auto;html=1;fillColor=#ffe6cc;strokeColor=light-dark(#929292, #996500);curved=0;endArrow=none;startFill=0;opacity=60;dashed=1;" edge="1" parent="P5x_hELf_6X6-CJ0kqpy-408" source="P5x_hELf_6X6-CJ0kqpy-337" target="P5x_hELf_6X6-CJ0kqpy-343">
          <mxGeometry relative="1" as="geometry">
            <mxPoint x="155.02300450301277" y="15.726259319718963" as="sourcePoint" />
            <mxPoint x="148.02955665024632" y="43.513669950738894" as="targetPoint" />
          </mxGeometry>
        </mxCell>
        <mxCell id="P5x_hELf_6X6-CJ0kqpy-380" style="edgeStyle=none;rounded=1;orthogonalLoop=1;jettySize=auto;html=1;fillColor=#ffe6cc;strokeColor=light-dark(#929292, #996500);curved=0;endArrow=none;startFill=0;opacity=60;dashed=1;" edge="1" parent="P5x_hELf_6X6-CJ0kqpy-408" source="P5x_hELf_6X6-CJ0kqpy-347" target="P5x_hELf_6X6-CJ0kqpy-343">
          <mxGeometry relative="1" as="geometry">
            <mxPoint x="152.70935960591135" y="20.255541871921185" as="sourcePoint" />
            <mxPoint x="151.23152709359607" y="66.96243842364532" as="targetPoint" />
          </mxGeometry>
        </mxCell>
        <mxCell id="P5x_hELf_6X6-CJ0kqpy-381" style="edgeStyle=none;rounded=1;orthogonalLoop=1;jettySize=auto;html=1;fillColor=#ffe6cc;strokeColor=light-dark(#929292, #996500);curved=0;endArrow=none;startFill=0;opacity=60;dashed=1;" edge="1" parent="P5x_hELf_6X6-CJ0kqpy-408" source="P5x_hELf_6X6-CJ0kqpy-398" target="P5x_hELf_6X6-CJ0kqpy-343">
          <mxGeometry relative="1" as="geometry">
            <mxPoint x="191.6256157635468" y="86.97967980295567" as="sourcePoint" />
            <mxPoint x="154.67980295566505" y="71.72844827586208" as="targetPoint" />
          </mxGeometry>
        </mxCell>
        <mxCell id="P5x_hELf_6X6-CJ0kqpy-382" style="edgeStyle=none;rounded=1;orthogonalLoop=1;jettySize=auto;html=1;fillColor=#ffe6cc;strokeColor=light-dark(#929292, #996500);curved=0;endArrow=none;startFill=0;opacity=60;dashed=1;" edge="1" parent="P5x_hELf_6X6-CJ0kqpy-408" source="P5x_hELf_6X6-CJ0kqpy-401" target="P5x_hELf_6X6-CJ0kqpy-343">
          <mxGeometry relative="1" as="geometry">
            <mxPoint x="126.60098522167488" y="137.9759852216749" as="sourcePoint" />
            <mxPoint x="150.24630541871923" y="73.63485221674877" as="targetPoint" />
          </mxGeometry>
        </mxCell>
        <mxCell id="P5x_hELf_6X6-CJ0kqpy-383" style="edgeStyle=none;rounded=1;orthogonalLoop=1;jettySize=auto;html=1;fillColor=#ffe6cc;strokeColor=light-dark(#929292, #996500);curved=0;endArrow=none;startFill=0;opacity=60;dashed=1;" edge="1" parent="P5x_hELf_6X6-CJ0kqpy-408" source="P5x_hELf_6X6-CJ0kqpy-401" target="P5x_hELf_6X6-CJ0kqpy-398">
          <mxGeometry relative="1" as="geometry">
            <mxPoint x="87.68472906403942" y="143.69519704433498" as="sourcePoint" />
            <mxPoint x="148.76847290640396" y="73.1582512315271" as="targetPoint" />
          </mxGeometry>
        </mxCell>
        <mxCell id="P5x_hELf_6X6-CJ0kqpy-384" style="edgeStyle=none;rounded=1;orthogonalLoop=1;jettySize=auto;html=1;fillColor=#ffe6cc;strokeColor=light-dark(#929292, #996500);curved=0;endArrow=none;startFill=0;opacity=60;dashed=1;exitX=0;exitY=1;exitDx=0;exitDy=0;" edge="1" parent="P5x_hELf_6X6-CJ0kqpy-408" source="P5x_hELf_6X6-CJ0kqpy-347" target="P5x_hELf_6X6-CJ0kqpy-398">
          <mxGeometry relative="1" as="geometry">
            <mxPoint x="88.66995073891627" y="146.07820197044336" as="sourcePoint" />
            <mxPoint x="122.16748768472905" y="141.78879310344828" as="targetPoint" />
          </mxGeometry>
        </mxCell>
        <mxCell id="P5x_hELf_6X6-CJ0kqpy-385" style="edgeStyle=none;rounded=1;orthogonalLoop=1;jettySize=auto;html=1;fillColor=#ffe6cc;strokeColor=light-dark(#929292, #996500);curved=0;endArrow=none;startFill=0;opacity=60;dashed=1;" edge="1" parent="P5x_hELf_6X6-CJ0kqpy-408" source="P5x_hELf_6X6-CJ0kqpy-337" target="P5x_hELf_6X6-CJ0kqpy-347">
          <mxGeometry relative="1" as="geometry">
            <mxPoint x="192.61083743842366" y="90.79248768472907" as="sourcePoint" />
            <mxPoint x="128.57142857142858" y="138.92918719211823" as="targetPoint" />
          </mxGeometry>
        </mxCell>
        <mxCell id="P5x_hELf_6X6-CJ0kqpy-386" style="edgeStyle=none;rounded=1;orthogonalLoop=1;jettySize=auto;html=1;fillColor=#ffe6cc;strokeColor=light-dark(#929292, #996500);curved=0;endArrow=none;startFill=0;opacity=60;dashed=1;" edge="1" parent="P5x_hELf_6X6-CJ0kqpy-408" source="P5x_hELf_6X6-CJ0kqpy-337" target="P5x_hELf_6X6-CJ0kqpy-401">
          <mxGeometry relative="1" as="geometry">
            <mxPoint x="154.67980295566505" y="20.255541871921185" as="sourcePoint" />
            <mxPoint x="193.10344827586206" y="85.07327586206897" as="targetPoint" />
          </mxGeometry>
        </mxCell>
        <mxCell id="P5x_hELf_6X6-CJ0kqpy-387" style="edgeStyle=none;rounded=1;orthogonalLoop=1;jettySize=auto;html=1;fillColor=#ffe6cc;strokeColor=light-dark(#929292, #996500);curved=0;endArrow=none;startFill=0;opacity=60;dashed=1;" edge="1" parent="P5x_hELf_6X6-CJ0kqpy-408" source="P5x_hELf_6X6-CJ0kqpy-342" target="P5x_hELf_6X6-CJ0kqpy-394">
          <mxGeometry relative="1" as="geometry">
            <mxPoint x="151.23152709359607" y="20.255541871921185" as="sourcePoint" />
            <mxPoint x="86.69950738916256" y="143.2185960591133" as="targetPoint" />
          </mxGeometry>
        </mxCell>
        <mxCell id="P5x_hELf_6X6-CJ0kqpy-388" style="edgeStyle=none;rounded=1;orthogonalLoop=1;jettySize=auto;html=1;fillColor=#ffe6cc;strokeColor=light-dark(#929292, #996500);curved=0;endArrow=none;startFill=0;opacity=60;dashed=1;" edge="1" parent="P5x_hELf_6X6-CJ0kqpy-408" source="P5x_hELf_6X6-CJ0kqpy-342" target="P5x_hELf_6X6-CJ0kqpy-355">
          <mxGeometry relative="1" as="geometry">
            <mxPoint x="96.05911330049261" y="111.2863300492611" as="sourcePoint" />
            <mxPoint x="111.82266009852216" y="119.38854679802957" as="targetPoint" />
          </mxGeometry>
        </mxCell>
        <mxCell id="P5x_hELf_6X6-CJ0kqpy-389" style="edgeStyle=none;rounded=1;orthogonalLoop=1;jettySize=auto;html=1;fillColor=#ffe6cc;strokeColor=light-dark(#929292, #996500);curved=0;endArrow=none;startFill=0;opacity=60;dashed=1;" edge="1" parent="P5x_hELf_6X6-CJ0kqpy-408" source="P5x_hELf_6X6-CJ0kqpy-394" target="P5x_hELf_6X6-CJ0kqpy-398">
          <mxGeometry relative="1" as="geometry">
            <mxPoint x="95.56650246305419" y="112.23953201970444" as="sourcePoint" />
            <mxPoint x="123.15270935960591" y="138.92918719211823" as="targetPoint" />
          </mxGeometry>
        </mxCell>
        <mxCell id="P5x_hELf_6X6-CJ0kqpy-390" style="edgeStyle=none;rounded=1;orthogonalLoop=1;jettySize=auto;html=1;fillColor=#ffe6cc;strokeColor=light-dark(#929292, #996500);curved=0;endArrow=none;startFill=0;opacity=60;dashed=1;entryX=1;entryY=0;entryDx=0;entryDy=0;" edge="1" parent="P5x_hELf_6X6-CJ0kqpy-408" source="P5x_hELf_6X6-CJ0kqpy-394" target="P5x_hELf_6X6-CJ0kqpy-355">
          <mxGeometry relative="1" as="geometry">
            <mxPoint x="116.7487684729064" y="124.63115763546799" as="sourcePoint" />
            <mxPoint x="124.13793103448276" y="137.9759852216749" as="targetPoint" />
          </mxGeometry>
        </mxCell>
        <mxCell id="P5x_hELf_6X6-CJ0kqpy-391" style="edgeStyle=none;rounded=1;orthogonalLoop=1;jettySize=auto;html=1;fillColor=#ffe6cc;strokeColor=light-dark(#929292, #996500);curved=0;endArrow=none;startFill=0;opacity=60;dashed=1;exitX=0;exitY=0;exitDx=0;exitDy=0;" edge="1" parent="P5x_hELf_6X6-CJ0kqpy-408" source="P5x_hELf_6X6-CJ0kqpy-355" target="P5x_hELf_6X6-CJ0kqpy-404">
          <mxGeometry relative="1" as="geometry">
            <mxPoint x="113.30049261083744" y="124.15455665024633" as="sourcePoint" />
            <mxPoint x="75.36945812807882" y="180.39347290640396" as="targetPoint" />
          </mxGeometry>
        </mxCell>
        <mxCell id="P5x_hELf_6X6-CJ0kqpy-392" style="edgeStyle=none;rounded=1;orthogonalLoop=1;jettySize=auto;html=1;fillColor=#ffe6cc;strokeColor=light-dark(#929292, #996500);curved=0;endArrow=none;startFill=0;opacity=60;dashed=1;" edge="1" parent="P5x_hELf_6X6-CJ0kqpy-408" source="P5x_hELf_6X6-CJ0kqpy-342" target="P5x_hELf_6X6-CJ0kqpy-404">
          <mxGeometry relative="1" as="geometry">
            <mxPoint x="70.44334975369459" y="180.39347290640396" as="sourcePoint" />
            <mxPoint x="37.4384236453202" y="163.71243842364532" as="targetPoint" />
          </mxGeometry>
        </mxCell>
        <mxCell id="P5x_hELf_6X6-CJ0kqpy-393" style="edgeStyle=none;rounded=1;orthogonalLoop=1;jettySize=auto;html=1;fillColor=#ffe6cc;strokeColor=light-dark(#929292, #996500);curved=0;endArrow=none;startFill=0;opacity=60;dashed=1;" edge="1" parent="P5x_hELf_6X6-CJ0kqpy-408" source="P5x_hELf_6X6-CJ0kqpy-342" target="P5x_hELf_6X6-CJ0kqpy-350">
          <mxGeometry relative="1" as="geometry">
            <mxPoint x="90.14778325123153" y="112.23953201970444" as="sourcePoint" />
            <mxPoint x="36.94581280788177" y="159.89963054187194" as="targetPoint" />
          </mxGeometry>
        </mxCell>
        <mxCell id="P5x_hELf_6X6-CJ0kqpy-394" value="" style="ellipse;whiteSpace=wrap;html=1;aspect=fixed;fillColor=#f8cecc;strokeColor=#b85450;" vertex="1" parent="P5x_hELf_6X6-CJ0kqpy-408">
          <mxGeometry x="106.65024630541872" y="112.95443349753695" width="6.298691434647686" height="6.298691434647686" as="geometry" />
        </mxCell>
        <mxCell id="P5x_hELf_6X6-CJ0kqpy-395" style="edgeStyle=none;rounded=1;orthogonalLoop=1;jettySize=auto;html=1;fillColor=#ffe6cc;strokeColor=light-dark(#929292, #996500);curved=0;endArrow=none;startFill=0;opacity=60;dashed=1;entryX=1;entryY=0;entryDx=0;entryDy=0;exitX=0;exitY=1;exitDx=0;exitDy=0;" edge="1" parent="P5x_hELf_6X6-CJ0kqpy-408" source="P5x_hELf_6X6-CJ0kqpy-394" target="P5x_hELf_6X6-CJ0kqpy-404">
          <mxGeometry relative="1" as="geometry">
            <mxPoint x="96.05911330049261" y="111.2863300492611" as="sourcePoint" />
            <mxPoint x="145.8128078817734" y="137.02278325123152" as="targetPoint" />
          </mxGeometry>
        </mxCell>
        <mxCell id="P5x_hELf_6X6-CJ0kqpy-396" style="edgeStyle=none;rounded=1;orthogonalLoop=1;jettySize=auto;html=1;fillColor=#ffe6cc;strokeColor=light-dark(#929292, #996500);curved=0;endArrow=none;startFill=0;opacity=60;dashed=1;entryX=0.647;entryY=0.233;entryDx=0;entryDy=0;entryPerimeter=0;" edge="1" parent="P5x_hELf_6X6-CJ0kqpy-408" source="P5x_hELf_6X6-CJ0kqpy-350" target="P5x_hELf_6X6-CJ0kqpy-404">
          <mxGeometry relative="1" as="geometry">
            <mxPoint x="112.80788177339902" y="123.67795566502463" as="sourcePoint" />
            <mxPoint x="36.45320197044335" y="159.89963054187194" as="targetPoint" />
          </mxGeometry>
        </mxCell>
        <mxCell id="P5x_hELf_6X6-CJ0kqpy-397" style="edgeStyle=none;rounded=1;orthogonalLoop=1;jettySize=auto;html=1;fillColor=#ffe6cc;strokeColor=light-dark(#929292, #996500);curved=0;endArrow=none;startFill=0;opacity=60;dashed=1;" edge="1" parent="P5x_hELf_6X6-CJ0kqpy-408" source="P5x_hELf_6X6-CJ0kqpy-337">
          <mxGeometry relative="1" as="geometry">
            <mxPoint x="154.67980295566505" y="20.255541871921185" as="sourcePoint" />
            <mxPoint x="120.68965517241378" y="137.9759852216749" as="targetPoint" />
          </mxGeometry>
        </mxCell>
        <mxCell id="P5x_hELf_6X6-CJ0kqpy-398" value="" style="ellipse;whiteSpace=wrap;html=1;aspect=fixed;fillColor=#d5e8d4;strokeColor=#82b366;" vertex="1" parent="P5x_hELf_6X6-CJ0kqpy-408">
          <mxGeometry x="116.99507389162561" y="132.9716748768473" width="6.298691434647686" height="6.298691434647686" as="geometry" />
        </mxCell>
        <mxCell id="P5x_hELf_6X6-CJ0kqpy-399" value="" style="ellipse;whiteSpace=wrap;html=1;aspect=fixed;fillColor=#dae8fc;strokeColor=#6c8ebf;" vertex="1" parent="P5x_hELf_6X6-CJ0kqpy-408">
          <mxGeometry x="64.77832512315271" y="143.45689655172416" width="6.298691434647686" height="6.298691434647686" as="geometry" />
        </mxCell>
        <mxCell id="P5x_hELf_6X6-CJ0kqpy-400" value="" style="ellipse;whiteSpace=wrap;html=1;aspect=fixed;fillColor=#dae8fc;strokeColor=#6c8ebf;" vertex="1" parent="P5x_hELf_6X6-CJ0kqpy-408">
          <mxGeometry x="55.41871921182266" y="147.7463054187192" width="6.298691434647686" height="6.298691434647686" as="geometry" />
        </mxCell>
        <mxCell id="P5x_hELf_6X6-CJ0kqpy-401" value="" style="ellipse;whiteSpace=wrap;html=1;aspect=fixed;fillColor=#dae8fc;strokeColor=#6c8ebf;" vertex="1" parent="P5x_hELf_6X6-CJ0kqpy-408">
          <mxGeometry x="76.60098522167489" y="138.21428571428572" width="6.298691434647686" height="6.298691434647686" as="geometry" />
        </mxCell>
        <mxCell id="P5x_hELf_6X6-CJ0kqpy-402" value="" style="ellipse;whiteSpace=wrap;html=1;aspect=fixed;fillColor=#dae8fc;strokeColor=#6c8ebf;" vertex="1" parent="P5x_hELf_6X6-CJ0kqpy-408">
          <mxGeometry x="45.566502463054185" y="150.60591133004925" width="6.298691434647686" height="6.298691434647686" as="geometry" />
        </mxCell>
        <mxCell id="P5x_hELf_6X6-CJ0kqpy-403" value="" style="ellipse;whiteSpace=wrap;html=1;aspect=fixed;fillColor=#dae8fc;strokeColor=#6c8ebf;" vertex="1" parent="P5x_hELf_6X6-CJ0kqpy-408">
          <mxGeometry x="35.714285714285715" y="152.51231527093597" width="6.298691434647686" height="6.298691434647686" as="geometry" />
        </mxCell>
        <mxCell id="P5x_hELf_6X6-CJ0kqpy-404" value="" style="ellipse;whiteSpace=wrap;html=1;aspect=fixed;fillColor=#dae8fc;strokeColor=#6c8ebf;" vertex="1" parent="P5x_hELf_6X6-CJ0kqpy-408">
          <mxGeometry x="25.36945812807882" y="153.942118226601" width="6.298691434647686" height="6.298691434647686" as="geometry" />
        </mxCell>
        <mxCell id="P5x_hELf_6X6-CJ0kqpy-405" value="" style="ellipse;whiteSpace=wrap;html=1;aspect=fixed;fillColor=#f8cecc;strokeColor=#b85450;" vertex="1" parent="P5x_hELf_6X6-CJ0kqpy-408">
          <mxGeometry x="134.72906403940888" y="75.77955665024632" width="6.298691434647686" height="6.298691434647686" as="geometry" />
        </mxCell>
        <mxCell id="P5x_hELf_6X6-CJ0kqpy-406" value="" style="ellipse;whiteSpace=wrap;html=1;aspect=fixed;fillColor=#f8cecc;strokeColor=#b85450;" vertex="1" parent="P5x_hELf_6X6-CJ0kqpy-408">
          <mxGeometry x="126.84729064039408" y="88.64778325123153" width="6.298691434647686" height="6.298691434647686" as="geometry" />
        </mxCell>
        <mxCell id="P5x_hELf_6X6-CJ0kqpy-407" value="" style="ellipse;whiteSpace=wrap;html=1;aspect=fixed;fillColor=#e1d5e7;strokeColor=#9673a6;" vertex="1" parent="P5x_hELf_6X6-CJ0kqpy-408">
          <mxGeometry x="178.57142857142858" y="89.60098522167489" width="6.298691434647686" height="6.298691434647686" as="geometry" />
        </mxCell>
        <mxCell id="P5x_hELf_6X6-CJ0kqpy-447" value="&lt;span style=&quot;white-space: pre-wrap; caret-color: rgba(0, 0, 0, 0.87); color: rgba(0, 0, 0, 0.87); font-family: &amp;quot;Helvetica Neue&amp;quot;, &amp;quot;Segoe UI&amp;quot;, Helvetica, Arial, sans-serif; text-align: left;&quot;&gt;&lt;font style=&quot;font-size: 10px;&quot;&gt;Spatial Edges&lt;/font&gt;&lt;/span&gt;" style="rounded=1;whiteSpace=wrap;html=1;strokeColor=none;fillColor=none;" vertex="1" parent="P5x_hELf_6X6-CJ0kqpy-408">
          <mxGeometry x="25.879999999999995" y="7.275599999999983" width="90" height="23.22" as="geometry" />
        </mxCell>
        <mxCell id="P5x_hELf_6X6-CJ0kqpy-411" value="" style="html=1;shadow=0;dashed=0;align=center;verticalAlign=middle;shape=mxgraph.arrows2.arrow;dy=0;dx=16.88;notch=0;rotation=125;fillColor=#ffe6cc;strokeColor=#d79b00;opacity=60;container=0;" vertex="1" parent="1">
          <mxGeometry x="-24.054187192118235" y="619.8522167487685" width="19.704433497536947" height="9.852216748768473" as="geometry" />
        </mxCell>
        <mxCell id="P5x_hELf_6X6-CJ0kqpy-412" value="" style="html=1;shadow=0;dashed=0;align=center;verticalAlign=middle;shape=mxgraph.arrows2.arrow;dy=0;dx=16.88;notch=0;rotation=125;fillColor=#ffe6cc;strokeColor=#d79b00;opacity=60;container=0;" vertex="1" parent="1">
          <mxGeometry x="-39.81773399014779" y="642.5123152709359" width="19.704433497536947" height="9.852216748768473" as="geometry" />
        </mxCell>
        <mxCell id="P5x_hELf_6X6-CJ0kqpy-413" value="" style="html=1;shadow=0;dashed=0;align=center;verticalAlign=middle;shape=mxgraph.arrows2.arrow;dy=0;dx=16.88;notch=0;rotation=128;fillColor=#ffe6cc;strokeColor=#d79b00;opacity=60;container=0;" vertex="1" parent="1">
          <mxGeometry x="-55.08866995073892" y="662.2167487684729" width="19.704433497536947" height="9.852216748768473" as="geometry" />
        </mxCell>
        <mxCell id="P5x_hELf_6X6-CJ0kqpy-414" value="" style="html=1;shadow=0;dashed=0;align=center;verticalAlign=middle;shape=mxgraph.arrows2.arrow;dy=0;dx=16.88;notch=0;rotation=133;fillColor=#ffe6cc;strokeColor=#d79b00;opacity=60;container=0;" vertex="1" parent="1">
          <mxGeometry x="-68.38916256157636" y="679.4581280788177" width="19.704433497536947" height="9.852216748768473" as="geometry" />
        </mxCell>
        <mxCell id="P5x_hELf_6X6-CJ0kqpy-415" value="" style="html=1;shadow=0;dashed=0;align=center;verticalAlign=middle;shape=mxgraph.arrows2.arrow;dy=0;dx=16.88;notch=0;rotation=113;fillColor=#ffe6cc;strokeColor=#d79b00;opacity=60;container=0;" vertex="1" parent="1">
          <mxGeometry x="-78.24137931034483" y="696.6995073891626" width="19.704433497536947" height="9.852216748768473" as="geometry" />
        </mxCell>
        <mxCell id="P5x_hELf_6X6-CJ0kqpy-416" value="" style="html=1;shadow=0;dashed=0;align=center;verticalAlign=middle;shape=mxgraph.arrows2.arrow;dy=0;dx=31.09;notch=5.33;rotation=-90;fillColor=#4D4D4D;strokeColor=none;container=0;" vertex="1" parent="1">
          <mxGeometry x="-149.23" y="630.85" width="16.49" height="11.44" as="geometry" />
        </mxCell>
        <mxCell id="P5x_hELf_6X6-CJ0kqpy-417" value="N" style="rounded=1;whiteSpace=wrap;html=1;strokeColor=none;fillColor=none;container=0;" vertex="1" parent="1">
          <mxGeometry x="-145.69950738916256" y="615.9556650246305" width="9.852216748768473" height="9.852216748768473" as="geometry" />
        </mxCell>
        <mxCell id="P5x_hELf_6X6-CJ0kqpy-418" value="" style="html=1;shadow=0;dashed=0;align=center;verticalAlign=middle;shape=mxgraph.arrows2.arrow;dy=0;dx=16.88;notch=0;rotation=-210;opacity=60;fillColor=#e1d5e7;strokeColor=#9673a6;container=0;" vertex="1" parent="1">
          <mxGeometry x="-27.995073891625623" y="743.9901477832512" width="19.704433497536947" height="9.852216748768473" as="geometry" />
        </mxCell>
        <mxCell id="P5x_hELf_6X6-CJ0kqpy-419" value="" style="html=1;shadow=0;dashed=0;align=center;verticalAlign=middle;shape=mxgraph.arrows2.arrow;dy=0;dx=16.88;notch=0;rotation=136;opacity=60;fillColor=#e1d5e7;strokeColor=#9673a6;container=0;" vertex="1" parent="1">
          <mxGeometry x="18.31034482758622" y="692.7586206896551" width="19.704433497536947" height="9.852216748768473" as="geometry" />
        </mxCell>
        <mxCell id="P5x_hELf_6X6-CJ0kqpy-420" value="" style="html=1;shadow=0;dashed=0;align=center;verticalAlign=middle;shape=mxgraph.arrows2.arrow;dy=0;dx=16.88;notch=0;rotation=120;opacity=60;fillColor=#e1d5e7;strokeColor=#9673a6;container=0;" vertex="1" parent="1">
          <mxGeometry x="10.92118226600985" y="702.6108374384237" width="19.704433497536947" height="9.852216748768473" as="geometry" />
        </mxCell>
        <mxCell id="P5x_hELf_6X6-CJ0kqpy-421" value="" style="html=1;shadow=0;dashed=0;align=center;verticalAlign=middle;shape=mxgraph.arrows2.arrow;dy=0;dx=16.88;notch=0;rotation=120;opacity=60;fillColor=#e1d5e7;strokeColor=#9673a6;container=0;" vertex="1" parent="1">
          <mxGeometry x="3.532019704433509" y="715.4187192118227" width="19.704433497536947" height="9.852216748768473" as="geometry" />
        </mxCell>
        <mxCell id="P5x_hELf_6X6-CJ0kqpy-422" value="" style="html=1;shadow=0;dashed=0;align=center;verticalAlign=middle;shape=mxgraph.arrows2.arrow;dy=0;dx=16.88;notch=0;rotation=-225;opacity=60;fillColor=#e1d5e7;strokeColor=#9673a6;container=0;" vertex="1" parent="1">
          <mxGeometry x="-5.827586206896541" y="724.5320197044335" width="19.704433497536947" height="9.852216748768473" as="geometry" />
        </mxCell>
        <mxCell id="P5x_hELf_6X6-CJ0kqpy-423" value="" style="html=1;shadow=0;dashed=0;align=center;verticalAlign=middle;shape=mxgraph.arrows2.arrow;dy=0;dx=16.88;notch=0;rotation=120;opacity=60;fillColor=#d5e8d4;strokeColor=#82b366;container=0;" vertex="1" parent="1">
          <mxGeometry x="-51.14778325123153" y="747.9310344827586" width="19.704433497536947" height="9.852216748768473" as="geometry" />
        </mxCell>
        <mxCell id="P5x_hELf_6X6-CJ0kqpy-424" value="" style="html=1;shadow=0;dashed=0;align=center;verticalAlign=middle;shape=mxgraph.arrows2.arrow;dy=0;dx=16.88;notch=0;rotation=139;opacity=60;fillColor=#d5e8d4;strokeColor=#82b366;container=0;" vertex="1" parent="1">
          <mxGeometry x="-72.33004926108374" y="771.576354679803" width="19.704433497536947" height="9.852216748768473" as="geometry" />
        </mxCell>
        <mxCell id="P5x_hELf_6X6-CJ0kqpy-425" value="" style="html=1;shadow=0;dashed=0;align=center;verticalAlign=middle;shape=mxgraph.arrows2.arrow;dy=0;dx=16.88;notch=0;rotation=130;opacity=60;fillColor=#d5e8d4;strokeColor=#82b366;container=0;" vertex="1" parent="1">
          <mxGeometry x="-62.970443349753694" y="761.7241379310344" width="19.704433497536947" height="9.852216748768473" as="geometry" />
        </mxCell>
        <mxCell id="P5x_hELf_6X6-CJ0kqpy-426" value="" style="html=1;shadow=0;dashed=0;align=center;verticalAlign=middle;shape=mxgraph.arrows2.arrow;dy=0;dx=16.88;notch=0;rotation=145;opacity=60;fillColor=#d5e8d4;strokeColor=#82b366;container=0;" vertex="1" parent="1">
          <mxGeometry x="-82.67487684729063" y="780.935960591133" width="19.704433497536947" height="9.852216748768473" as="geometry" />
        </mxCell>
        <mxCell id="P5x_hELf_6X6-CJ0kqpy-427" value="" style="html=1;shadow=0;dashed=0;align=center;verticalAlign=middle;shape=mxgraph.arrows2.arrow;dy=0;dx=16.88;notch=0;rotation=160;opacity=60;fillColor=#d5e8d4;strokeColor=#82b366;container=0;" vertex="1" parent="1">
          <mxGeometry x="-94.00492610837438" y="785.8620689655172" width="19.704433497536947" height="9.852216748768473" as="geometry" />
        </mxCell>
        <mxCell id="P5x_hELf_6X6-CJ0kqpy-428" value="" style="html=1;shadow=0;dashed=0;align=center;verticalAlign=middle;shape=mxgraph.arrows2.arrow;dy=0;dx=16.88;notch=0;rotation=135;opacity=60;fillColor=#dae8fc;strokeColor=#6c8ebf;container=0;" vertex="1" parent="1">
          <mxGeometry x="-94.00492610837438" y="754.3349753694581" width="19.704433497536947" height="9.852216748768473" as="geometry" />
        </mxCell>
        <mxCell id="P5x_hELf_6X6-CJ0kqpy-429" value="" style="html=1;shadow=0;dashed=0;align=center;verticalAlign=middle;shape=mxgraph.arrows2.arrow;dy=0;dx=16.88;notch=0;rotation=155;opacity=60;fillColor=#dae8fc;strokeColor=#6c8ebf;container=0;" vertex="1" parent="1">
          <mxGeometry x="-104.34975369458128" y="757.7832512315271" width="19.704433497536947" height="9.852216748768473" as="geometry" />
        </mxCell>
        <mxCell id="P5x_hELf_6X6-CJ0kqpy-430" value="" style="html=1;shadow=0;dashed=0;align=center;verticalAlign=middle;shape=mxgraph.arrows2.arrow;dy=0;dx=16.88;notch=0;rotation=161;opacity=60;fillColor=#dae8fc;strokeColor=#6c8ebf;container=0;" vertex="1" parent="1">
          <mxGeometry x="-112.72413793103448" y="761.7241379310344" width="19.704433497536947" height="9.852216748768473" as="geometry" />
        </mxCell>
        <mxCell id="P5x_hELf_6X6-CJ0kqpy-431" value="" style="html=1;shadow=0;dashed=0;align=center;verticalAlign=middle;shape=mxgraph.arrows2.arrow;dy=0;dx=16.88;notch=0;rotation=168;opacity=60;fillColor=#dae8fc;strokeColor=#6c8ebf;container=0;" vertex="1" parent="1">
          <mxGeometry x="-123.5615763546798" y="764.6798029556651" width="19.704433497536947" height="9.852216748768473" as="geometry" />
        </mxCell>
        <mxCell id="P5x_hELf_6X6-CJ0kqpy-432" value="" style="html=1;shadow=0;dashed=0;align=center;verticalAlign=middle;shape=mxgraph.arrows2.arrow;dy=0;dx=16.88;notch=0;rotation=169;opacity=60;fillColor=#d5e8d4;strokeColor=#82b366;container=0;" vertex="1" parent="1">
          <mxGeometry x="-104.8423645320197" y="789.3103448275862" width="19.704433497536947" height="9.852216748768473" as="geometry" />
        </mxCell>
        <mxCell id="P5x_hELf_6X6-CJ0kqpy-433" value="" style="html=1;shadow=0;dashed=0;align=center;verticalAlign=middle;shape=mxgraph.arrows2.arrow;dy=0;dx=16.88;notch=0;rotation=-180;opacity=60;fillColor=#dae8fc;strokeColor=#6c8ebf;container=0;" vertex="1" parent="1">
          <mxGeometry x="-132.92118226600985" y="766.1576354679803" width="19.704433497536947" height="9.852216748768473" as="geometry" />
        </mxCell>
        <mxCell id="P5x_hELf_6X6-CJ0kqpy-434" value="" style="html=1;shadow=0;dashed=0;align=center;verticalAlign=middle;shape=mxgraph.arrows2.arrow;dy=0;dx=16.88;notch=0;rotation=-180;opacity=60;fillColor=#dae8fc;strokeColor=#6c8ebf;container=0;" vertex="1" parent="1">
          <mxGeometry x="-142.77339901477833" y="768.1280788177339" width="19.704433497536947" height="9.852216748768473" as="geometry" />
        </mxCell>
        <mxCell id="P5x_hELf_6X6-CJ0kqpy-435" value="" style="html=1;shadow=0;dashed=0;align=center;verticalAlign=middle;shape=mxgraph.arrows2.arrow;dy=0;dx=16.88;notch=0;rotation=113;opacity=60;fillColor=#f8cecc;strokeColor=#b85450;container=0;" vertex="1" parent="1">
          <mxGeometry x="-25.039408866995075" y="674.5320197044335" width="19.704433497536947" height="9.852216748768473" as="geometry" />
        </mxCell>
        <mxCell id="P5x_hELf_6X6-CJ0kqpy-436" value="" style="html=1;shadow=0;dashed=0;align=center;verticalAlign=middle;shape=mxgraph.arrows2.arrow;dy=0;dx=16.88;notch=0;rotation=118;opacity=60;fillColor=#f8cecc;strokeColor=#b85450;container=0;" vertex="1" parent="1">
          <mxGeometry x="-32.92118226600985" y="688.3251231527094" width="19.704433497536947" height="9.852216748768473" as="geometry" />
        </mxCell>
        <mxCell id="P5x_hELf_6X6-CJ0kqpy-437" value="" style="html=1;shadow=0;dashed=0;align=center;verticalAlign=middle;shape=mxgraph.arrows2.arrow;dy=0;dx=16.88;notch=0;rotation=120;opacity=60;fillColor=#f8cecc;strokeColor=#b85450;container=0;" vertex="1" parent="1">
          <mxGeometry x="-41.295566502463046" y="701.6256157635468" width="19.704433497536947" height="9.852216748768473" as="geometry" />
        </mxCell>
        <mxCell id="P5x_hELf_6X6-CJ0kqpy-438" value="" style="html=1;shadow=0;dashed=0;align=center;verticalAlign=middle;shape=mxgraph.arrows2.arrow;dy=0;dx=16.88;notch=0;rotation=120;opacity=60;fillColor=#f8cecc;strokeColor=#b85450;container=0;" vertex="1" parent="1">
          <mxGeometry x="-47.20689655172414" y="709.0147783251232" width="19.704433497536947" height="9.852216748768473" as="geometry" />
        </mxCell>
        <mxCell id="P5x_hELf_6X6-CJ0kqpy-439" value="" style="html=1;shadow=0;dashed=0;align=center;verticalAlign=middle;shape=mxgraph.arrows2.arrow;dy=0;dx=16.88;notch=0;rotation=120;opacity=60;fillColor=#f8cecc;strokeColor=#b85450;container=0;" vertex="1" parent="1">
          <mxGeometry x="-55.08866995073892" y="716.4039408866995" width="19.704433497536947" height="9.852216748768473" as="geometry" />
        </mxCell>
        <mxCell id="P5x_hELf_6X6-CJ0kqpy-440" value="" style="html=1;shadow=0;dashed=0;align=center;verticalAlign=middle;shape=mxgraph.arrows2.arrow;dy=0;dx=16.88;notch=0;rotation=120;fillColor=#ffe6cc;strokeColor=#d79b00;opacity=60;container=0;" vertex="1" parent="1">
          <mxGeometry x="-83.66009852216749" y="713.9408866995074" width="19.704433497536947" height="9.852216748768473" as="geometry" />
        </mxCell>
        <mxCell id="P5x_hELf_6X6-CJ0kqpy-441" value="" style="html=1;shadow=0;dashed=0;align=center;verticalAlign=middle;shape=mxgraph.arrows2.arrow;dy=0;dx=16.88;notch=0;rotation=-230;opacity=60;fillColor=#e1d5e7;strokeColor=#9673a6;container=0;" vertex="1" parent="1">
          <mxGeometry x="-16.665024630541865" y="735.615763546798" width="19.704433497536947" height="9.852216748768473" as="geometry" />
        </mxCell>
        <mxCell id="P5x_hELf_6X6-CJ0kqpy-442" value="" style="html=1;shadow=0;dashed=0;align=center;verticalAlign=middle;shape=mxgraph.arrows2.arrow;dy=0;dx=16.88;notch=0;rotation=-225;opacity=60;fillColor=#f8cecc;strokeColor=#b85450;container=0;" vertex="1" parent="1">
          <mxGeometry x="-61" y="726.256157635468" width="19.704433497536947" height="9.852216748768473" as="geometry" />
        </mxCell>
        <mxCell id="P5x_hELf_6X6-CJ0kqpy-444" value="&lt;span style=&quot;white-space: pre-wrap; caret-color: rgba(0, 0, 0, 0.87); color: rgba(0, 0, 0, 0.87); font-family: &amp;quot;Helvetica Neue&amp;quot;, &amp;quot;Segoe UI&amp;quot;, Helvetica, Arial, sans-serif; text-align: left;&quot;&gt;&lt;font style=&quot;font-size: 12px;&quot;&gt;Multi-vessel Trajectory&lt;/font&gt;&lt;/span&gt;" style="rounded=1;whiteSpace=wrap;html=1;strokeColor=none;fillColor=none;" vertex="1" parent="1">
          <mxGeometry x="-149.23000000000005" y="583" width="160" height="30" as="geometry" />
        </mxCell>
        <mxCell id="P5x_hELf_6X6-CJ0kqpy-445" value="&lt;span style=&quot;white-space: pre-wrap; caret-color: rgba(0, 0, 0, 0.87); color: rgba(0, 0, 0, 0.87); font-family: &amp;quot;Helvetica Neue&amp;quot;, &amp;quot;Segoe UI&amp;quot;, Helvetica, Arial, sans-serif; text-align: left;&quot;&gt;&lt;font style=&quot;font-size: 12px;&quot;&gt;Temporal- Spatial Graph&lt;/font&gt;&lt;/span&gt;" style="rounded=1;whiteSpace=wrap;html=1;strokeColor=none;fillColor=none;" vertex="1" parent="1">
          <mxGeometry x="69.35999999999997" y="583" width="160" height="30" as="geometry" />
        </mxCell>
        <mxCell id="P5x_hELf_6X6-CJ0kqpy-449" style="edgeStyle=none;rounded=1;orthogonalLoop=1;jettySize=auto;html=1;fillColor=#f8cecc;strokeColor=#b85450;curved=0;endArrow=none;startFill=0;" edge="1" parent="1">
          <mxGeometry relative="1" as="geometry">
            <mxPoint x="63" y="643" as="sourcePoint" />
            <mxPoint x="83" y="643" as="targetPoint" />
          </mxGeometry>
        </mxCell>
        <mxCell id="P5x_hELf_6X6-CJ0kqpy-450" style="edgeStyle=none;rounded=1;orthogonalLoop=1;jettySize=auto;html=1;fillColor=#ffe6cc;strokeColor=light-dark(#929292, #996500);curved=0;endArrow=none;startFill=0;dashed=1;" edge="1" parent="1">
          <mxGeometry relative="1" as="geometry">
            <mxPoint x="63" y="627" as="sourcePoint" />
            <mxPoint x="83" y="627" as="targetPoint" />
          </mxGeometry>
        </mxCell>
        <mxCell id="P5x_hELf_6X6-CJ0kqpy-451" value="&lt;span style=&quot;white-space: pre-wrap; caret-color: rgba(0, 0, 0, 0.87); color: rgba(0, 0, 0, 0.87); font-family: &amp;quot;Helvetica Neue&amp;quot;, &amp;quot;Segoe UI&amp;quot;, Helvetica, Arial, sans-serif; text-align: left;&quot;&gt;&lt;font style=&quot;font-size: 10px;&quot;&gt;Temporal Edges&lt;/font&gt;&lt;/span&gt;" style="rounded=1;whiteSpace=wrap;html=1;strokeColor=none;fillColor=none;" vertex="1" parent="1">
          <mxGeometry x="82.38" y="634.02" width="90" height="24" as="geometry" />
        </mxCell>
        <mxCell id="P5x_hELf_6X6-CJ0kqpy-452" style="edgeStyle=none;rounded=1;orthogonalLoop=1;jettySize=auto;html=1;fillColor=#e1d5e7;strokeColor=#9673a6;curved=0;endArrow=none;startFill=0;" edge="1" parent="1">
          <mxGeometry relative="1" as="geometry">
            <mxPoint x="63" y="647" as="sourcePoint" />
            <mxPoint x="83" y="647" as="targetPoint" />
          </mxGeometry>
        </mxCell>
        <mxCell id="P5x_hELf_6X6-CJ0kqpy-453" style="edgeStyle=none;rounded=1;orthogonalLoop=1;jettySize=auto;html=1;fillColor=#dae8fc;strokeColor=#6c8ebf;curved=0;endArrow=none;startFill=0;" edge="1" parent="1">
          <mxGeometry relative="1" as="geometry">
            <mxPoint x="63" y="639" as="sourcePoint" />
            <mxPoint x="83" y="639" as="targetPoint" />
          </mxGeometry>
        </mxCell>
        <mxCell id="P5x_hELf_6X6-CJ0kqpy-454" style="edgeStyle=none;rounded=1;orthogonalLoop=1;jettySize=auto;html=1;fillColor=#ffe6cc;strokeColor=#d79b00;curved=0;endArrow=none;startFill=0;" edge="1" parent="1">
          <mxGeometry relative="1" as="geometry">
            <mxPoint x="63" y="651" as="sourcePoint" />
            <mxPoint x="83" y="651" as="targetPoint" />
          </mxGeometry>
        </mxCell>
        <mxCell id="P5x_hELf_6X6-CJ0kqpy-455" style="edgeStyle=none;rounded=1;orthogonalLoop=1;jettySize=auto;html=1;fillColor=#d5e8d4;strokeColor=#82b366;curved=0;endArrow=none;startFill=0;" edge="1" parent="1">
          <mxGeometry relative="1" as="geometry">
            <mxPoint x="63" y="655" as="sourcePoint" />
            <mxPoint x="83" y="655" as="targetPoint" />
          </mxGeometry>
        </mxCell>
        <mxCell id="P5x_hELf_6X6-CJ0kqpy-537" value="&lt;font style=&quot;font-size: 10px;&quot;&gt;&lt;font&gt;&amp;nbsp;Temporal &lt;/font&gt;Expansion&lt;/font&gt;" style="rounded=1;whiteSpace=wrap;html=1;strokeColor=none;fillColor=none;align=left;" vertex="1" parent="1">
          <mxGeometry x="26" y="794" width="114.31" height="30" as="geometry" />
        </mxCell>
        <mxCell id="P5x_hELf_6X6-CJ0kqpy-538" value="&lt;font style=&quot;font-size: 10px;&quot;&gt;&lt;span style=&quot;white-space: pre-wrap; caret-color: rgba(0, 0, 0, 0.87); color: rgba(0, 0, 0, 0.87); font-family: &amp;quot;Helvetica Neue&amp;quot;, &amp;quot;Segoe UI&amp;quot;, Helvetica, Arial, sans-serif;&quot;&gt;&lt;font&gt;Dimension&lt;/font&gt;&lt;/span&gt;&lt;span style=&quot;caret-color: rgba(0, 0, 0, 0.87); color: rgba(0, 0, 0, 0.87); font-family: &amp;quot;Helvetica Neue&amp;quot;, &amp;quot;Segoe UI&amp;quot;, Helvetica, Arial, sans-serif; white-space: pre-wrap;&quot;&gt;Reduction&lt;/span&gt;&lt;/font&gt;" style="rounded=1;whiteSpace=wrap;html=1;strokeColor=none;fillColor=none;align=left;" vertex="1" parent="1">
          <mxGeometry x="152.76" y="793.5" width="93.31" height="30" as="geometry" />
        </mxCell>
        <mxCell id="P5x_hELf_6X6-CJ0kqpy-542" value="" style="endArrow=classic;html=1;rounded=0;" edge="1" parent="1">
          <mxGeometry width="50" height="50" relative="1" as="geometry">
            <mxPoint x="30" y="710" as="sourcePoint" />
            <mxPoint x="70" y="710" as="targetPoint" />
          </mxGeometry>
        </mxCell>
        <mxCell id="P5x_hELf_6X6-CJ0kqpy-546" value="" style="group" vertex="1" connectable="0" parent="1">
          <mxGeometry x="226.35" y="625" width="253.65" height="267" as="geometry" />
        </mxCell>
        <mxCell id="P5x_hELf_6X6-CJ0kqpy-518" value="" style="whiteSpace=wrap;html=1;fillColor=#d5e8d4;strokeColor=#82b366;opacity=60;" vertex="1" parent="P5x_hELf_6X6-CJ0kqpy-546">
          <mxGeometry x="30" y="2.22" width="208.65" height="264.78" as="geometry" />
        </mxCell>
        <mxCell id="P5x_hELf_6X6-CJ0kqpy-519" value="" style="endArrow=classic;html=1;rounded=0;entryX=0.5;entryY=0;entryDx=0;entryDy=0;edgeStyle=orthogonalEdgeStyle;exitX=0.97;exitY=0.015;exitDx=0;exitDy=0;exitPerimeter=0;endSize=4;" edge="1" parent="P5x_hELf_6X6-CJ0kqpy-546" target="P5x_hELf_6X6-CJ0kqpy-526">
          <mxGeometry width="50" height="50" relative="1" as="geometry">
            <mxPoint x="16.44999999999996" y="-3.75" as="sourcePoint" />
            <mxPoint x="126.94852398524009" y="15.24812870835251" as="targetPoint" />
            <Array as="points">
              <mxPoint x="132" y="-4" />
            </Array>
          </mxGeometry>
        </mxCell>
        <mxCell id="P5x_hELf_6X6-CJ0kqpy-521" value="" style="endArrow=classic;html=1;rounded=0;edgeStyle=elbowEdgeStyle;endSize=4;" edge="1" parent="P5x_hELf_6X6-CJ0kqpy-546">
          <mxGeometry width="50" height="50" relative="1" as="geometry">
            <mxPoint x="133.46070110701106" y="7.845002282062989" as="sourcePoint" />
            <mxPoint x="133.65" y="48" as="targetPoint" />
            <Array as="points">
              <mxPoint x="220" y="30" />
            </Array>
          </mxGeometry>
        </mxCell>
        <mxCell id="P5x_hELf_6X6-CJ0kqpy-522" value="" style="edgeStyle=none;rounded=0;orthogonalLoop=1;jettySize=auto;html=1;entryX=0.5;entryY=0;entryDx=0;entryDy=0;endSize=4;" edge="1" parent="P5x_hELf_6X6-CJ0kqpy-546" source="P5x_hELf_6X6-CJ0kqpy-523" target="P5x_hELf_6X6-CJ0kqpy-530">
          <mxGeometry relative="1" as="geometry">
            <mxPoint x="136.47370619987197" y="176.19440894568692" as="targetPoint" />
          </mxGeometry>
        </mxCell>
        <mxCell id="P5x_hELf_6X6-CJ0kqpy-523" value="&lt;font style=&quot;font-size: 11px;&quot;&gt;Self-Attention&lt;/font&gt;" style="rounded=1;whiteSpace=wrap;html=1;" vertex="1" parent="P5x_hELf_6X6-CJ0kqpy-546">
          <mxGeometry x="57.070295202952025" y="107.0584550433592" width="149.75645756457567" height="22.2093792788681" as="geometry" />
        </mxCell>
        <mxCell id="P5x_hELf_6X6-CJ0kqpy-525" style="edgeStyle=none;rounded=0;orthogonalLoop=1;jettySize=auto;html=1;exitX=0.5;exitY=1;exitDx=0;exitDy=0;entryX=0.5;entryY=0;entryDx=0;entryDy=0;endSize=4;" edge="1" parent="P5x_hELf_6X6-CJ0kqpy-546" source="P5x_hELf_6X6-CJ0kqpy-526" target="P5x_hELf_6X6-CJ0kqpy-528">
          <mxGeometry relative="1" as="geometry" />
        </mxCell>
        <mxCell id="P5x_hELf_6X6-CJ0kqpy-526" value="&lt;font style=&quot;font-size: 11px;&quot;&gt;GCNConv&lt;/font&gt;" style="rounded=1;whiteSpace=wrap;html=1;" vertex="1" parent="P5x_hELf_6X6-CJ0kqpy-546">
          <mxGeometry x="57.070295202952025" y="19.248128708352354" width="149.75645756457567" height="22.2093792788681" as="geometry" />
        </mxCell>
        <mxCell id="P5x_hELf_6X6-CJ0kqpy-527" style="edgeStyle=none;rounded=0;orthogonalLoop=1;jettySize=auto;html=1;exitX=0.5;exitY=1;exitDx=0;exitDy=0;entryX=0.5;entryY=0;entryDx=0;entryDy=0;endSize=4;" edge="1" parent="P5x_hELf_6X6-CJ0kqpy-546" source="P5x_hELf_6X6-CJ0kqpy-528" target="P5x_hELf_6X6-CJ0kqpy-523">
          <mxGeometry relative="1" as="geometry" />
        </mxCell>
        <mxCell id="P5x_hELf_6X6-CJ0kqpy-528" value="&lt;font style=&quot;font-size: 11px;&quot;&gt;LayerNorm&lt;/font&gt;" style="rounded=1;whiteSpace=wrap;html=1;" vertex="1" parent="P5x_hELf_6X6-CJ0kqpy-546">
          <mxGeometry x="57.070295202952025" y="66.26376083979918" width="149.75645756457567" height="17.027190780465542" as="geometry" />
        </mxCell>
        <mxCell id="P5x_hELf_6X6-CJ0kqpy-529" style="edgeStyle=none;rounded=0;orthogonalLoop=1;jettySize=auto;html=1;exitX=0.5;exitY=1;exitDx=0;exitDy=0;entryX=0.5;entryY=0;entryDx=0;entryDy=0;endSize=4;" edge="1" parent="P5x_hELf_6X6-CJ0kqpy-546" source="P5x_hELf_6X6-CJ0kqpy-530" target="P5x_hELf_6X6-CJ0kqpy-532">
          <mxGeometry relative="1" as="geometry" />
        </mxCell>
        <mxCell id="P5x_hELf_6X6-CJ0kqpy-530" value="&lt;font style=&quot;font-size: 11px;&quot;&gt;LayerNorm&lt;/font&gt;" style="rounded=1;whiteSpace=wrap;html=1;" vertex="1" parent="P5x_hELf_6X6-CJ0kqpy-546">
          <mxGeometry x="57.070295202952025" y="153.29502510269288" width="149.75645756457567" height="17.027190780465542" as="geometry" />
        </mxCell>
        <mxCell id="P5x_hELf_6X6-CJ0kqpy-531" style="edgeStyle=none;rounded=0;orthogonalLoop=1;jettySize=auto;html=1;exitX=0.5;exitY=1;exitDx=0;exitDy=0;entryX=0.5;entryY=0;entryDx=0;entryDy=0;endSize=4;" edge="1" parent="P5x_hELf_6X6-CJ0kqpy-546" source="P5x_hELf_6X6-CJ0kqpy-532" target="P5x_hELf_6X6-CJ0kqpy-534">
          <mxGeometry relative="1" as="geometry" />
        </mxCell>
        <mxCell id="P5x_hELf_6X6-CJ0kqpy-532" value="&lt;font style=&quot;font-size: 11px;&quot;&gt;Linears&lt;/font&gt;" style="rounded=1;whiteSpace=wrap;html=1;" vertex="1" parent="P5x_hELf_6X6-CJ0kqpy-546">
          <mxGeometry x="57.070295202952025" y="192.05096987676862" width="149.75645756457567" height="22.2093792788681" as="geometry" />
        </mxCell>
        <mxCell id="P5x_hELf_6X6-CJ0kqpy-534" value="&lt;font style=&quot;font-size: 11px;&quot;&gt;LayerNorm&lt;/font&gt;" style="rounded=1;whiteSpace=wrap;html=1;" vertex="1" parent="P5x_hELf_6X6-CJ0kqpy-546">
          <mxGeometry x="57.070295202952025" y="238.65486079415797" width="149.75645756457567" height="17.027190780465542" as="geometry" />
        </mxCell>
        <mxCell id="P5x_hELf_6X6-CJ0kqpy-535" value="&lt;span style=&quot;white-space: pre-wrap; caret-color: rgba(0, 0, 0, 0.87); color: rgba(0, 0, 0, 0.87); font-family: &amp;quot;Helvetica Neue&amp;quot;, &amp;quot;Segoe UI&amp;quot;, Helvetica, Arial, sans-serif;&quot;&gt;&lt;font style=&quot;font-size: 10px;&quot;&gt;Dimension Reduction&lt;/font&gt;&lt;/span&gt;" style="rounded=1;whiteSpace=wrap;html=1;strokeColor=none;fillColor=none;align=left;" vertex="1" parent="1">
          <mxGeometry x="257.07" y="789" width="111.93" height="25.21" as="geometry" />
        </mxCell>
        <mxCell id="P5x_hELf_6X6-CJ0kqpy-520" value="&lt;font style=&quot;font-size: 10px;&quot;&gt;&amp;nbsp;Temporal Expansion&lt;/font&gt;" style="rounded=1;whiteSpace=wrap;html=1;strokeColor=none;fillColor=none;align=left;" vertex="1" parent="1">
          <mxGeometry x="256.35" y="703" width="97.65" height="25.21" as="geometry" />
        </mxCell>
        <mxCell id="P5x_hELf_6X6-CJ0kqpy-607" value="" style="group" vertex="1" connectable="0" parent="1">
          <mxGeometry x="-160" y="820" width="410" height="76" as="geometry" />
        </mxCell>
        <mxCell id="P5x_hELf_6X6-CJ0kqpy-547" value="" style="rounded=1;whiteSpace=wrap;html=1;dashed=1;opacity=70;" vertex="1" parent="P5x_hELf_6X6-CJ0kqpy-607">
          <mxGeometry x="6.750476098642801" width="403.2495239013572" height="71.17460317460318" as="geometry" />
        </mxCell>
        <mxCell id="P5x_hELf_6X6-CJ0kqpy-511" value="&lt;div style=&quot;text-align: left;&quot;&gt;&lt;font face=&quot;Helvetica Neue, Segoe UI, Helvetica, Arial, sans-serif&quot;&gt;&lt;span style=&quot;caret-color: rgba(0, 0, 0, 0.87); color: rgba(0, 0, 0, 0.87); font-size: 9px; white-space-collapse: preserve;&quot;&gt;...&lt;/span&gt;&lt;/font&gt;&lt;/div&gt;" style="rounded=1;whiteSpace=wrap;html=1;strokeColor=none;fillColor=none;fontStyle=1" vertex="1" parent="P5x_hELf_6X6-CJ0kqpy-607">
          <mxGeometry x="293.1367066027047" y="19.904761904761905" width="29.512330352192464" height="25.936507936507937" as="geometry" />
        </mxCell>
        <mxCell id="P5x_hELf_6X6-CJ0kqpy-512" value="&lt;div style=&quot;text-align: left;&quot;&gt;&lt;font face=&quot;Helvetica Neue, Segoe UI, Helvetica, Arial, sans-serif&quot;&gt;&lt;span style=&quot;caret-color: rgba(0, 0, 0, 0.87); color: rgba(0, 0, 0, 0.87); white-space-collapse: preserve;&quot;&gt;&lt;i&gt;&lt;font style=&quot;font-size: 10px;&quot;&gt;t&lt;/font&gt;&lt;span style=&quot;font-size: 6px;&quot;&gt;1&lt;/span&gt;&lt;/i&gt;&lt;/span&gt;&lt;/font&gt;&lt;/div&gt;" style="rounded=1;whiteSpace=wrap;html=1;strokeColor=none;fillColor=none;" vertex="1" parent="P5x_hELf_6X6-CJ0kqpy-607">
          <mxGeometry x="118.19757491020415" y="50.06349206349206" width="42.36096714316708" height="25.936507936507937" as="geometry" />
        </mxCell>
        <mxCell id="P5x_hELf_6X6-CJ0kqpy-513" value="&lt;div style=&quot;text-align: left;&quot;&gt;&lt;font face=&quot;Helvetica Neue, Segoe UI, Helvetica, Arial, sans-serif&quot;&gt;&lt;span style=&quot;caret-color: rgba(0, 0, 0, 0.87); color: rgba(0, 0, 0, 0.87); white-space-collapse: preserve;&quot;&gt;&lt;i&gt;&lt;font style=&quot;font-size: 10px;&quot;&gt;t&lt;/font&gt;&lt;font style=&quot;font-size: 6px;&quot;&gt;2&lt;/font&gt;&lt;/i&gt;&lt;/span&gt;&lt;/font&gt;&lt;/div&gt;" style="rounded=1;whiteSpace=wrap;html=1;strokeColor=none;fillColor=none;" vertex="1" parent="P5x_hELf_6X6-CJ0kqpy-607">
          <mxGeometry x="232.8469493527469" y="50.06349206349206" width="42.36096714316708" height="25.936507936507937" as="geometry" />
        </mxCell>
        <mxCell id="P5x_hELf_6X6-CJ0kqpy-514" value="&lt;div style=&quot;text-align: left;&quot;&gt;&lt;font face=&quot;Helvetica Neue, Segoe UI, Helvetica, Arial, sans-serif&quot;&gt;&lt;span style=&quot;caret-color: rgba(0, 0, 0, 0.87); color: rgba(0, 0, 0, 0.87); white-space-collapse: preserve;&quot;&gt;&lt;i&gt;&lt;font style=&quot;font-size: 10px;&quot;&gt;t&lt;/font&gt;&lt;span style=&quot;font-size: 6px;&quot;&gt;n&lt;/span&gt;&lt;/i&gt;&lt;/span&gt;&lt;/font&gt;&lt;/div&gt;" style="rounded=1;whiteSpace=wrap;html=1;strokeColor=none;fillColor=none;" vertex="1" parent="P5x_hELf_6X6-CJ0kqpy-607">
          <mxGeometry x="346.5079671190608" y="50.06349206349206" width="42.36096714316708" height="25.936507936507937" as="geometry" />
        </mxCell>
        <mxCell id="P5x_hELf_6X6-CJ0kqpy-492" value="" style="group" vertex="1" connectable="0" parent="P5x_hELf_6X6-CJ0kqpy-607">
          <mxGeometry x="339.06403465886495" y="8.881226053639809" width="44.980384513429584" height="56.10763379735413" as="geometry" />
        </mxCell>
        <mxCell id="P5x_hELf_6X6-CJ0kqpy-493" style="edgeStyle=none;rounded=0;orthogonalLoop=1;jettySize=auto;html=1;exitX=0.556;exitY=0.618;exitDx=0;exitDy=0;entryX=0.5;entryY=0;entryDx=0;entryDy=0;fillColor=#f5f5f5;strokeColor=#808080;endArrow=none;startFill=0;dashed=1;dashPattern=1 1;exitPerimeter=0;" edge="1" parent="P5x_hELf_6X6-CJ0kqpy-492" source="P5x_hELf_6X6-CJ0kqpy-506">
          <mxGeometry relative="1" as="geometry">
            <mxPoint x="42.88640286976122" y="20.071154898741142" as="sourcePoint" />
            <mxPoint x="39.92133284107477" y="35.753694581280826" as="targetPoint" />
          </mxGeometry>
        </mxCell>
        <mxCell id="P5x_hELf_6X6-CJ0kqpy-496" value="" style="group" vertex="1" connectable="0" parent="P5x_hELf_6X6-CJ0kqpy-492">
          <mxGeometry width="44.980384513429584" height="56.10763379735413" as="geometry" />
        </mxCell>
        <mxCell id="P5x_hELf_6X6-CJ0kqpy-497" style="edgeStyle=none;rounded=0;orthogonalLoop=1;jettySize=auto;html=1;fillColor=#f5f5f5;strokeColor=#808080;endArrow=none;startFill=0;dashed=1;dashPattern=1 1;exitX=0.47;exitY=0.405;exitDx=0;exitDy=0;exitPerimeter=0;" edge="1" parent="P5x_hELf_6X6-CJ0kqpy-496" source="P5x_hELf_6X6-CJ0kqpy-505" target="P5x_hELf_6X6-CJ0kqpy-504">
          <mxGeometry relative="1" as="geometry">
            <mxPoint x="11.25898923043909" y="42.91940886699518" as="sourcePoint" />
            <mxPoint x="-17.403354380196593" y="42.91940886699518" as="targetPoint" />
          </mxGeometry>
        </mxCell>
        <mxCell id="P5x_hELf_6X6-CJ0kqpy-498" style="edgeStyle=none;rounded=0;orthogonalLoop=1;jettySize=auto;html=1;exitX=0.615;exitY=0.559;exitDx=0;exitDy=0;fillColor=#f5f5f5;strokeColor=#808080;endArrow=none;startFill=0;dashed=1;dashPattern=1 1;exitPerimeter=0;entryX=0.539;entryY=0.411;entryDx=0;entryDy=0;entryPerimeter=0;" edge="1" parent="P5x_hELf_6X6-CJ0kqpy-496" source="P5x_hELf_6X6-CJ0kqpy-506" target="P5x_hELf_6X6-CJ0kqpy-504">
          <mxGeometry relative="1" as="geometry">
            <mxPoint x="42.88640286976122" y="15.245758073344318" as="sourcePoint" />
            <mxPoint x="50.79325627959175" y="47.81718664477289" as="targetPoint" />
          </mxGeometry>
        </mxCell>
        <mxCell id="P5x_hELf_6X6-CJ0kqpy-499" style="edgeStyle=none;rounded=0;orthogonalLoop=1;jettySize=auto;html=1;exitX=0.5;exitY=1;exitDx=0;exitDy=0;entryX=0.5;entryY=0;entryDx=0;entryDy=0;fillColor=#f5f5f5;strokeColor=#808080;endArrow=none;startFill=0;dashed=1;dashPattern=1 1;" edge="1" parent="P5x_hELf_6X6-CJ0kqpy-496" source="P5x_hELf_6X6-CJ0kqpy-507" target="P5x_hELf_6X6-CJ0kqpy-506">
          <mxGeometry relative="1" as="geometry" />
        </mxCell>
        <mxCell id="P5x_hELf_6X6-CJ0kqpy-500" style="edgeStyle=none;rounded=0;orthogonalLoop=1;jettySize=auto;html=1;fillColor=#f5f5f5;strokeColor=#808080;endArrow=none;startFill=0;dashed=1;dashPattern=1 1;entryX=0.572;entryY=0.371;entryDx=0;entryDy=0;entryPerimeter=0;exitX=0.487;exitY=0.405;exitDx=0;exitDy=0;exitPerimeter=0;" edge="1" parent="P5x_hELf_6X6-CJ0kqpy-496" source="P5x_hELf_6X6-CJ0kqpy-507" target="P5x_hELf_6X6-CJ0kqpy-505">
          <mxGeometry relative="1" as="geometry">
            <mxPoint x="32.01447943124424" y="9.214012041598286" as="sourcePoint" />
            <mxPoint x="21.142555992727257" y="61.087027914614154" as="targetPoint" />
          </mxGeometry>
        </mxCell>
        <mxCell id="P5x_hELf_6X6-CJ0kqpy-501" style="edgeStyle=none;rounded=0;orthogonalLoop=1;jettySize=auto;html=1;fillColor=#f5f5f5;strokeColor=#808080;endArrow=none;startFill=0;dashed=1;dashPattern=1 1;entryX=0.489;entryY=0.391;entryDx=0;entryDy=0;entryPerimeter=0;exitX=0.419;exitY=0.568;exitDx=0;exitDy=0;exitPerimeter=0;" edge="1" parent="P5x_hELf_6X6-CJ0kqpy-496" source="P5x_hELf_6X6-CJ0kqpy-507" target="P5x_hELf_6X6-CJ0kqpy-504">
          <mxGeometry relative="1" as="geometry">
            <mxPoint x="42.88640286976122" y="15.245758073344318" as="sourcePoint" />
            <mxPoint x="13.235702582896723" y="39.372742200328446" as="targetPoint" />
          </mxGeometry>
        </mxCell>
        <mxCell id="P5x_hELf_6X6-CJ0kqpy-502" style="edgeStyle=none;rounded=0;orthogonalLoop=1;jettySize=auto;html=1;exitX=0.45;exitY=0.382;exitDx=0;exitDy=0;fillColor=#f5f5f5;strokeColor=#808080;endArrow=none;startFill=0;dashed=1;dashPattern=1 1;exitPerimeter=0;" edge="1" parent="P5x_hELf_6X6-CJ0kqpy-496" source="P5x_hELf_6X6-CJ0kqpy-507" target="P5x_hELf_6X6-CJ0kqpy-508">
          <mxGeometry relative="1" as="geometry">
            <mxPoint x="39.92133284107477" y="40.57909140667765" as="sourcePoint" />
            <mxPoint x="49.80489960336294" y="47.81718664477289" as="targetPoint" />
          </mxGeometry>
        </mxCell>
        <mxCell id="P5x_hELf_6X6-CJ0kqpy-503" style="edgeStyle=none;rounded=0;orthogonalLoop=1;jettySize=auto;html=1;fillColor=#f5f5f5;strokeColor=#808080;endArrow=none;startFill=0;dashed=1;dashPattern=1 1;" edge="1" parent="P5x_hELf_6X6-CJ0kqpy-496" source="P5x_hELf_6X6-CJ0kqpy-508" target="P5x_hELf_6X6-CJ0kqpy-504">
          <mxGeometry relative="1" as="geometry">
            <mxPoint x="42.88640286976122" y="15.245758073344318" as="sourcePoint" />
            <mxPoint x="13.235702582896723" y="39.372742200328446" as="targetPoint" />
          </mxGeometry>
        </mxCell>
        <mxCell id="P5x_hELf_6X6-CJ0kqpy-504" value="" style="ellipse;whiteSpace=wrap;html=1;aspect=fixed;fillColor=#d5e8d4;strokeColor=#82b366;" vertex="1" parent="P5x_hELf_6X6-CJ0kqpy-496">
          <mxGeometry x="9.883566762288167" y="48.25396825396825" width="6.434474140505739" height="6.434474140505739" as="geometry" />
        </mxCell>
        <mxCell id="P5x_hELf_6X6-CJ0kqpy-506" value="" style="ellipse;whiteSpace=wrap;html=1;aspect=fixed;fillColor=#f8cecc;strokeColor=#b85450;" vertex="1" parent="P5x_hELf_6X6-CJ0kqpy-496">
          <mxGeometry x="26.685630258178048" y="18.095238095238095" width="6.434474140505739" height="6.434474140505739" as="geometry" />
        </mxCell>
        <mxCell id="P5x_hELf_6X6-CJ0kqpy-507" value="" style="ellipse;whiteSpace=wrap;html=1;aspect=fixed;fillColor=#ffe6cc;strokeColor=#d79b00;" vertex="1" parent="P5x_hELf_6X6-CJ0kqpy-496">
          <mxGeometry x="29.6507002868645" width="6.434474140505739" height="6.434474140505739" as="geometry" />
        </mxCell>
        <mxCell id="P5x_hELf_6X6-CJ0kqpy-508" value="" style="ellipse;whiteSpace=wrap;html=1;aspect=fixed;fillColor=#e1d5e7;strokeColor=#9673a6;" vertex="1" parent="P5x_hELf_6X6-CJ0kqpy-496">
          <mxGeometry x="38.54591037292385" y="34.98412698412698" width="6.434474140505739" height="6.434474140505739" as="geometry" />
        </mxCell>
        <mxCell id="P5x_hELf_6X6-CJ0kqpy-494" style="edgeStyle=none;rounded=0;orthogonalLoop=1;jettySize=auto;html=1;fillColor=#f5f5f5;strokeColor=#808080;endArrow=none;startFill=0;dashed=1;dashPattern=1 1;entryX=0.45;entryY=0.559;entryDx=0;entryDy=0;entryPerimeter=0;exitX=0;exitY=0.5;exitDx=0;exitDy=0;" edge="1" parent="P5x_hELf_6X6-CJ0kqpy-496" target="P5x_hELf_6X6-CJ0kqpy-505" source="P5x_hELf_6X6-CJ0kqpy-506">
          <mxGeometry relative="1" as="geometry">
            <mxPoint x="32.01447943124424" y="28.515599343185585" as="sourcePoint" />
            <mxPoint x="23.11926934518489" y="63.499726327312565" as="targetPoint" />
          </mxGeometry>
        </mxCell>
        <mxCell id="P5x_hELf_6X6-CJ0kqpy-495" style="edgeStyle=none;rounded=0;orthogonalLoop=1;jettySize=auto;html=1;fillColor=#f5f5f5;strokeColor=#808080;endArrow=none;startFill=0;dashed=1;dashPattern=1 1;entryX=0.758;entryY=0.554;entryDx=0;entryDy=0;entryPerimeter=0;" edge="1" parent="P5x_hELf_6X6-CJ0kqpy-496" source="P5x_hELf_6X6-CJ0kqpy-508" target="P5x_hELf_6X6-CJ0kqpy-505">
          <mxGeometry relative="1" as="geometry">
            <mxPoint x="41.049530158281726" y="32.73873180524419" as="sourcePoint" />
            <mxPoint x="1.7509980051178688" y="35.753694581280826" as="targetPoint" />
          </mxGeometry>
        </mxCell>
        <mxCell id="P5x_hELf_6X6-CJ0kqpy-505" value="" style="ellipse;whiteSpace=wrap;html=1;aspect=fixed;fillColor=#dae8fc;strokeColor=#6c8ebf;" vertex="1" parent="P5x_hELf_6X6-CJ0kqpy-496">
          <mxGeometry y="27.746031746031743" width="6.434474140505739" height="6.434474140505739" as="geometry" />
        </mxCell>
        <mxCell id="P5x_hELf_6X6-CJ0kqpy-554" value="" style="group" vertex="1" connectable="0" parent="P5x_hELf_6X6-CJ0kqpy-607">
          <mxGeometry x="221.44959018763578" y="8.881226053639809" width="44.980384513429584" height="56.10763379735413" as="geometry" />
        </mxCell>
        <mxCell id="P5x_hELf_6X6-CJ0kqpy-555" style="edgeStyle=none;rounded=0;orthogonalLoop=1;jettySize=auto;html=1;exitX=0.556;exitY=0.618;exitDx=0;exitDy=0;entryX=0.5;entryY=0;entryDx=0;entryDy=0;fillColor=#f5f5f5;strokeColor=#808080;endArrow=none;startFill=0;dashed=1;dashPattern=1 1;exitPerimeter=0;" edge="1" parent="P5x_hELf_6X6-CJ0kqpy-554" source="P5x_hELf_6X6-CJ0kqpy-566">
          <mxGeometry relative="1" as="geometry">
            <mxPoint x="42.88640286976122" y="20.071154898741142" as="sourcePoint" />
            <mxPoint x="39.92133284107477" y="35.753694581280826" as="targetPoint" />
          </mxGeometry>
        </mxCell>
        <mxCell id="P5x_hELf_6X6-CJ0kqpy-556" value="" style="group" vertex="1" connectable="0" parent="P5x_hELf_6X6-CJ0kqpy-554">
          <mxGeometry width="44.980384513429584" height="56.10763379735413" as="geometry" />
        </mxCell>
        <mxCell id="P5x_hELf_6X6-CJ0kqpy-557" style="edgeStyle=none;rounded=0;orthogonalLoop=1;jettySize=auto;html=1;fillColor=#f5f5f5;strokeColor=#808080;endArrow=none;startFill=0;dashed=1;dashPattern=1 1;exitX=0.47;exitY=0.405;exitDx=0;exitDy=0;exitPerimeter=0;" edge="1" parent="P5x_hELf_6X6-CJ0kqpy-556" source="P5x_hELf_6X6-CJ0kqpy-565" target="P5x_hELf_6X6-CJ0kqpy-564">
          <mxGeometry relative="1" as="geometry">
            <mxPoint x="11.25898923043909" y="42.91940886699518" as="sourcePoint" />
            <mxPoint x="-17.403354380196593" y="42.91940886699518" as="targetPoint" />
          </mxGeometry>
        </mxCell>
        <mxCell id="P5x_hELf_6X6-CJ0kqpy-558" style="edgeStyle=none;rounded=0;orthogonalLoop=1;jettySize=auto;html=1;exitX=0.615;exitY=0.559;exitDx=0;exitDy=0;fillColor=#f5f5f5;strokeColor=#808080;endArrow=none;startFill=0;dashed=1;dashPattern=1 1;exitPerimeter=0;entryX=0.539;entryY=0.411;entryDx=0;entryDy=0;entryPerimeter=0;" edge="1" parent="P5x_hELf_6X6-CJ0kqpy-556" source="P5x_hELf_6X6-CJ0kqpy-566" target="P5x_hELf_6X6-CJ0kqpy-564">
          <mxGeometry relative="1" as="geometry">
            <mxPoint x="42.88640286976122" y="15.245758073344318" as="sourcePoint" />
            <mxPoint x="50.79325627959175" y="47.81718664477289" as="targetPoint" />
          </mxGeometry>
        </mxCell>
        <mxCell id="P5x_hELf_6X6-CJ0kqpy-559" style="edgeStyle=none;rounded=0;orthogonalLoop=1;jettySize=auto;html=1;exitX=0.5;exitY=1;exitDx=0;exitDy=0;entryX=0.5;entryY=0;entryDx=0;entryDy=0;fillColor=#f5f5f5;strokeColor=#808080;endArrow=none;startFill=0;dashed=1;dashPattern=1 1;" edge="1" parent="P5x_hELf_6X6-CJ0kqpy-556" source="P5x_hELf_6X6-CJ0kqpy-567" target="P5x_hELf_6X6-CJ0kqpy-566">
          <mxGeometry relative="1" as="geometry" />
        </mxCell>
        <mxCell id="P5x_hELf_6X6-CJ0kqpy-560" style="edgeStyle=none;rounded=0;orthogonalLoop=1;jettySize=auto;html=1;fillColor=#f5f5f5;strokeColor=#808080;endArrow=none;startFill=0;dashed=1;dashPattern=1 1;entryX=0.572;entryY=0.371;entryDx=0;entryDy=0;entryPerimeter=0;exitX=0.487;exitY=0.405;exitDx=0;exitDy=0;exitPerimeter=0;" edge="1" parent="P5x_hELf_6X6-CJ0kqpy-556" source="P5x_hELf_6X6-CJ0kqpy-567" target="P5x_hELf_6X6-CJ0kqpy-565">
          <mxGeometry relative="1" as="geometry">
            <mxPoint x="32.01447943124424" y="9.214012041598286" as="sourcePoint" />
            <mxPoint x="21.142555992727257" y="61.087027914614154" as="targetPoint" />
          </mxGeometry>
        </mxCell>
        <mxCell id="P5x_hELf_6X6-CJ0kqpy-561" style="edgeStyle=none;rounded=0;orthogonalLoop=1;jettySize=auto;html=1;fillColor=#f5f5f5;strokeColor=#808080;endArrow=none;startFill=0;dashed=1;dashPattern=1 1;entryX=0.489;entryY=0.391;entryDx=0;entryDy=0;entryPerimeter=0;exitX=0.419;exitY=0.568;exitDx=0;exitDy=0;exitPerimeter=0;" edge="1" parent="P5x_hELf_6X6-CJ0kqpy-556" source="P5x_hELf_6X6-CJ0kqpy-567" target="P5x_hELf_6X6-CJ0kqpy-564">
          <mxGeometry relative="1" as="geometry">
            <mxPoint x="42.88640286976122" y="15.245758073344318" as="sourcePoint" />
            <mxPoint x="13.235702582896723" y="39.372742200328446" as="targetPoint" />
          </mxGeometry>
        </mxCell>
        <mxCell id="P5x_hELf_6X6-CJ0kqpy-562" style="edgeStyle=none;rounded=0;orthogonalLoop=1;jettySize=auto;html=1;exitX=0.45;exitY=0.382;exitDx=0;exitDy=0;fillColor=#f5f5f5;strokeColor=#808080;endArrow=none;startFill=0;dashed=1;dashPattern=1 1;exitPerimeter=0;" edge="1" parent="P5x_hELf_6X6-CJ0kqpy-556" source="P5x_hELf_6X6-CJ0kqpy-567" target="P5x_hELf_6X6-CJ0kqpy-568">
          <mxGeometry relative="1" as="geometry">
            <mxPoint x="39.92133284107477" y="40.57909140667765" as="sourcePoint" />
            <mxPoint x="49.80489960336294" y="47.81718664477289" as="targetPoint" />
          </mxGeometry>
        </mxCell>
        <mxCell id="P5x_hELf_6X6-CJ0kqpy-563" style="edgeStyle=none;rounded=0;orthogonalLoop=1;jettySize=auto;html=1;fillColor=#f5f5f5;strokeColor=#808080;endArrow=none;startFill=0;dashed=1;dashPattern=1 1;" edge="1" parent="P5x_hELf_6X6-CJ0kqpy-556" source="P5x_hELf_6X6-CJ0kqpy-568" target="P5x_hELf_6X6-CJ0kqpy-564">
          <mxGeometry relative="1" as="geometry">
            <mxPoint x="42.88640286976122" y="15.245758073344318" as="sourcePoint" />
            <mxPoint x="13.235702582896723" y="39.372742200328446" as="targetPoint" />
          </mxGeometry>
        </mxCell>
        <mxCell id="P5x_hELf_6X6-CJ0kqpy-564" value="" style="ellipse;whiteSpace=wrap;html=1;aspect=fixed;fillColor=#d5e8d4;strokeColor=#82b366;" vertex="1" parent="P5x_hELf_6X6-CJ0kqpy-556">
          <mxGeometry x="9.883566762288167" y="48.25396825396825" width="6.434474140505739" height="6.434474140505739" as="geometry" />
        </mxCell>
        <mxCell id="P5x_hELf_6X6-CJ0kqpy-566" value="" style="ellipse;whiteSpace=wrap;html=1;aspect=fixed;fillColor=#f8cecc;strokeColor=#b85450;" vertex="1" parent="P5x_hELf_6X6-CJ0kqpy-556">
          <mxGeometry x="26.685630258178048" y="18.095238095238095" width="6.434474140505739" height="6.434474140505739" as="geometry" />
        </mxCell>
        <mxCell id="P5x_hELf_6X6-CJ0kqpy-567" value="" style="ellipse;whiteSpace=wrap;html=1;aspect=fixed;fillColor=#ffe6cc;strokeColor=#d79b00;" vertex="1" parent="P5x_hELf_6X6-CJ0kqpy-556">
          <mxGeometry x="29.6507002868645" width="6.434474140505739" height="6.434474140505739" as="geometry" />
        </mxCell>
        <mxCell id="P5x_hELf_6X6-CJ0kqpy-568" value="" style="ellipse;whiteSpace=wrap;html=1;aspect=fixed;fillColor=#e1d5e7;strokeColor=#9673a6;" vertex="1" parent="P5x_hELf_6X6-CJ0kqpy-556">
          <mxGeometry x="38.54591037292385" y="34.98412698412698" width="6.434474140505739" height="6.434474140505739" as="geometry" />
        </mxCell>
        <mxCell id="P5x_hELf_6X6-CJ0kqpy-569" style="edgeStyle=none;rounded=0;orthogonalLoop=1;jettySize=auto;html=1;fillColor=#f5f5f5;strokeColor=#808080;endArrow=none;startFill=0;dashed=1;dashPattern=1 1;entryX=0.45;entryY=0.559;entryDx=0;entryDy=0;entryPerimeter=0;exitX=0;exitY=0.5;exitDx=0;exitDy=0;" edge="1" parent="P5x_hELf_6X6-CJ0kqpy-556" source="P5x_hELf_6X6-CJ0kqpy-566" target="P5x_hELf_6X6-CJ0kqpy-565">
          <mxGeometry relative="1" as="geometry">
            <mxPoint x="32.01447943124424" y="28.515599343185585" as="sourcePoint" />
            <mxPoint x="23.11926934518489" y="63.499726327312565" as="targetPoint" />
          </mxGeometry>
        </mxCell>
        <mxCell id="P5x_hELf_6X6-CJ0kqpy-570" style="edgeStyle=none;rounded=0;orthogonalLoop=1;jettySize=auto;html=1;fillColor=#f5f5f5;strokeColor=#808080;endArrow=none;startFill=0;dashed=1;dashPattern=1 1;entryX=0.758;entryY=0.554;entryDx=0;entryDy=0;entryPerimeter=0;" edge="1" parent="P5x_hELf_6X6-CJ0kqpy-556" source="P5x_hELf_6X6-CJ0kqpy-568" target="P5x_hELf_6X6-CJ0kqpy-565">
          <mxGeometry relative="1" as="geometry">
            <mxPoint x="41.049530158281726" y="32.73873180524419" as="sourcePoint" />
            <mxPoint x="1.7509980051178688" y="35.753694581280826" as="targetPoint" />
          </mxGeometry>
        </mxCell>
        <mxCell id="P5x_hELf_6X6-CJ0kqpy-565" value="" style="ellipse;whiteSpace=wrap;html=1;aspect=fixed;fillColor=#dae8fc;strokeColor=#6c8ebf;" vertex="1" parent="P5x_hELf_6X6-CJ0kqpy-556">
          <mxGeometry y="27.746031746031743" width="6.434474140505739" height="6.434474140505739" as="geometry" />
        </mxCell>
        <mxCell id="P5x_hELf_6X6-CJ0kqpy-571" value="" style="group" vertex="1" connectable="0" parent="P5x_hELf_6X6-CJ0kqpy-607">
          <mxGeometry x="96.91664898280487" y="7.674876847290602" width="44.980384513429584" height="56.10763379735413" as="geometry" />
        </mxCell>
        <mxCell id="P5x_hELf_6X6-CJ0kqpy-572" style="edgeStyle=none;rounded=0;orthogonalLoop=1;jettySize=auto;html=1;exitX=0.556;exitY=0.618;exitDx=0;exitDy=0;entryX=0.5;entryY=0;entryDx=0;entryDy=0;fillColor=#f5f5f5;strokeColor=#808080;endArrow=none;startFill=0;dashed=1;dashPattern=1 1;exitPerimeter=0;" edge="1" parent="P5x_hELf_6X6-CJ0kqpy-571" source="P5x_hELf_6X6-CJ0kqpy-583">
          <mxGeometry relative="1" as="geometry">
            <mxPoint x="42.88640286976122" y="20.071154898741142" as="sourcePoint" />
            <mxPoint x="39.92133284107477" y="35.753694581280826" as="targetPoint" />
          </mxGeometry>
        </mxCell>
        <mxCell id="P5x_hELf_6X6-CJ0kqpy-573" value="" style="group" vertex="1" connectable="0" parent="P5x_hELf_6X6-CJ0kqpy-571">
          <mxGeometry width="44.980384513429584" height="56.10763379735413" as="geometry" />
        </mxCell>
        <mxCell id="P5x_hELf_6X6-CJ0kqpy-574" style="edgeStyle=none;rounded=0;orthogonalLoop=1;jettySize=auto;html=1;fillColor=#f5f5f5;strokeColor=#808080;endArrow=none;startFill=0;dashed=1;dashPattern=1 1;exitX=0.47;exitY=0.405;exitDx=0;exitDy=0;exitPerimeter=0;" edge="1" parent="P5x_hELf_6X6-CJ0kqpy-573" source="P5x_hELf_6X6-CJ0kqpy-582" target="P5x_hELf_6X6-CJ0kqpy-581">
          <mxGeometry relative="1" as="geometry">
            <mxPoint x="11.25898923043909" y="42.91940886699518" as="sourcePoint" />
            <mxPoint x="-17.403354380196593" y="42.91940886699518" as="targetPoint" />
          </mxGeometry>
        </mxCell>
        <mxCell id="P5x_hELf_6X6-CJ0kqpy-575" style="edgeStyle=none;rounded=0;orthogonalLoop=1;jettySize=auto;html=1;exitX=0.615;exitY=0.559;exitDx=0;exitDy=0;fillColor=#f5f5f5;strokeColor=#808080;endArrow=none;startFill=0;dashed=1;dashPattern=1 1;exitPerimeter=0;entryX=0.539;entryY=0.411;entryDx=0;entryDy=0;entryPerimeter=0;" edge="1" parent="P5x_hELf_6X6-CJ0kqpy-573" source="P5x_hELf_6X6-CJ0kqpy-583" target="P5x_hELf_6X6-CJ0kqpy-581">
          <mxGeometry relative="1" as="geometry">
            <mxPoint x="42.88640286976122" y="15.245758073344318" as="sourcePoint" />
            <mxPoint x="50.79325627959175" y="47.81718664477289" as="targetPoint" />
          </mxGeometry>
        </mxCell>
        <mxCell id="P5x_hELf_6X6-CJ0kqpy-576" style="edgeStyle=none;rounded=0;orthogonalLoop=1;jettySize=auto;html=1;exitX=0.5;exitY=1;exitDx=0;exitDy=0;entryX=0.5;entryY=0;entryDx=0;entryDy=0;fillColor=#f5f5f5;strokeColor=#808080;endArrow=none;startFill=0;dashed=1;dashPattern=1 1;" edge="1" parent="P5x_hELf_6X6-CJ0kqpy-573" source="P5x_hELf_6X6-CJ0kqpy-584" target="P5x_hELf_6X6-CJ0kqpy-583">
          <mxGeometry relative="1" as="geometry" />
        </mxCell>
        <mxCell id="P5x_hELf_6X6-CJ0kqpy-577" style="edgeStyle=none;rounded=0;orthogonalLoop=1;jettySize=auto;html=1;fillColor=#f5f5f5;strokeColor=#808080;endArrow=none;startFill=0;dashed=1;dashPattern=1 1;entryX=0.572;entryY=0.371;entryDx=0;entryDy=0;entryPerimeter=0;exitX=0.487;exitY=0.405;exitDx=0;exitDy=0;exitPerimeter=0;" edge="1" parent="P5x_hELf_6X6-CJ0kqpy-573" source="P5x_hELf_6X6-CJ0kqpy-584" target="P5x_hELf_6X6-CJ0kqpy-582">
          <mxGeometry relative="1" as="geometry">
            <mxPoint x="32.01447943124424" y="9.214012041598286" as="sourcePoint" />
            <mxPoint x="21.142555992727257" y="61.087027914614154" as="targetPoint" />
          </mxGeometry>
        </mxCell>
        <mxCell id="P5x_hELf_6X6-CJ0kqpy-578" style="edgeStyle=none;rounded=0;orthogonalLoop=1;jettySize=auto;html=1;fillColor=#f5f5f5;strokeColor=#808080;endArrow=none;startFill=0;dashed=1;dashPattern=1 1;entryX=0.489;entryY=0.391;entryDx=0;entryDy=0;entryPerimeter=0;exitX=0.419;exitY=0.568;exitDx=0;exitDy=0;exitPerimeter=0;" edge="1" parent="P5x_hELf_6X6-CJ0kqpy-573" source="P5x_hELf_6X6-CJ0kqpy-584" target="P5x_hELf_6X6-CJ0kqpy-581">
          <mxGeometry relative="1" as="geometry">
            <mxPoint x="42.88640286976122" y="15.245758073344318" as="sourcePoint" />
            <mxPoint x="13.235702582896723" y="39.372742200328446" as="targetPoint" />
          </mxGeometry>
        </mxCell>
        <mxCell id="P5x_hELf_6X6-CJ0kqpy-579" style="edgeStyle=none;rounded=0;orthogonalLoop=1;jettySize=auto;html=1;exitX=0.45;exitY=0.382;exitDx=0;exitDy=0;fillColor=#f5f5f5;strokeColor=#808080;endArrow=none;startFill=0;dashed=1;dashPattern=1 1;exitPerimeter=0;" edge="1" parent="P5x_hELf_6X6-CJ0kqpy-573" source="P5x_hELf_6X6-CJ0kqpy-584" target="P5x_hELf_6X6-CJ0kqpy-585">
          <mxGeometry relative="1" as="geometry">
            <mxPoint x="39.92133284107477" y="40.57909140667765" as="sourcePoint" />
            <mxPoint x="49.80489960336294" y="47.81718664477289" as="targetPoint" />
          </mxGeometry>
        </mxCell>
        <mxCell id="P5x_hELf_6X6-CJ0kqpy-580" style="edgeStyle=none;rounded=0;orthogonalLoop=1;jettySize=auto;html=1;fillColor=#f5f5f5;strokeColor=#808080;endArrow=none;startFill=0;dashed=1;dashPattern=1 1;" edge="1" parent="P5x_hELf_6X6-CJ0kqpy-573" source="P5x_hELf_6X6-CJ0kqpy-585" target="P5x_hELf_6X6-CJ0kqpy-581">
          <mxGeometry relative="1" as="geometry">
            <mxPoint x="42.88640286976122" y="15.245758073344318" as="sourcePoint" />
            <mxPoint x="13.235702582896723" y="39.372742200328446" as="targetPoint" />
          </mxGeometry>
        </mxCell>
        <mxCell id="P5x_hELf_6X6-CJ0kqpy-581" value="" style="ellipse;whiteSpace=wrap;html=1;aspect=fixed;fillColor=#d5e8d4;strokeColor=#82b366;" vertex="1" parent="P5x_hELf_6X6-CJ0kqpy-573">
          <mxGeometry x="9.883566762288167" y="48.25396825396825" width="6.434474140505739" height="6.434474140505739" as="geometry" />
        </mxCell>
        <mxCell id="P5x_hELf_6X6-CJ0kqpy-583" value="" style="ellipse;whiteSpace=wrap;html=1;aspect=fixed;fillColor=#f8cecc;strokeColor=#b85450;" vertex="1" parent="P5x_hELf_6X6-CJ0kqpy-573">
          <mxGeometry x="26.685630258178048" y="18.095238095238095" width="6.434474140505739" height="6.434474140505739" as="geometry" />
        </mxCell>
        <mxCell id="P5x_hELf_6X6-CJ0kqpy-584" value="" style="ellipse;whiteSpace=wrap;html=1;aspect=fixed;fillColor=#ffe6cc;strokeColor=#d79b00;" vertex="1" parent="P5x_hELf_6X6-CJ0kqpy-573">
          <mxGeometry x="29.6507002868645" width="6.434474140505739" height="6.434474140505739" as="geometry" />
        </mxCell>
        <mxCell id="P5x_hELf_6X6-CJ0kqpy-585" value="" style="ellipse;whiteSpace=wrap;html=1;aspect=fixed;fillColor=#e1d5e7;strokeColor=#9673a6;" vertex="1" parent="P5x_hELf_6X6-CJ0kqpy-573">
          <mxGeometry x="38.54591037292385" y="34.98412698412698" width="6.434474140505739" height="6.434474140505739" as="geometry" />
        </mxCell>
        <mxCell id="P5x_hELf_6X6-CJ0kqpy-587" style="edgeStyle=none;rounded=0;orthogonalLoop=1;jettySize=auto;html=1;fillColor=#f5f5f5;strokeColor=#808080;endArrow=none;startFill=0;dashed=1;dashPattern=1 1;entryX=0.758;entryY=0.554;entryDx=0;entryDy=0;entryPerimeter=0;" edge="1" parent="P5x_hELf_6X6-CJ0kqpy-573" source="P5x_hELf_6X6-CJ0kqpy-585" target="P5x_hELf_6X6-CJ0kqpy-582">
          <mxGeometry relative="1" as="geometry">
            <mxPoint x="41.049530158281726" y="32.73873180524419" as="sourcePoint" />
            <mxPoint x="1.7509980051178688" y="35.753694581280826" as="targetPoint" />
          </mxGeometry>
        </mxCell>
        <mxCell id="P5x_hELf_6X6-CJ0kqpy-586" style="edgeStyle=none;rounded=0;orthogonalLoop=1;jettySize=auto;html=1;fillColor=#f5f5f5;strokeColor=#808080;endArrow=none;startFill=0;dashed=1;dashPattern=1 1;entryX=0.45;entryY=0.559;entryDx=0;entryDy=0;entryPerimeter=0;exitX=0;exitY=0.5;exitDx=0;exitDy=0;" edge="1" parent="P5x_hELf_6X6-CJ0kqpy-573" source="P5x_hELf_6X6-CJ0kqpy-583" target="P5x_hELf_6X6-CJ0kqpy-582">
          <mxGeometry relative="1" as="geometry">
            <mxPoint x="32.01447943124424" y="28.515599343185585" as="sourcePoint" />
            <mxPoint x="23.11926934518489" y="63.499726327312565" as="targetPoint" />
          </mxGeometry>
        </mxCell>
        <mxCell id="P5x_hELf_6X6-CJ0kqpy-582" value="" style="ellipse;whiteSpace=wrap;html=1;aspect=fixed;fillColor=#dae8fc;strokeColor=#6c8ebf;" vertex="1" parent="P5x_hELf_6X6-CJ0kqpy-573">
          <mxGeometry y="27.746031746031743" width="6.434474140505739" height="6.434474140505739" as="geometry" />
        </mxCell>
        <mxCell id="P5x_hELf_6X6-CJ0kqpy-603" value="&lt;span style=&quot;white-space: pre-wrap; caret-color: rgba(0, 0, 0, 0.87); color: rgba(0, 0, 0, 0.87); font-family: &amp;quot;Helvetica Neue&amp;quot;, &amp;quot;Segoe UI&amp;quot;, Helvetica, Arial, sans-serif; text-align: left;&quot;&gt;&lt;font style=&quot;font-size: 9px;&quot;&gt;Temporal Edges&lt;/font&gt;&lt;/span&gt;" style="rounded=1;whiteSpace=wrap;html=1;strokeColor=none;fillColor=none;" vertex="1" parent="P5x_hELf_6X6-CJ0kqpy-607">
          <mxGeometry x="138.36993467203433" y="13.873015873015872" width="88.95210086059349" height="28.95238095238095" as="geometry" />
        </mxCell>
        <mxCell id="P5x_hELf_6X6-CJ0kqpy-605" value="" style="endArrow=classic;startArrow=classic;html=1;rounded=0;endSize=2;startSize=2;" edge="1" parent="P5x_hELf_6X6-CJ0kqpy-607">
          <mxGeometry width="50" height="50" relative="1" as="geometry">
            <mxPoint x="153.02726418050767" y="41.01587301587301" as="sourcePoint" />
            <mxPoint x="212.32866475423666" y="41.01587301587301" as="targetPoint" />
          </mxGeometry>
        </mxCell>
        <mxCell id="P5x_hELf_6X6-CJ0kqpy-606" value="&lt;span style=&quot;white-space: pre-wrap; caret-color: rgba(0, 0, 0, 0.87); color: rgba(0, 0, 0, 0.87); font-family: &amp;quot;Helvetica Neue&amp;quot;, &amp;quot;Segoe UI&amp;quot;, Helvetica, Arial, sans-serif; text-align: left;&quot;&gt;&lt;font style=&quot;font-size: 9px;&quot;&gt;Full Connection Graphs&lt;/font&gt;&lt;/span&gt;" style="rounded=1;whiteSpace=wrap;html=1;strokeColor=none;fillColor=none;" vertex="1" parent="P5x_hELf_6X6-CJ0kqpy-607">
          <mxGeometry x="6" y="21.11111111111111" width="88.95210086059349" height="28.95238095238095" as="geometry" />
        </mxCell>
        <mxCell id="P5x_hELf_6X6-CJ0kqpy-543" value="" style="endArrow=classic;html=1;rounded=0;startSize=4;endSize=3;" edge="1" parent="1">
          <mxGeometry width="50" height="50" relative="1" as="geometry">
            <mxPoint x="130.5" y="792" as="sourcePoint" />
            <mxPoint x="130.5" y="839" as="targetPoint" />
          </mxGeometry>
        </mxCell>
        <mxCell id="P5x_hELf_6X6-CJ0kqpy-544" value="" style="endArrow=classic;html=1;rounded=0;endSize=3;" edge="1" parent="1">
          <mxGeometry width="50" height="50" relative="1" as="geometry">
            <mxPoint x="142" y="836" as="sourcePoint" />
            <mxPoint x="142" y="791" as="targetPoint" />
          </mxGeometry>
        </mxCell>
        <mxCell id="P5x_hELf_6X6-CJ0kqpy-608" value="&lt;div style=&quot;text-align: left;&quot;&gt;&lt;font face=&quot;Helvetica Neue, Segoe UI, Helvetica, Arial, sans-serif&quot;&gt;&lt;span style=&quot;caret-color: rgba(0, 0, 0, 0.87); color: rgba(0, 0, 0, 0.87); white-space-collapse: preserve;&quot;&gt;STA-Block&lt;/span&gt;&lt;/font&gt;&lt;/div&gt;" style="rounded=1;whiteSpace=wrap;html=1;strokeColor=none;fillColor=none;" vertex="1" parent="1">
          <mxGeometry x="281.35999999999996" y="584" width="160" height="30" as="geometry" />
        </mxCell>
        <mxCell id="P5x_hELf_6X6-CJ0kqpy-617" value="" style="endArrow=classic;html=1;rounded=0;edgeStyle=elbowEdgeStyle;endSize=4;" edge="1" parent="1">
          <mxGeometry width="50" height="50" relative="1" as="geometry">
            <mxPoint x="359.810701107011" y="719.845002282063" as="sourcePoint" />
            <mxPoint x="360" y="760" as="targetPoint" />
            <Array as="points">
              <mxPoint x="446.35" y="742" />
            </Array>
          </mxGeometry>
        </mxCell>
        <mxCell id="P5x_hELf_6X6-CJ0kqpy-618" value="" style="endArrow=classic;html=1;rounded=0;edgeStyle=elbowEdgeStyle;endSize=4;" edge="1" parent="1">
          <mxGeometry width="50" height="50" relative="1" as="geometry">
            <mxPoint x="358.810701107011" y="803.845002282063" as="sourcePoint" />
            <mxPoint x="359" y="844" as="targetPoint" />
            <Array as="points">
              <mxPoint x="445.35" y="826" />
            </Array>
          </mxGeometry>
        </mxCell>
        <mxCell id="P5x_hELf_6X6-CJ0kqpy-619" value="&lt;span style=&quot;white-space: pre-wrap; caret-color: rgba(0, 0, 0, 0.87); color: rgba(0, 0, 0, 0.87); font-family: &amp;quot;Helvetica Neue&amp;quot;, &amp;quot;Segoe UI&amp;quot;, Helvetica, Arial, sans-serif;&quot;&gt;&lt;font style=&quot;font-size: 10px;&quot;&gt;Residual Connection&lt;/font&gt;&lt;/span&gt;" style="rounded=1;whiteSpace=wrap;html=1;strokeColor=none;fillColor=none;align=left;" vertex="1" parent="1">
          <mxGeometry x="363.07" y="668" width="98.93" height="25.21" as="geometry" />
        </mxCell>
        <mxCell id="P5x_hELf_6X6-CJ0kqpy-620" value="&lt;span style=&quot;white-space: pre-wrap; caret-color: rgba(0, 0, 0, 0.87); color: rgba(0, 0, 0, 0.87); font-family: &amp;quot;Helvetica Neue&amp;quot;, &amp;quot;Segoe UI&amp;quot;, Helvetica, Arial, sans-serif;&quot;&gt;&lt;font style=&quot;font-size: 10px;&quot;&gt;Residual Connection&lt;/font&gt;&lt;/span&gt;" style="rounded=1;whiteSpace=wrap;html=1;strokeColor=none;fillColor=none;align=left;" vertex="1" parent="1">
          <mxGeometry x="363.07" y="755" width="98.93" height="25.21" as="geometry" />
        </mxCell>
        <mxCell id="P5x_hELf_6X6-CJ0kqpy-621" value="&lt;span style=&quot;white-space: pre-wrap; caret-color: rgba(0, 0, 0, 0.87); color: rgba(0, 0, 0, 0.87); font-family: &amp;quot;Helvetica Neue&amp;quot;, &amp;quot;Segoe UI&amp;quot;, Helvetica, Arial, sans-serif;&quot;&gt;&lt;font style=&quot;font-size: 10px;&quot;&gt;Residual Connection&lt;/font&gt;&lt;/span&gt;" style="rounded=1;whiteSpace=wrap;html=1;strokeColor=none;fillColor=none;align=left;" vertex="1" parent="1">
          <mxGeometry x="362.07" y="840" width="98.93" height="25.21" as="geometry" />
        </mxCell>
      </root>
    </mxGraphModel>
  </diagram>
</mxfile>
